<?xml version="1.0" encoding="UTF-8"?>
<svg version="1.1" xmlns="http://www.w3.org/2000/svg" width="100" height="100">
<path d="M0 0 C0.66 0 1.32 0 2 0 C2 3.63 2 7.26 2 11 C3.65 11 5.3 11 7 11 C7 9.35 7 7.7 7 6 C7.66 6 8.32 6 9 6 C9 7.65 9 9.3 9 11 C15.27 11 21.54 11 28 11 C29.171875 13.27864583 30.34375 15.55729167 31.515625 17.8359375 C33.14267975 20.20801205 34.35386639 20.97094804 37 22 C37 23.65 37 25.3 37 27 C35.68 27.33 34.36 27.66 33 28 C33 28.99 33 29.98 33 31 C37.95 31 42.9 31 48 31 C49.171875 33.27864583 50.34375 35.55729167 51.515625 37.8359375 C53.14267975 40.20801205 54.35386639 40.97094804 57 42 C57 43.65 57 45.3 57 47 C55.68 47.33 54.36 47.66 53 48 C53 57.24 53 66.48 53 76 C54.65 76 56.3 76 58 76 C58 76.66 58 77.32 58 78 C33.91 78 9.82 78 -15 78 C-15 77.34 -15 76.68 -15 76 C-13.35 76 -11.7 76 -10 76 C-10 60.16 -10 44.32 -10 28 C-11.65 27.67 -13.3 27.34 -15 27 C-15 25.35 -15 23.7 -15 22 C-14.39671875 21.76539062 -13.7934375 21.53078125 -13.171875 21.2890625 C-10.46867073 19.6846427 -9.67684104 18.14941313 -8.25 15.375 C-7.60804687 14.14910156 -7.60804687 14.14910156 -6.953125 12.8984375 C-6.63859375 12.27195312 -6.3240625 11.64546875 -6 11 C-4.02 11 -2.04 11 0 11 C0 7.37 0 3.74 0 0 Z " fill="#20212B" transform="translate(29,8)"/>
<path d="M0 0 C12.87 0 25.74 0 39 0 C39 15.84 39 31.68 39 48 C31.74 48 24.48 48 17 48 C16.8046875 44.94010417 16.609375 41.88020833 16.4140625 38.8203125 C16.26746509 35.86953526 16.26746509 35.86953526 14 34 C11.5 33.66666667 11.5 33.66666667 9 34 C6.23776722 36.76223278 6.42143709 39.20706617 6 43 C4.02 43 2.04 43 0 43 C0 28.81 0 14.62 0 0 Z " fill="#FCD3B1" transform="translate(21,36)"/>
<path d="M0 0 C5.94 0 11.88 0 18 0 C18 9.24 18 18.48 18 28 C12.06 28 6.12 28 0 28 C0 18.76 0 9.52 0 0 Z " fill="#9DC4E8" transform="translate(62,56)"/>
<path d="M0 0 C0.66 0 1.32 0 2 0 C2 1.65 2 3.3 2 5 C2.66 5 3.32 5 4 5 C4 5.66 4 6.32 4 7 C8.95 7 13.9 7 19 7 C20.32 9.64 21.64 12.28 23 15 C10.46 15 -2.08 15 -15 15 C-13.68 12.36 -12.36 9.72 -11 7 C-9.68 7 -8.36 7 -7 7 C-7 8.32 -7 9.64 -7 11 C-6.34 11 -5.68 11 -5 11 C-5 9.02 -5 7.04 -5 5 C-3.35 5 -1.7 5 0 5 C0 3.35 0 1.7 0 0 Z " fill="#F07D96" transform="translate(36,14)"/>
<path d="M0 0 C15.84 0 31.68 0 48 0 C48 0.99 48 1.98 48 3 C32.16 3 16.32 3 0 3 C0 2.01 0 1.02 0 0 Z " fill="#EAD966" transform="translate(16,31)"/>
<path d="M0 0 C4.29 0 8.58 0 13 0 C14.32 2.64 15.64 5.28 17 8 C11.39 8 5.78 8 0 8 C0 5.36 0 2.72 0 0 Z " fill="#EC6287" transform="translate(62,41)"/>
<path d="M0 0 C0.84755859 0.04833984 1.69511719 0.09667969 2.56835938 0.14648438 C3.44943359 0.20255859 4.33050781 0.25863281 5.23828125 0.31640625 C6.13095703 0.36861328 7.02363281 0.42082031 7.94335938 0.47460938 C10.14619685 0.60418805 12.34856998 0.73914871 14.55078125 0.87890625 C14.55078125 2.19890625 14.55078125 3.51890625 14.55078125 4.87890625 C7.29078125 4.87890625 0.03078125 4.87890625 -7.44921875 4.87890625 C-7.44921875 3.55890625 -7.44921875 2.23890625 -7.44921875 0.87890625 C-4.52252184 -0.09665939 -3.00860554 -0.18172785 0 0 Z " fill="#F5B57C" transform="translate(45.44921875,79.12109375)"/>
<path d="M0 0 C2.43757413 -0.02698422 4.87484915 -0.04683099 7.3125 -0.0625 C8.00279297 -0.07087891 8.69308594 -0.07925781 9.40429688 -0.08789062 C12.5483025 -0.10307906 14.99420019 -0.00193327 18 1 C18 2.32 18 3.64 18 5 C12.06 5 6.12 5 0 5 C0 3.35 0 1.7 0 0 Z " fill="#6D91BD" transform="translate(62,79)"/>
<path d="M0 0 C3.53571429 0.53571429 3.53571429 0.53571429 5 2 C5.07226502 3.85287502 5.0838122 5.70833878 5.0625 7.5625 C5.05347656 8.57441406 5.04445313 9.58632812 5.03515625 10.62890625 C5.02355469 11.41136719 5.01195312 12.19382812 5 13 C2.69 13 0.38 13 -2 13 C-2.05391993 11.20866022 -2.09275571 9.41686101 -2.125 7.625 C-2.14820312 6.62726563 -2.17140625 5.62953125 -2.1953125 4.6015625 C-2 2 -2 2 0 0 Z " fill="#CCCABC" transform="translate(31,71)"/>
<path d="M0 0 C7.59 0 15.18 0 23 0 C23 0.99 23 1.98 23 3 C15.41 3 7.82 3 0 3 C0 2.01 0 1.02 0 0 Z " fill="#E5D564" transform="translate(61,51)"/>
<path d="M0 0 C1.65 0 3.3 0 5 0 C5 2.31 5 4.62 5 7 C3.35 7 1.7 7 0 7 C0 4.69 0 2.38 0 0 Z " fill="#767570" transform="translate(72,69)"/>
<path d="M0 0 C1.65 0 3.3 0 5 0 C5 2.31 5 4.62 5 7 C3.35 7 1.7 7 0 7 C0 4.69 0 2.38 0 0 Z " fill="#767570" transform="translate(64,69)"/>
<path d="M0 0 C1.65 0 3.3 0 5 0 C5 2.31 5 4.62 5 7 C3.35 7 1.7 7 0 7 C0 4.69 0 2.38 0 0 Z " fill="#808080" transform="translate(50,69)"/>
<path d="M0 0 C1.65 0 3.3 0 5 0 C5 2.31 5 4.62 5 7 C3.35 7 1.7 7 0 7 C0 4.69 0 2.38 0 0 Z " fill="#808080" transform="translate(42,69)"/>
<path d="M0 0 C1.65 0 3.3 0 5 0 C5 2.31 5 4.62 5 7 C3.35 7 1.7 7 0 7 C0 4.69 0 2.38 0 0 Z " fill="#767570" transform="translate(72,59)"/>
<path d="M0 0 C1.65 0 3.3 0 5 0 C5 2.31 5 4.62 5 7 C3.35 7 1.7 7 0 7 C0 4.69 0 2.38 0 0 Z " fill="#767570" transform="translate(64,59)"/>
<path d="M0 0 C1.65 0 3.3 0 5 0 C5 2.31 5 4.62 5 7 C3.35 7 1.7 7 0 7 C0 4.69 0 2.38 0 0 Z " fill="#808080" transform="translate(50,59)"/>
<path d="M0 0 C1.65 0 3.3 0 5 0 C5 2.31 5 4.62 5 7 C3.35 7 1.7 7 0 7 C0 4.69 0 2.38 0 0 Z " fill="#808080" transform="translate(42,59)"/>
<path d="M0 0 C1.65 0 3.3 0 5 0 C5 2.31 5 4.62 5 7 C3.35 7 1.7 7 0 7 C0 4.69 0 2.38 0 0 Z " fill="#808080" transform="translate(34,59)"/>
<path d="M0 0 C1.65 0 3.3 0 5 0 C5 2.31 5 4.62 5 7 C3.35 7 1.7 7 0 7 C0 4.69 0 2.38 0 0 Z " fill="#808080" transform="translate(26,59)"/>
<path d="M0 0 C1.65 0 3.3 0 5 0 C5 2.31 5 4.62 5 7 C3.35 7 1.7 7 0 7 C0 4.69 0 2.38 0 0 Z " fill="#808080" transform="translate(50,49)"/>
<path d="M0 0 C1.65 0 3.3 0 5 0 C5 2.31 5 4.62 5 7 C3.35 7 1.7 7 0 7 C0 4.69 0 2.38 0 0 Z " fill="#808080" transform="translate(42,49)"/>
<path d="M0 0 C1.65 0 3.3 0 5 0 C5 2.31 5 4.62 5 7 C3.35 7 1.7 7 0 7 C0 4.69 0 2.38 0 0 Z " fill="#808080" transform="translate(34,49)"/>
<path d="M0 0 C1.65 0 3.3 0 5 0 C5 2.31 5 4.62 5 7 C3.35 7 1.7 7 0 7 C0 4.69 0 2.38 0 0 Z " fill="#808080" transform="translate(26,49)"/>
<path d="M0 0 C1.65 0 3.3 0 5 0 C5 2.31 5 4.62 5 7 C3.35 7 1.7 7 0 7 C0 4.69 0 2.38 0 0 Z " fill="#808080" transform="translate(50,39)"/>
<path d="M0 0 C1.65 0 3.3 0 5 0 C5 2.31 5 4.62 5 7 C3.35 7 1.7 7 0 7 C0 4.69 0 2.38 0 0 Z " fill="#808080" transform="translate(42,39)"/>
<path d="M0 0 C1.65 0 3.3 0 5 0 C5 2.31 5 4.62 5 7 C3.35 7 1.7 7 0 7 C0 4.69 0 2.38 0 0 Z " fill="#808080" transform="translate(34,39)"/>
<path d="M0 0 C1.65 0 3.3 0 5 0 C5 2.31 5 4.62 5 7 C3.35 7 1.7 7 0 7 C0 4.69 0 2.38 0 0 Z " fill="#808080" transform="translate(26,39)"/>
<path d="M0 0 C0.66 0 1.32 0 2 0 C2 3.63 2 7.26 2 11 C1.34 11 0.68 11 0 11 C0 9.68 0 8.36 0 7 C-0.99 7 -1.98 7 -3 7 C-3 6.34 -3 5.68 -3 5 C-2.01 5 -1.02 5 0 5 C0 3.35 0 1.7 0 0 Z " fill="#26232E" transform="translate(36,14)"/>
<path d="M0 0 C1.2375 0.1546875 1.2375 0.1546875 2.5 0.3125 C3.16 1.3025 3.82 2.2925 4.5 3.3125 C3.51 3.3125 2.52 3.3125 1.5 3.3125 C-1.51529276 3.87786739 -2.8408556 4.53973707 -5.5 6.3125 C-4.75209413 2.57297064 -4.13310341 0.51663793 0 0 Z " fill="#37353B" transform="translate(32.5,68.6875)"/>
<path d="M0 0 C1.98 0 3.96 0 6 0 C6 1.32 6 2.64 6 4 C4.02 4 2.04 4 0 4 C0 2.68 0 1.36 0 0 Z " fill="#FCBA7F" transform="translate(21,80)"/>
</svg>
