<?xml version="1.0" encoding="UTF-8"?>
<svg version="1.1" xmlns="http://www.w3.org/2000/svg" width="160" height="160">
<path d="M0 0 C2.29510823 0.01073507 4.58943678 0.00005107 6.88452148 -0.01269531 C8.36694506 -0.01137378 9.84936815 -0.00881153 11.33178711 -0.00488281 C12.34306419 -0.01095551 12.34306419 -0.01095551 13.37477112 -0.01715088 C18.30413612 0.03058155 22.52295333 0.93934235 27.23413086 2.26074219 C27.31663086 3.04449219 27.39913086 3.82824219 27.48413086 4.63574219 C27.95024011 7.38714323 27.95024011 7.38714323 30.17163086 8.44824219 C30.85225586 8.71636719 31.53288086 8.98449219 32.23413086 9.26074219 C34.23413086 11.26074219 34.23413086 11.26074219 34.42163086 14.63574219 C34.27650976 17.44141673 33.99301338 19.60465336 33.23413086 22.26074219 C33.23413086 23.25074219 33.23413086 24.24074219 33.23413086 25.26074219 C34.28802002 25.28579834 35.34190918 25.31085449 36.42773438 25.33666992 C40.36208906 25.4313051 44.29629011 25.53138558 48.23046875 25.63305664 C49.92867421 25.67619439 51.62691715 25.71788302 53.32519531 25.75805664 C55.77542384 25.81627562 58.22546733 25.87981722 60.67553711 25.94433594 C61.42686417 25.96104843 62.17819122 25.97776093 62.95228577 25.99497986 C74.92840307 26.32663803 74.92840307 26.32663803 78.09814453 28.59423828 C82.74996938 35.41851432 81.50864782 45.5285868 81.43994141 53.44677734 C81.42149647 55.65180853 81.41943354 57.85642252 81.41967773 60.06152344 C81.38216217 70.81664826 81.38216217 70.81664826 80.23413086 74.26074219 C80.12723904 76.21228694 80.0780529 78.16719048 80.06054688 80.12158203 C80.04031212 81.92893326 80.04031212 81.92893326 80.01966858 83.77279663 C80.00923019 85.07592804 79.99879181 86.37905945 79.98803711 87.72167969 C79.97253035 89.07305704 79.95632044 90.42442649 79.93943787 91.77578735 C79.86877084 97.51254084 79.8086061 103.24936918 79.75732422 108.98632812 C79.72546044 112.49770309 79.68416699 116.00886626 79.63712883 119.52006912 C79.61340323 121.50357129 79.60038746 123.48719223 79.58753967 125.47079468 C79.56257668 127.28760239 79.56257668 127.28760239 79.53710938 129.14111328 C79.52680191 130.20462006 79.51649445 131.26812683 79.50587463 132.36386108 C79.15598978 136.09375273 78.27409678 138.86709404 76.02600861 141.87973499 C73.46770133 143.85143243 71.60448931 143.64667943 68.39552307 143.66188049 C67.17712738 143.67467545 65.95873169 143.6874704 64.70341492 143.70065308 C63.35110445 143.69960452 61.9987942 143.69821991 60.64648438 143.6965332 C59.22397058 143.70550856 57.80146411 143.71571629 56.37896729 143.72706604 C52.51325818 143.7535919 48.64774822 143.76060052 44.78195691 143.7625134 C41.55620589 143.76536058 38.33050136 143.7763952 35.10476822 143.78702968 C27.49544004 143.81146504 19.88621836 143.8187822 12.27685547 143.81665039 C4.42349967 143.81484739 -3.42923833 143.84651412 -11.28243774 143.89388138 C-18.02223736 143.93308658 -24.76183486 143.94920303 -31.50174767 143.94728416 C-35.52846456 143.9465186 -39.55463242 143.95510361 -43.58123589 143.98681831 C-47.36787287 144.01582844 -51.15343474 144.01612509 -54.94010925 143.99426842 C-56.33008453 143.99112657 -57.72012634 143.99824602 -59.10998726 144.01634979 C-69.82195701 144.14684744 -69.82195701 144.14684744 -73.59005737 140.60951233 C-74.79873167 137.16714808 -75.27604935 134.59254497 -75.29589844 130.95166016 C-75.32063484 129.10977615 -75.32063484 129.10977615 -75.34587097 127.23068237 C-75.34396255 125.91802399 -75.34205414 124.6053656 -75.34008789 123.25292969 C-75.35254596 121.88101427 -75.36688376 120.50911475 -75.38301086 119.13723755 C-75.42092783 115.53847944 -75.4362047 111.93999604 -75.44580078 108.34106445 C-75.46559071 102.574535 -75.52249099 96.8082136 -75.57456398 91.04190445 C-75.58986446 89.03227563 -75.59635101 87.02258595 -75.60270691 85.01290894 C-75.60974136 83.79129059 -75.61677582 82.56967224 -75.62402344 81.31103516 C-75.6275029 80.23659149 -75.63098236 79.16214783 -75.63456726 78.05514526 C-75.74990488 75.60049811 -76.12345819 73.61306131 -76.76586914 71.26074219 C-76.9672061 66.60867413 -76.95167261 61.95518224 -76.95117188 57.29931641 C-76.95334839 55.03235823 -76.9714934 52.76589498 -76.99047852 50.49902344 C-76.99341494 49.03938967 -76.99539807 47.57975361 -76.99633789 46.12011719 C-77.00044678 44.80495117 -77.00455566 43.48978516 -77.00878906 42.13476562 C-76.70911762 37.35568381 -76.12560888 32.47926492 -73.57836914 28.32324219 C-68.69401635 25.4600009 -61.77203055 26.06811817 -56.20727539 25.94433594 C-55.41812241 25.92355484 -54.62896942 25.90277374 -53.81590271 25.88136292 C-51.32013805 25.81650913 -48.82427736 25.75728414 -46.32836914 25.69824219 C-44.62588566 25.65499577 -42.92341152 25.61137963 -41.22094727 25.56738281 C-37.06935041 25.46089456 -32.91765796 25.35945072 -28.76586914 25.26074219 C-28.59905805 22.34422045 -28.59905805 22.34422045 -28.76586914 19.26074219 C-29.42586914 18.60074219 -30.08586914 17.94074219 -30.76586914 17.26074219 C-30.67527617 13.18405869 -30.10899905 11.62102859 -27.26586914 8.63574219 C-26.44086914 7.85199219 -25.61586914 7.06824219 -24.76586914 6.26074219 C-24.08627112 4.18024386 -24.08627112 4.18024386 -23.76586914 2.26074219 C-15.86839397 -0.00338039 -8.14359102 -0.04535362 0 0 Z M-22.76586914 19.26074219 C-22.44387948 22.36001038 -22.44387948 22.36001038 -21.76586914 25.26074219 C-17.23754789 26.39113115 -12.77826159 26.42217615 -8.14086914 26.42871094 C-6.90409424 26.43370354 -6.90409424 26.43370354 -5.64233398 26.438797 C-3.90422115 26.44384511 -2.16609868 26.44620598 -0.42797852 26.44604492 C2.22517864 26.4482348 4.87792198 26.46642204 7.53100586 26.48535156 C9.22371278 26.48828528 10.91642166 26.49027022 12.60913086 26.49121094 C13.79369873 26.50198921 13.79369873 26.50198921 15.00219727 26.51298523 C19.14686087 26.49585226 22.58843484 26.34418667 26.23413086 24.26074219 C27.1279925 21.71298913 27.1279925 21.71298913 27.23413086 19.26074219 C26.57413086 19.26074219 25.91413086 19.26074219 25.23413086 19.26074219 C25.23413086 18.60074219 25.23413086 17.94074219 25.23413086 17.26074219 C13.88988923 14.58024628 -13.72764669 10.22251974 -22.76586914 19.26074219 Z " fill="#83624E" transform="translate(77.765869140625,15.7392578125)"/>
<path d="M0 0 C0.66 0 1.32 0 2 0 C2.66 3.3 3.32 6.6 4 10 C5.05388916 10.02505615 6.10777832 10.0501123 7.19360352 10.07592773 C11.12795821 10.17056291 15.06215925 10.27064339 18.99633789 10.37231445 C20.69454335 10.4154522 22.39278629 10.45714084 24.09106445 10.49731445 C26.54129298 10.55553344 28.99133647 10.61907503 31.44140625 10.68359375 C32.19273331 10.70030624 32.94406036 10.71701874 33.71815491 10.73423767 C45.67910428 11.0654758 45.67910428 11.0654758 48.86376953 13.31860352 C53.25418522 19.81555084 52.24185939 29.10597169 52.125 36.5625 C52.11597656 37.66658203 52.10695313 38.77066406 52.09765625 39.90820312 C52.07430128 42.6057017 52.04155054 45.30273077 52 48 C51.34 48 50.68 48 50 48 C49.67 49.65 49.34 51.3 49 53 C47.68 53 46.36 53 45 53 C45.495 55.475 45.495 55.475 46 58 C45.34 58 44.68 58 44 58 C44.33 58.99 44.66 59.98 45 61 C44.34 61 43.68 61 43 61 C43.226875 61.598125 43.45375 62.19625 43.6875 62.8125 C43.790625 63.534375 43.89375 64.25625 44 65 C43.03463433 66.03347429 42.02634699 67.0270602 41 68 C39.88093217 69.44693031 38.77777963 70.90625548 37.6875 72.375 C34.19903256 76.89164732 30.88635018 80.87361944 25.4375 83 C22.76533622 83.91315867 22.76533622 83.91315867 20.5 86.5 C18.00711869 88.99288131 16.3724103 90.08853776 13 91 C12.34 90.67 11.68 90.34 11 90 C11 90.66 11 91.32 11 92 C9.00531118 92.68239354 7.00342734 93.34370484 5 94 C4.16855469 94.27585937 3.33710937 94.55171875 2.48046875 94.8359375 C1.60003906 95.11695312 0.71960938 95.39796875 -0.1875 95.6875 C-1.02667969 95.95949219 -1.86585937 96.23148437 -2.73046875 96.51171875 C-5 97 -5 97 -8 96 C-8.45503906 95.32324219 -8.91007812 94.64648438 -9.37890625 93.94921875 C-10.83447539 91.76019114 -10.83447539 91.76019114 -13.33984375 91.64453125 C-14.19707031 91.69996094 -15.05429688 91.75539063 -15.9375 91.8125 C-20.71262804 92.07898528 -20.71262804 92.07898528 -23.00390625 91.44921875 C-25.4947193 90.74653572 -25.4947193 90.74653572 -30 92 C-23.73 92.33 -17.46 92.66 -11 93 C-10.67 94.65 -10.34 96.3 -10 98 C-10.33 98.33 -10.66 98.66 -11 99 C-11.17033722 102.49380558 -11.29707061 105.98092181 -11.34179688 109.47851562 C-11.53736057 114.72235158 -12.46793521 117.88029965 -16 122 C-21.05601539 125.80857055 -28.99665403 124.65324766 -35 124 C-38.87128172 122.2495074 -40.66151266 119.50773101 -43 116 C-43.22705078 114.09887695 -43.22705078 114.09887695 -43.1953125 111.98828125 C-43.18564453 110.85229492 -43.18564453 110.85229492 -43.17578125 109.69335938 C-43.15902344 108.90767578 -43.14226563 108.12199219 -43.125 107.3125 C-43.11597656 106.51521484 -43.10695313 105.71792969 -43.09765625 104.89648438 C-43.07411585 102.930861 -43.03824547 100.96539225 -43 99 C-43.87398437 99.24556641 -43.87398437 99.24556641 -44.765625 99.49609375 C-47.85736768 100.1933574 -50.84286393 100.06071416 -54 100 C-50.93882432 97.37613513 -50.26826873 97 -46 97 C-45.67 95.02 -45.34 93.04 -45 91 C-44.34 91 -43.68 91 -43 91 C-43.10699219 90.40832031 -43.21398438 89.81664063 -43.32421875 89.20703125 C-43.50404297 88.02173828 -43.50404297 88.02173828 -43.6875 86.8125 C-43.81511719 86.03519531 -43.94273438 85.25789063 -44.07421875 84.45703125 C-44 82 -44 82 -42.52734375 79.69921875 C-40.49994688 76.1162744 -40.71423647 72.98774154 -40.875 69 C-40.90627085 67.48835739 -40.93356891 65.97662772 -40.95703125 64.46484375 C-40.96943848 63.7157373 -40.9818457 62.96663086 -40.99462891 62.19482422 C-41.02678769 49.05357538 -41.02678769 49.05357538 -39 45 C-38.34 45 -37.68 45 -37 45 C-37 44.01 -37 43.02 -37 42 C-37.66 42 -38.32 42 -39 42 C-39 41.34 -39 40.68 -39 40 C-38.34 40 -37.68 40 -37 40 C-37 39.01 -37 38.02 -37 37 C-37.66 37 -38.32 37 -39 37 C-39 31.06 -39 25.12 -39 19 C-38.34 19 -37.68 19 -37 19 C-37 17.35 -37 15.7 -37 14 C-30.4 14 -23.8 14 -17 14 C-17.495 12.02 -17.495 12.02 -18 10 C-17.32453125 10.01160156 -16.6490625 10.02320313 -15.953125 10.03515625 C-15.06109375 10.04417969 -14.1690625 10.05320312 -13.25 10.0625 C-12.36828125 10.07410156 -11.4865625 10.08570313 -10.578125 10.09765625 C-7.18929428 9.99039314 -7.18929428 9.99039314 -4 9 C-2.64897007 6.9279446 -2.64897007 6.9279446 -1.75 4.4375 C-1.41484375 3.61121094 -1.0796875 2.78492188 -0.734375 1.93359375 C-0.49203125 1.29550781 -0.2496875 0.65742188 0 0 Z M-11 87 C-10 91 -10 91 -10 91 Z " fill="#5B4031" transform="translate(107,31)"/>
<path d="M0 0 C0.66 0 1.32 0 2 0 C2.125 7.625 2.125 7.625 1 11 C0.89310818 12.95154475 0.84392204 14.9064483 0.82641602 16.86083984 C0.80618126 18.66819107 0.80618126 18.66819107 0.78553772 20.51205444 C0.77509933 21.81518585 0.76466095 23.11831726 0.75390625 24.4609375 C0.73839949 25.81231485 0.72218958 27.1636843 0.70530701 28.51504517 C0.63463998 34.25179866 0.57447524 39.98862699 0.52319336 45.72558594 C0.49132958 49.2369609 0.45003613 52.74812407 0.40299797 56.25932693 C0.37927237 58.2428291 0.3662566 60.22645004 0.35340881 62.21005249 C0.32844582 64.0268602 0.32844582 64.0268602 0.30297852 65.88037109 C0.29267105 66.94387787 0.28236359 68.00738464 0.27174377 69.1031189 C-0.07814108 72.83301054 -0.96003408 75.60635185 -3.20812225 78.61899281 C-5.76642953 80.59069024 -7.62964155 80.38593724 -10.83860779 80.40113831 C-12.66620132 80.42033073 -12.66620132 80.42033073 -14.53071594 80.43991089 C-15.88302641 80.43886233 -17.23533666 80.43747772 -18.58764648 80.43579102 C-20.01016027 80.44476637 -21.43266675 80.4549741 -22.85516357 80.46632385 C-26.72087268 80.49284971 -30.58638264 80.49985833 -34.45217395 80.50177121 C-37.67792497 80.50461839 -40.9036295 80.51565302 -44.12936264 80.5262875 C-51.73869082 80.55072285 -59.34791249 80.55804001 -66.95727539 80.5559082 C-74.81063119 80.55410521 -82.66336919 80.58577193 -90.5165686 80.63313919 C-97.25636822 80.67234439 -103.99596572 80.68846084 -110.73587853 80.68654197 C-114.76259542 80.68577642 -118.78876328 80.69436142 -122.81536674 80.72607613 C-126.60200373 80.75508626 -130.3875656 80.7553829 -134.17424011 80.73352623 C-135.56421539 80.73038439 -136.9542572 80.73750383 -138.34411812 80.7556076 C-149.05713248 80.88611798 -149.05713248 80.88611798 -152.82418823 77.34579468 C-154.02824507 73.91962811 -154.5101072 71.36207217 -154.5300293 67.73852539 C-154.54652023 66.5202858 -154.56301117 65.3020462 -154.58000183 64.04689026 C-154.57809341 62.74364304 -154.576185 61.44039581 -154.57421875 60.09765625 C-154.58668084 58.73292766 -154.60101974 57.36821504 -154.61714172 56.00352478 C-154.65506927 52.42071205 -154.67033409 48.83817504 -154.67993164 45.25518799 C-154.69970931 39.52524709 -154.75683893 33.79551512 -154.80869484 28.06579399 C-154.82391733 26.07458417 -154.83046519 24.08331408 -154.83683777 22.09205627 C-154.87020659 16.29823068 -154.93659794 10.70350888 -156 5 C-150.68168389 9.81463158 -149.56725377 17.24875298 -148 24 C-147.34 24 -146.68 24 -146 24 C-145.02614741 25.4104072 -144.05816471 26.82544583 -143.12890625 28.265625 C-141.24288699 31.16317709 -139.46493607 33.53506393 -137 36 C-133.78839304 36.50265692 -133.78839304 36.50265692 -131 36 C-130.67 35.34 -130.34 34.68 -130 34 C-129.62875 34.433125 -129.2575 34.86625 -128.875 35.3125 C-126.48579451 37.46278494 -123.87992169 38.58942611 -121 40 C-119.64136599 40.96534522 -118.29656863 41.95277149 -117 43 C-116.505 42.01 -116.505 42.01 -116 41 C-115.67 41.99 -115.34 42.98 -115 44 C-113.081875 44.185625 -113.081875 44.185625 -111.125 44.375 C-107.25 44.75 -107.25 44.75 -105 47 C-102.42938689 47.64767793 -102.42938689 47.64767793 -100 48 C-100 48.66 -100 49.32 -100 50 C-100.99 50.495 -100.99 50.495 -102 51 C-99.03 51 -96.06 51 -93 51 C-92.98582031 52.15757812 -92.97164062 53.31515625 -92.95703125 54.5078125 C-92.91010743 56.04691372 -92.86186018 57.58597499 -92.8125 59.125 C-92.80669922 59.88554687 -92.80089844 60.64609375 -92.79492188 61.4296875 C-92.56829926 67.27151482 -91.19603744 69.91220632 -87 74 C-84.01284862 75.49357569 -80.96112064 75.22503435 -77.6875 75.25 C-76.37136719 75.27578125 -75.05523437 75.3015625 -73.69921875 75.328125 C-69.81963462 74.98400138 -68.0030376 74.42868615 -65 72 C-62.23249094 68.40308455 -62.59015687 63.92252906 -62.4375 59.5625 C-62.37703193 58.06366386 -62.31331097 56.56495488 -62.24609375 55.06640625 C-62.21020142 54.0755603 -62.21020142 54.0755603 -62.17358398 53.06469727 C-61.97359445 50.68591876 -61.46816265 48.34081326 -61 46 C-75.85 45.505 -75.85 45.505 -91 45 C-87.00658236 43.00329118 -85.63973407 42.7938095 -81.375 42.9375 C-77.53825946 43.16497696 -77.53825946 43.16497696 -74 42 C-72.515 42.495 -72.515 42.495 -71 43 C-69.35297613 42.94500755 -67.70684626 42.85879885 -66.0625 42.75 C-63.359375 42.69921875 -63.359375 42.69921875 -61 43 C-59.61423077 44.62332967 -58.27358732 46.28724465 -57 48 C-52.53971062 47.91890383 -49.07340644 46.6711411 -45 45 C-43.0075675 44.62406934 -41.0081326 44.28020455 -39 44 C-39 43.34 -39 42.68 -39 42 C-37.35 42 -35.7 42 -34 42 C-33.505 41.01 -33.505 41.01 -33 40 C-32.01 39.67 -31.02 39.34 -30 39 C-29.21625 38.195625 -28.4325 37.39125 -27.625 36.5625 C-25 34 -25 34 -22.6328125 33.14453125 C-19.32092071 31.70479194 -17.63393951 29.82093159 -15.25 27.125 C-14.47140625 26.26132813 -13.6928125 25.39765625 -12.890625 24.5078125 C-11.08351039 22.11077205 -10.65855179 20.81713823 -10 18 C-9.01 17.34 -8.02 16.68 -7 16 C-6.26656572 12.93443402 -6.26656572 12.93443402 -6 10 C-5.34 10 -4.68 10 -4 10 C-4.33 8.35 -4.66 6.7 -5 5 C-4.360625 4.731875 -3.72125 4.46375 -3.0625 4.1875 C-0.66868314 3.11332248 -0.66868314 3.11332248 0 0 Z M-61 39 C-60 43 -60 43 -60 43 Z " fill="#493024" transform="translate(157,79)"/>
<path d="M0 0 C0.66 2.31 1.32 4.62 2 7 C3.11375 6.1028125 3.11375 6.1028125 4.25 5.1875 C8.87814807 2.11679555 14.4880003 0.42285866 20 0 C22.68359375 1.43359375 22.68359375 1.43359375 25 3 C25.99 3 26.98 3 28 3 C28.66 4.32 29.32 5.64 30 7 C35.46864457 5.98408579 40.76390013 4.92908943 46 3 C46.495 4.485 46.495 4.485 47 6 C47.68707031 5.9278125 48.37414062 5.855625 49.08203125 5.78125 C49.98308594 5.6884375 50.88414062 5.595625 51.8125 5.5 C52.70582031 5.4071875 53.59914063 5.314375 54.51953125 5.21875 C57 5 57 5 60 5 C60.22786458 7.01822917 60.45572917 9.03645833 60.68359375 11.0546875 C60.91292961 13.07404316 60.91292961 13.07404316 62 15 C61.67 15.99 61.34 16.98 61 18 C61.66 18.33 62.32 18.66 63 19 C62.34 19 61.68 19 61 19 C61 19.99 61 20.98 61 22 C61.66 22 62.32 22 63 22 C62.67 23.32 62.34 24.64 62 26 C63.65 24.68 65.3 23.36 67 22 C67 24.31 67 26.62 67 29 C66.34 29 65.68 29 65 29 C64.67 30.65 64.34 32.3 64 34 C62.68 34 61.36 34 60 34 C60.495 36.475 60.495 36.475 61 39 C60.34 39 59.68 39 59 39 C59.33 39.99 59.66 40.98 60 42 C59.34 42 58.68 42 58 42 C58.226875 42.598125 58.45375 43.19625 58.6875 43.8125 C58.790625 44.534375 58.89375 45.25625 59 46 C58.03463433 47.03347429 57.02634699 48.0270602 56 49 C54.88093217 50.44693031 53.77777963 51.90625548 52.6875 53.375 C49.19903256 57.89164732 45.88635018 61.87361944 40.4375 64 C37.76533622 64.91315867 37.76533622 64.91315867 35.5 67.5 C33.00711869 69.99288131 31.3724103 71.08853776 28 72 C27.01 71.505 27.01 71.505 26 71 C26 71.66 26 72.32 26 73 C24.00531118 73.68239354 22.00342734 74.34370484 20 75 C19.16855469 75.27585937 18.33710937 75.55171875 17.48046875 75.8359375 C16.60003906 76.11695312 15.71960938 76.39796875 14.8125 76.6875 C13.97332031 76.95949219 13.13414063 77.23148437 12.26953125 77.51171875 C10 78 10 78 7 77 C4.46114153 73.61485537 3.53014909 71.22865822 4 67 C4.33 66.67 4.66 66.34 5 66 C4.34 65.34 3.68 64.68 3 64 C2.63557767 62.33985384 2.30027117 60.67293936 2 59 C1.505 58.505 1.505 58.505 1 58 C0.97912631 55.16117796 1.00662784 52.3374073 1.0625 49.5 C1.13334084 42.99923624 0.84124562 37.28189681 -1 31 C-1.33800962 29.66784446 -1.67181712 28.33461039 -2 27 C-2.185625 26.29875 -2.37125 25.5975 -2.5625 24.875 C-3.11035151 22.52706495 -3 20.4240563 -3 18 C-2.34 17.67 -1.68 17.34 -1 17 C-1.66 16.01 -2.32 15.02 -3 14 C-2.67 13.34 -2.34 12.68 -2 12 C-2.28241883 9.6599583 -2.61250787 7.32495277 -3 5 C-3.99 4.67 -4.98 4.34 -6 4 C-6.66 3.67 -7.32 3.34 -8 3 C-9.33602205 3.32238793 -10.66891752 3.65778908 -12 4 C-13.74886981 4.06624507 -15.50002748 4.08552595 -17.25 4.0625 C-18.14203125 4.05347656 -19.0340625 4.04445313 -19.953125 4.03515625 C-20.62859375 4.02355469 -21.3040625 4.01195312 -22 4 C-19.0363461 1.0363461 -15.55793397 1.27751275 -11.5625 0.875 C-10.78583984 0.78863281 -10.00917969 0.70226563 -9.20898438 0.61328125 C-6.12603886 0.27869802 -3.10300359 0 0 0 Z " fill="#83634F" transform="translate(92,50)"/>
<path d="M0 0 C0.66 0 1.32 0 2 0 C2.66 3.3 3.32 6.6 4 10 C5.05388916 10.02505615 6.10777832 10.0501123 7.19360352 10.07592773 C11.12795821 10.17056291 15.06215925 10.27064339 18.99633789 10.37231445 C20.69454335 10.4154522 22.39278629 10.45714084 24.09106445 10.49731445 C26.54129298 10.55553344 28.99133647 10.61907503 31.44140625 10.68359375 C32.19273331 10.70030624 32.94406036 10.71701874 33.71815491 10.73423767 C45.69728697 11.06597934 45.69728697 11.06597934 48.86328125 13.3359375 C52.60319979 18.8108698 52.24740101 26.35640367 52.375 32.75 C52.40102295 33.48299316 52.4270459 34.21598633 52.45385742 34.97119141 C52.46653851 38.80087922 52.13294484 40.80186599 49.9765625 44.015625 C49.32429688 44.67046875 48.67203125 45.3253125 48 46 C47.34 45.67 46.68 45.34 46 45 C46.66 43.68 47.32 42.36 48 41 C47.34 41 46.68 41 46 41 C46.020625 39.88625 46.04125 38.7725 46.0625 37.625 C46.26380718 34.16784079 46.26380718 34.16784079 45 32 C44.56774551 29.34243535 44.30220481 26.67667115 44 24 C42.4221875 24.2475 42.4221875 24.2475 40.8125 24.5 C35.0237581 25.25917927 35.0237581 25.25917927 32 25 C31.01 24.01 31.01 24.01 30 23 C29.01 23.474375 28.02 23.94875 27 24.4375 C22.93370466 26.16484903 19.42731196 26.85242293 15 27 C13 25.5625 13 25.5625 12 24 C12.33 23.34 12.66 22.68 13 22 C12.13375 22.3403125 12.13375 22.3403125 11.25 22.6875 C10.5075 22.790625 9.765 22.89375 9 23 C8.41347656 22.48953125 7.82695313 21.9790625 7.22265625 21.453125 C5.05356877 19.71113205 5.05356877 19.71113205 2.23046875 20.22265625 C-3.73155732 21.86814483 -8.82292454 23.58783663 -14 27 C-14.33 24.36 -14.66 21.72 -15 19 C-15.87398437 19.19916016 -15.87398437 19.19916016 -16.765625 19.40234375 C-23.49048942 20.85093876 -30.14015858 21.55210657 -37 22 C-36.814375 22.845625 -36.62875 23.69125 -36.4375 24.5625 C-35.96470368 28.2773282 -36.33935369 31.32974273 -37 35 C-37.66 35 -38.32 35 -39 35 C-39 29.72 -39 24.44 -39 19 C-38.34 19 -37.68 19 -37 19 C-37 17.35 -37 15.7 -37 14 C-30.4 14 -23.8 14 -17 14 C-17.33 12.68 -17.66 11.36 -18 10 C-17.32453125 10.01160156 -16.6490625 10.02320313 -15.953125 10.03515625 C-15.06109375 10.04417969 -14.1690625 10.05320312 -13.25 10.0625 C-12.36828125 10.07410156 -11.4865625 10.08570313 -10.578125 10.09765625 C-7.18929428 9.99039314 -7.18929428 9.99039314 -4 9 C-2.64897007 6.9279446 -2.64897007 6.9279446 -1.75 4.4375 C-1.41484375 3.61121094 -1.0796875 2.78492188 -0.734375 1.93359375 C-0.49203125 1.29550781 -0.2496875 0.65742188 0 0 Z " fill="#9F7961" transform="translate(107,31)"/>
<path d="M0 0 C2.29510823 0.01073507 4.58943678 0.00005107 6.88452148 -0.01269531 C8.36694506 -0.01137378 9.84936815 -0.00881153 11.33178711 -0.00488281 C12.34306419 -0.01095551 12.34306419 -0.01095551 13.37477112 -0.01715088 C18.30413612 0.03058155 22.52295333 0.93934235 27.23413086 2.26074219 C27.31663086 3.04449219 27.39913086 3.82824219 27.48413086 4.63574219 C27.95024011 7.38714323 27.95024011 7.38714323 30.17163086 8.44824219 C30.85225586 8.71636719 31.53288086 8.98449219 32.23413086 9.26074219 C34.23413086 11.26074219 34.23413086 11.26074219 34.54663086 14.76074219 C34.44350586 15.91574219 34.34038086 17.07074219 34.23413086 18.26074219 C33.24413086 18.92074219 32.25413086 19.58074219 31.23413086 20.26074219 C31.23413086 18.61074219 31.23413086 16.96074219 31.23413086 15.26074219 C30.57413086 15.59074219 29.91413086 15.92074219 29.23413086 16.26074219 C28.73913086 17.74574219 28.73913086 17.74574219 28.23413086 19.26074219 C27.24413086 19.26074219 26.25413086 19.26074219 25.23413086 19.26074219 C25.23413086 18.60074219 25.23413086 17.94074219 25.23413086 17.26074219 C-0.44290145 14.11617286 -0.44290145 14.11617286 -24.76586914 20.26074219 C-24.76586914 18.61074219 -24.76586914 16.96074219 -24.76586914 15.26074219 C-25.42586914 15.26074219 -26.08586914 15.26074219 -26.76586914 15.26074219 C-26.76586914 16.91074219 -26.76586914 18.56074219 -26.76586914 20.26074219 C-28.08586914 19.27074219 -29.40586914 18.28074219 -30.76586914 17.26074219 C-30.38598756 11.81577293 -28.64088329 9.94200563 -24.76586914 6.26074219 C-24.08627112 4.18024386 -24.08627112 4.18024386 -23.76586914 2.26074219 C-15.86839397 -0.00338039 -8.14359102 -0.04535362 0 0 Z " fill="#2F1F16" transform="translate(77.765869140625,15.7392578125)"/>
<path d="M0 0 C11.22 0 22.44 0 34 0 C33.67 1.65 33.34 3.3 33 5 C32.84345839 8.55871257 32.70486389 12.11205639 32.65820312 15.67382812 C32.46072192 20.84048765 31.46380277 23.93539604 28 28 C22.94398461 31.80857055 15.00334597 30.65324766 9 30 C5.12871828 28.2495074 3.33848734 25.50773101 1 22 C0.68115234 19.63989258 0.68115234 19.63989258 0.5859375 16.89453125 C0.55032715 16.00870361 0.5147168 15.12287598 0.47802734 14.21020508 C0.44402832 13.0889624 0.4100293 11.96771973 0.375 10.8125 C0.25125 7.244375 0.1275 3.67625 0 0 Z " fill="#A6A4A3" transform="translate(63,125)"/>
<path d="M0 0 C0.928125 0.5259375 0.928125 0.5259375 1.875 1.0625 C2.57625 1.371875 3.2775 1.68125 4 2 C4.66 1.67 5.32 1.34 6 1 C7.8179454 0.9090785 9.63925945 0.88246533 11.45947266 0.88647461 C13.17102036 0.88658791 13.17102036 0.88658791 14.91714478 0.88670349 C16.15362762 0.89186478 17.39011047 0.89702606 18.6640625 0.90234375 C19.92640717 0.9037587 21.18875183 0.90517365 22.48934937 0.90663147 C25.84638299 0.91128922 29.203349 0.92027592 32.56036377 0.93133545 C35.98554906 0.9415623 39.41074134 0.94613182 42.8359375 0.95117188 C49.55731284 0.96221762 56.27864714 0.97949076 63 1 C63 4.96 63 8.92 63 13 C58.93243167 13.70400221 55.96979104 14.02920508 52 13 C51.34 13.66 50.68 14.32 50 15 C47.375 14.625 47.375 14.625 45 14 C45 13.34 45 12.68 45 12 C44.236875 12.20625 43.47375 12.4125 42.6875 12.625 C40 13 40 13 37 11 C36.34 11.66 35.68 12.32 35 13 C34.01 13 33.02 13 32 13 C32 12.34 32 11.68 32 11 C30.700625 11.61875 30.700625 11.61875 29.375 12.25 C26 13 26 13 22.9375 11.0625 C21.968125 10.381875 20.99875 9.70125 20 9 C17.23087207 8.96817348 17.23087207 8.96817348 15 10 C14.67 10.66 14.34 11.32 14 12 C6 12 6 12 4 11 C4 14.3 4 17.6 4 21 C2.68 20.34 1.36 19.68 0 19 C0.33 17.68 0.66 16.36 1 15 C0.01 15 -0.98 15 -2 15 C-3.63816004 9.75788788 -2.43312463 4.86624926 0 0 Z " fill="#CFB6A4" transform="translate(4,44)"/>
<path d="M0 0 C1.12174118 -0.00637985 2.24348236 -0.0127597 3.3992157 -0.01933289 C5.23344841 -0.02100212 5.23344841 -0.02100212 7.10473633 -0.02270508 C8.3542659 -0.02603348 9.60379547 -0.02936188 10.89118958 -0.03279114 C13.54354391 -0.03786727 16.1957959 -0.04063036 18.84814453 -0.04003906 C22.2364035 -0.03993784 25.62445101 -0.05354426 29.01266003 -0.07081127 C32.25167742 -0.08465797 35.49069336 -0.0840218 38.72973633 -0.08520508 C39.94243698 -0.09239059 41.15513763 -0.09957611 42.40458679 -0.10697937 C44.11083977 -0.10236443 44.11083977 -0.10236443 45.8515625 -0.09765625 C46.8478215 -0.09908127 47.84408051 -0.10050629 48.87052917 -0.10197449 C52.07556316 0.17328731 54.74531943 1.02101494 57.74926758 2.14526367 C57.74926758 3.79526367 57.74926758 5.44526367 57.74926758 7.14526367 C56.42926758 6.48526367 55.10926758 5.82526367 53.74926758 5.14526367 C53.66676758 5.76401367 53.58426758 6.38276367 53.49926758 7.02026367 C52.74926758 9.14526367 52.74926758 9.14526367 51.18676758 10.39526367 C47.55960046 11.51131509 44.54684035 11.39026837 40.74926758 11.14526367 C40.08926758 10.48526367 39.42926758 9.82526367 38.74926758 9.14526367 C37.75926758 9.61963867 36.76926758 10.09401367 35.74926758 10.58276367 C31.68297224 12.31011271 28.17657954 12.99768661 23.74926758 13.14526367 C21.74926758 11.70776367 21.74926758 11.70776367 20.74926758 10.14526367 C21.07926758 9.48526367 21.40926758 8.82526367 21.74926758 8.14526367 C20.88301758 8.48557617 20.88301758 8.48557617 19.99926758 8.83276367 C19.25676758 8.93588867 18.51426758 9.03901367 17.74926758 9.14526367 C17.16274414 8.63479492 16.5762207 8.12432617 15.97192383 7.59838867 C13.80283634 5.85639572 13.80283634 5.85639572 10.97973633 6.36791992 C5.01771026 8.0134085 -0.07365697 9.7331003 -5.25073242 13.14526367 C-5.44470718 11.16672109 -5.63074563 9.18739887 -5.81323242 7.20776367 C-5.91764648 6.10561523 -6.02206055 5.0034668 -6.12963867 3.86791992 C-6.16959961 2.96944336 -6.20956055 2.0709668 -6.25073242 1.14526367 C-4.54379105 -0.5616777 -2.33298791 0.00896206 0 0 Z " fill="#D3BBA9" transform="translate(98.250732421875,44.854736328125)"/>
<path d="M0 0 C9.9 0 19.8 0 30 0 C30 4.29 30 8.58 30 13 C28.34605883 14.65394117 26.39684587 14.12999683 24.125 14.1328125 C23.14015625 14.13410156 22.1553125 14.13539063 21.140625 14.13671875 C20.10421875 14.13285156 19.0678125 14.12898437 18 14.125 C16.44539063 14.13080078 16.44539063 14.13080078 14.859375 14.13671875 C13.87453125 14.13542969 12.8896875 14.13414062 11.875 14.1328125 C10.96492188 14.13168457 10.05484375 14.13055664 9.1171875 14.12939453 C7 14 7 14 6 13 C4.02 13 2.04 13 0 13 C0 8.71 0 4.42 0 0 Z " fill="#CACACA" transform="translate(65,130)"/>
<path d="M0 0 C2.29510823 0.01073507 4.58943678 0.00005107 6.88452148 -0.01269531 C8.36694506 -0.01137378 9.84936815 -0.00881153 11.33178711 -0.00488281 C12.34306419 -0.01095551 12.34306419 -0.01095551 13.37477112 -0.01715088 C18.30413612 0.03058155 22.52295333 0.93934235 27.23413086 2.26074219 C28.35131836 5.97949219 28.35131836 5.97949219 27.29663086 8.51074219 C26.77069336 9.37699219 26.77069336 9.37699219 26.23413086 10.26074219 C25.2325293 9.93589844 24.23092773 9.61105469 23.19897461 9.27636719 C17.17680246 7.77645544 11.04546908 7.96219961 4.88037109 8 C2.80463323 8.01070093 0.72976399 8.00007074 -1.34594727 7.98730469 C-8.42633441 7.98094401 -14.92416719 8.35143001 -21.76586914 10.26074219 C-23.53049597 7.17264523 -23.76586914 6.02762083 -23.76586914 2.26074219 C-15.86839397 -0.00338039 -8.14359102 -0.04535362 0 0 Z " fill="#C8A185" transform="translate(77.765869140625,15.7392578125)"/>
<path d="M0 0 C2.25187683 0.08532715 2.25187683 0.08532715 3.99015808 1.35876465 C7.91241226 6.72605984 7.49935492 14.44559265 7.62687683 20.83532715 C7.65289978 21.56832031 7.67892273 22.30131348 7.70573425 23.05651855 C7.71841534 26.88620637 7.38482167 28.88719314 5.22843933 32.10095215 C4.57617371 32.7557959 3.92390808 33.41063965 3.25187683 34.08532715 C2.26187683 33.59032715 2.26187683 33.59032715 1.25187683 33.08532715 C1.91187683 31.76532715 2.57187683 30.44532715 3.25187683 29.08532715 C2.59187683 29.08532715 1.93187683 29.08532715 1.25187683 29.08532715 C1.27250183 27.97157715 1.29312683 26.85782715 1.31437683 25.71032715 C1.51568401 22.25316794 1.51568401 22.25316794 0.25187683 20.08532715 C-0.00122623 18.44578179 -0.20349176 16.79809844 -0.37312317 15.14782715 C-0.51620911 13.83491699 -0.51620911 13.83491699 -0.66218567 12.4954834 C-0.74812317 10.08532715 -0.74812317 10.08532715 0.25187683 7.08532715 C1.24187683 7.41532715 2.23187683 7.74532715 3.25187683 8.08532715 C3.25187683 6.76532715 3.25187683 5.44532715 3.25187683 4.08532715 C2.59187683 3.75532715 1.93187683 3.42532715 1.25187683 3.08532715 C0.92187683 3.74532715 0.59187683 4.40532715 0.25187683 5.08532715 C0.25187683 4.42532715 0.25187683 3.76532715 0.25187683 3.08532715 C-28.95312317 2.59032715 -28.95312317 2.59032715 -58.74812317 2.08532715 C-58.74812317 1.75532715 -58.74812317 1.42532715 -58.74812317 1.08532715 C-50.86442677 0.94228304 -42.98071796 0.79993876 -35.09700012 0.65808105 C-32.4150301 0.60979017 -29.73306424 0.56127667 -27.05110168 0.51257324 C-23.19621007 0.44265294 -19.34130846 0.37330877 -15.48640442 0.30407715 C-14.28727921 0.28220337 -13.08815399 0.26032959 -11.85269165 0.23779297 C-10.7319072 0.21777222 -9.61112274 0.19775146 -8.45637512 0.17712402 C-6.98077873 0.15047668 -6.98077873 0.15047668 -5.47537231 0.12329102 C-3.64996242 0.09788094 -1.8247074 0.05665579 0 0 Z " fill="#AC8D78" transform="translate(151.7481231689453,42.9146728515625)"/>
<path d="M0 0 C1 4 1 4 1 4 Z M-14 3 C-13.4225 3.14953125 -12.845 3.2990625 -12.25 3.453125 C-9.6923269 4.07478166 -7.61935293 3.92568831 -5 3.75 C-2.32421875 3.69921875 -2.32421875 3.69921875 0 4 C1.38576923 5.62332967 2.72641268 7.28724465 4 9 C7.63024374 8.93399557 10.29639608 8.30154454 13.625 6.875 C16.5473967 5.79832753 18.03736236 6.16438425 21 7 C23.96533958 7.77182659 23.96533958 7.77182659 27 8 C27 8.66 27 9.32 27 10 C18.82206962 13.28786181 10.64675586 15.33376383 2 17 C1.67 20.63 1.34 24.26 1 28 C0.67 28 0.34 28 0 28 C-0.19569589 25.43788925 -0.38180612 22.87567609 -0.5625 20.3125 C-0.61857422 19.59126953 -0.67464844 18.87003906 -0.73242188 18.12695312 C-1.01010341 14.07280277 -0.80975794 11.0487897 0 7 C-14.85 6.505 -14.85 6.505 -30 6 C-25.99520151 3.99760075 -24.59591741 3.79452879 -20.3125 3.9375 C-18.5423653 3.99142463 -16.77083735 4.02048903 -15 4 C-14.67 3.67 -14.34 3.34 -14 3 Z " fill="#4D3429" transform="translate(96,118)"/>
<path d="M0 0 C9.57 0 19.14 0 29 0 C29 3.3 29 6.6 29 10 C27.35 10 25.7 10 24 10 C23.34 8.35 22.68 6.7 22 5 C17.05 5 12.1 5 7 5 C6.67 7.31 6.34 9.62 6 12 C4.02 12 2.04 12 0 12 C0 8.04 0 4.08 0 0 Z " fill="#F1F2F3" transform="translate(65,131)"/>
<path d="M0 0 C0.66 0 1.32 0 2 0 C1.29067507 2.40969251 0.57216605 4.81592291 -0.16015625 7.21875 C-0.66787523 8.90012634 -1.15970119 10.58657544 -1.62109375 12.28125 C-4.90771678 23.54967183 -12.32434563 33.92043344 -22.375 40.0625 C-23.24125 40.371875 -24.1075 40.68125 -25 41 C-25.66 40.67 -26.32 40.34 -27 40 C-27 39.01 -27 38.02 -27 37 C-25.27734375 35.45703125 -25.27734375 35.45703125 -22.9375 33.8125 C-15.09023956 28.08645588 -15.09023956 28.08645588 -10.5 19.88671875 C-10 18 -10 18 -7 16 C-6.26656572 12.93443402 -6.26656572 12.93443402 -6 10 C-5.34 10 -4.68 10 -4 10 C-4.33 8.35 -4.66 6.7 -5 5 C-4.0409375 4.5978125 -4.0409375 4.5978125 -3.0625 4.1875 C-0.66868314 3.11332248 -0.66868314 3.11332248 0 0 Z " fill="#664637" transform="translate(157,79)"/>
<path d="M0 0 C1.9375 0.75 1.9375 0.75 4 2 C4.625 4.0625 4.625 4.0625 5 6 C5.66 6.33 6.32 6.66 7 7 C7.625 9.5625 7.625 9.5625 8 12 C7.01 12.66 6.02 13.32 5 14 C5.66 14 6.32 14 7 14 C7.268125 14.598125 7.53625 15.19625 7.8125 15.8125 C8.85107111 17.99199326 8.85107111 17.99199326 10.375 19.3125 C12.36386508 21.37785989 13.51997372 23.73270055 14.8984375 26.2265625 C17.07143552 29.7249352 20.014142 32.28059011 23.3125 34.6875 C23.869375 35.120625 24.42625 35.55375 25 36 C25 36.66 25 37.32 25 38 C22.5 39.0625 22.5 39.0625 19 39 C14.84138746 35.51555234 10.87500962 31.51636501 10 26 C9.34 26 8.68 26 8 26 C7.51080078 24.82244141 7.51080078 24.82244141 7.01171875 23.62109375 C6.35623047 22.04521484 6.35623047 22.04521484 5.6875 20.4375 C5.23375 19.33921875 4.78 18.2409375 4.3125 17.109375 C3.32335992 14.76605505 2.2817017 12.4811151 1.1875 10.1875 C-0.14842332 6.60160057 -0.23242975 3.79635263 0 0 Z " fill="#614334" transform="translate(1,77)"/>
<path d="M0 0 C0.66 0 1.32 0 2 0 C2.66 3.3 3.32 6.6 4 10 C5.62010986 10.029729 5.62010986 10.029729 7.27294922 10.06005859 C11.27253913 10.13601623 15.27176052 10.22474816 19.27099609 10.31738281 C21.00334407 10.35571341 22.73577274 10.39055906 24.46826172 10.421875 C26.95569749 10.46743765 29.44257566 10.52544503 31.9296875 10.5859375 C32.70682098 10.59748871 33.48395447 10.60903992 34.28463745 10.62094116 C39.77225659 10.77225659 39.77225659 10.77225659 42 13 C13.29 13.495 13.29 13.495 -16 14 C-15.67 12.68 -15.34 11.36 -15 10 C-13.9275 10.020625 -12.855 10.04125 -11.75 10.0625 C-7.73376653 10.06269148 -7.73376653 10.06269148 -4 9 C-2.64897007 6.9279446 -2.64897007 6.9279446 -1.75 4.4375 C-1.24726562 3.19806641 -1.24726562 3.19806641 -0.734375 1.93359375 C-0.49203125 1.29550781 -0.2496875 0.65742188 0 0 Z " fill="#7E5643" transform="translate(107,31)"/>
<path d="M0 0 C0.66 0 1.32 0 2 0 C2 1.65 2 3.3 2 5 C2.66 5 3.32 5 4 5 C4.495 7.475 4.495 7.475 5 10 C9.29 10 13.58 10 18 10 C18 10.99 18 11.98 18 13 C-1.14 13 -20.28 13 -40 13 C-37.05807216 10.05807216 -33.87809027 10.64462603 -29.9296875 10.5859375 C-29.13345978 10.56657135 -28.33723206 10.5472052 -27.51687622 10.5272522 C-24.96969366 10.46739526 -22.42246605 10.42104721 -19.875 10.375 C-18.1497197 10.33682579 -16.42445857 10.29777439 -14.69921875 10.2578125 C-10.46630124 10.16168891 -6.23329451 10.07768092 -2 10 C-1.76990234 8.84951172 -1.76990234 8.84951172 -1.53515625 7.67578125 C-1.0234375 5.1171875 -0.51171875 2.55859375 0 0 Z " fill="#7C5543" transform="translate(51,31)"/>
<path d="M0 0 C0.62648438 0.433125 1.25296875 0.86625 1.8984375 1.3125 C2.71570313 1.869375 3.53296875 2.42625 4.375 3 C5.18710937 3.556875 5.99921875 4.11375 6.8359375 4.6875 C8.86318187 6.17285844 8.86318187 6.17285844 11 6 C12.625 7.5 12.625 7.5 14 9 C14.33 8.34 14.66 7.68 15 7 C15.33 7.99 15.66 8.98 16 10 C17.918125 10.185625 17.918125 10.185625 19.875 10.375 C23.75 10.75 23.75 10.75 26 13 C28.57061311 13.64767793 28.57061311 13.64767793 31 14 C31 14.66 31 15.32 31 16 C24.77707128 17.45643013 20.85167454 16.351523 15 14 C14.01128906 13.62359375 13.02257812 13.2471875 12.00390625 12.859375 C6.03873594 10.50607435 1.02118433 7.9941239 -4 4 C-2.68 3.34 -1.36 2.68 0 2 C0 1.34 0 0.68 0 0 Z " fill="#503629" transform="translate(26,113)"/>
<path d="M0 0 C11.22 0 22.44 0 34 0 C34 1.32 34 2.64 34 4 C22.78 4 11.56 4 0 4 C0 2.68 0 1.36 0 0 Z " fill="#EEEEED" transform="translate(63,125)"/>
<path d="M0 0 C2.29510823 0.01073507 4.58943678 0.00005107 6.88452148 -0.01269531 C8.36694506 -0.01137378 9.84936815 -0.00881153 11.33178711 -0.00488281 C12.34306419 -0.01095551 12.34306419 -0.01095551 13.37477112 -0.01715088 C18.30413612 0.03058155 22.52295333 0.93934235 27.23413086 2.26074219 C27.72913086 4.24074219 27.72913086 4.24074219 28.23413086 6.26074219 C27.69280518 6.04853027 27.15147949 5.83631836 26.59375 5.61767578 C19.3351825 3.08307933 12.34378774 2.79874753 4.72949219 2.86962891 C2.67112259 2.88574617 0.61470762 2.86968746 -1.44360352 2.85058594 C-8.82223952 2.84057679 -14.8961501 3.48939342 -21.76586914 6.26074219 C-22.42586914 6.26074219 -23.08586914 6.26074219 -23.76586914 6.26074219 C-23.76586914 4.94074219 -23.76586914 3.62074219 -23.76586914 2.26074219 C-15.86839397 -0.00338039 -8.14359102 -0.04535362 0 0 Z " fill="#956F57" transform="translate(77.765869140625,15.7392578125)"/>
<path d="M0 0 C0.33 0.33 0.66 0.66 1 1 C3.33944736 0.71269945 5.6739143 0.38063221 8 0 C8 0.99 8 1.98 8 3 C4.07925671 5.61382886 0.55488983 5.29386386 -4 5 C-4.66 4.34 -5.32 3.68 -6 3 C-6.99 3.474375 -7.98 3.94875 -9 4.4375 C-13.06629534 6.16484903 -16.57268804 6.85242293 -21 7 C-23 5.5625 -23 5.5625 -24 4 C-23.67 3.34 -23.34 2.68 -23 2 C-23.66 1.67 -24.32 1.34 -25 1 C-21.71303767 0.20046862 -20.28976808 -0.09658936 -17 1 C-17.66 1 -18.32 1 -19 1 C-19 1.66 -19 2.32 -19 3 C-18.38253906 2.69964844 -17.76507813 2.39929687 -17.12890625 2.08984375 C-11.09769608 -0.61823388 -6.48679098 -1.72882584 0 0 Z " fill="#C5AA94" transform="translate(143,51)"/>
<path d="M0 0 C2.10456861 -0.00970742 4.20815973 -0.04078414 6.3125 -0.07226562 C13.40173641 -0.12649264 19.30246087 0.07861148 25.7421875 3.24023438 C24.4221875 4.23023438 23.1021875 5.22023438 21.7421875 6.24023438 C21.7421875 5.58023437 21.7421875 4.92023437 21.7421875 4.24023438 C13.38789984 3.05476562 5.09458155 3.12682816 -3.3203125 3.17773438 C-4.77278491 3.18276023 -6.22525901 3.18732121 -7.67773438 3.19140625 C-11.20446265 3.20232396 -14.73112652 3.21952851 -18.2578125 3.24023438 C-18.5878125 4.23023438 -18.9178125 5.22023438 -19.2578125 6.24023438 C-20.2478125 5.25023437 -21.2378125 4.26023437 -22.2578125 3.24023438 C-15.80577105 -1.06112659 -7.50547693 0.02092605 0 0 Z " fill="#6B4E3D" transform="translate(78.2578125,22.759765625)"/>
<path d="M0 0 C1.10052814 2.20105628 1.19183037 3.55159535 1.31640625 5.9921875 C1.35830078 6.77980469 1.40019531 7.56742188 1.44335938 8.37890625 C1.48267578 9.20261719 1.52199219 10.02632812 1.5625 10.875 C1.60568359 11.69097656 1.64886719 12.50695313 1.69335938 13.34765625 C1.87633438 16.90840797 2 20.43233784 2 24 C1.34 24 0.68 24 0 24 C0 21.36 0 18.72 0 16 C-0.99 15.67 -1.98 15.34 -3 15 C-2.67 14.01 -2.34 13.02 -2 12 C-2.27769908 9.6593935 -2.60539977 7.32375692 -3 5 C-3.99 4.67 -4.98 4.34 -6 4 C-6.66 3.67 -7.32 3.34 -8 3 C-9.33602205 3.32238793 -10.66891752 3.65778908 -12 4 C-13.74886981 4.06624507 -15.50002748 4.08552595 -17.25 4.0625 C-18.14203125 4.05347656 -19.0340625 4.04445313 -19.953125 4.03515625 C-20.62859375 4.02355469 -21.3040625 4.01195312 -22 4 C-19.0363461 1.0363461 -15.55793397 1.27751275 -11.5625 0.875 C-10.78583984 0.78863281 -10.00917969 0.70226563 -9.20898438 0.61328125 C-6.12603886 0.27869802 -3.10300359 0 0 0 Z " fill="#96735C" transform="translate(92,50)"/>
<path d="M0 0 C0.66 1.32 1.32 2.64 2 4 C2.99 4 3.98 4 5 4 C5.99 5.485 5.99 5.485 7 7 C9.64 6.67 12.28 6.34 15 6 C15.33 6.66 15.66 7.32 16 8 C15.67 8.66 15.34 9.32 15 10 C7 10 7 10 5 9 C5 12.3 5 15.6 5 19 C3.68 18.34 2.36 17.68 1 17 C1.33 15.68 1.66 14.36 2 13 C1.01 13 0.02 13 -1 13 C-2.51403812 8.15507803 -1.36602172 4.7408989 0 0 Z " fill="#BCA089" transform="translate(3,46)"/>
<path d="M0 0 C0.66 0.66 1.32 1.32 2 2 C1.67 2.66 1.34 3.32 1 4 C1.66 4.33 2.32 4.66 3 5 C-18.12 5 -39.24 5 -61 5 C-61 4.67 -61 4.34 -61 4 C-59.9262915 3.97494385 -58.85258301 3.9498877 -57.74633789 3.92407227 C-53.7262168 3.82921717 -49.70623744 3.72919392 -45.6862793 3.62768555 C-43.95324034 3.58462968 -42.22016691 3.54293686 -40.48706055 3.50268555 C-37.98215388 3.44426417 -35.47741607 3.38078526 -32.97265625 3.31640625 C-31.82833885 3.29133751 -31.82833885 3.29133751 -30.66090393 3.26576233 C-26.04459529 3.14135376 -21.53033112 2.76716986 -16.95237732 2.1526947 C-15 2 -15 2 -11.9375 2.5625 C-7.82834168 3.1745023 -4.96517133 2.20971329 -1 1 C-0.67 0.67 -0.34 0.34 0 0 Z " fill="#2E1B14" transform="translate(149,154)"/>
<path d="M0 0 C1.70884005 1.62339805 3.37446717 3.29319053 5 5 C5 5.66 5 6.32 5 7 C5.66 6.67 6.32 6.34 7 6 C9.76765738 5.90045074 12.50948249 5.86022772 15.27734375 5.8671875 C16.53726891 5.86575241 16.53726891 5.86575241 17.82264709 5.86428833 C19.61410598 5.86360602 21.40556731 5.86546385 23.19702148 5.86962891 C25.86773686 5.87486327 28.53827508 5.86974605 31.20898438 5.86328125 C42.83590052 5.85923274 54.39651777 6.27182779 66 7 C66 7.33 66 7.66 66 8 C57.98542137 8.1390668 49.97134728 8.24565207 41.95586014 8.31087303 C38.23381161 8.34217758 34.51258885 8.38463014 30.79101562 8.45263672 C27.19885917 8.51786702 23.60749642 8.55371265 20.0147934 8.56926346 C18.6447576 8.58034382 17.27476494 8.6019828 15.90506744 8.63438034 C5.17685882 8.87802552 5.17685882 8.87802552 2.25036621 6.69464111 C0.74080016 4.53437739 0 2.64650744 0 0 Z " fill="#2E1B14" transform="translate(3,151)"/>
<path d="M0 0 C1.02158203 -0.00064453 2.04316406 -0.00128906 3.09570312 -0.00195312 C8.69229202 0.03825751 14.0889805 0.36172144 19.625 1.1875 C19.625 1.8475 19.625 2.5075 19.625 3.1875 C20.615 3.1875 21.605 3.1875 22.625 3.1875 C22.625 3.8475 22.625 4.5075 22.625 5.1875 C21.12259766 4.70023438 21.12259766 4.70023438 19.58984375 4.203125 C13.5676716 2.70321326 7.43633822 2.88895742 1.27124023 2.92675781 C-0.80449763 2.93745875 -2.87936687 2.92682855 -4.95507812 2.9140625 C-12.03546527 2.90770182 -18.53329805 3.27818783 -25.375 5.1875 C-25.705 4.1975 -26.035 3.2075 -26.375 2.1875 C-17.54655452 0.44667976 -8.97638826 -0.00548344 0 0 Z " fill="#A37D66" transform="translate(81.375,20.8125)"/>
<path d="M0 0 C0.66 0 1.32 0 2 0 C2 1.32 2 2.64 2 4 C2.66 4.33 3.32 4.66 4 5 C3.01 6.485 3.01 6.485 2 8 C-1.5 8.125 -1.5 8.125 -5 8 C-5.99 8.495 -5.99 8.495 -7 9 C-9.04498425 8.91219597 -11.08744948 8.75758462 -13.125 8.5625 C-14.76855469 8.40974609 -14.76855469 8.40974609 -16.4453125 8.25390625 C-17.28835937 8.17011719 -18.13140625 8.08632813 -19 8 C-19 6.68 -19 5.36 -19 4 C-12.4 4 -5.8 4 1 4 C0.67 2.68 0.34 1.36 0 0 Z " fill="#AB846B" transform="translate(89,41)"/>
<path d="M0 0 C3.22290201 0.0289309 5.44294723 0.35779815 8.1875 2.1875 C7.23875 2.47625 6.29 2.765 5.3125 3.0625 C2.13538422 3.95575109 2.13538422 3.95575109 0.1875 6.1875 C-1.4625 5.5275 -3.1125 4.8675 -4.8125 4.1875 C-5.4725 4.8475 -6.1325 5.5075 -6.8125 6.1875 C-7.8025 6.1875 -8.7925 6.1875 -9.8125 6.1875 C-9.8125 5.5275 -9.8125 4.8675 -9.8125 4.1875 C-11.7925 4.8475 -13.7725 5.5075 -15.8125 6.1875 C-17.1325 4.8675 -18.4525 3.5475 -19.8125 2.1875 C-16.50928176 1.18319612 -13.56609993 1.11399186 -10.125 1.1875 C-8.35456418 1.22501917 -6.58271439 1.23431559 -4.8125 1.1875 C-3.8125 0.1875 -3.8125 0.1875 0 0 Z " fill="#C5AB96" transform="translate(45.8125,50.8125)"/>
<path d="M0 0 C4.95 0 9.9 0 15 0 C15 1.98 15 3.96 15 6 C10.38 6 5.76 6 1 6 C0.67 4.02 0.34 2.04 0 0 Z " fill="#EEEFF0" transform="translate(72,137)"/>
<path d="M0 0 C0.66 0.33 1.32 0.66 2 1 C0.35 2.32 -1.3 3.64 -3 5 C-2.67 6.32 -2.34 7.64 -2 9 C-8.625 13 -8.625 13 -12 13 C-12 13.66 -12 14.32 -12 15 C-15.04386724 15.08226668 -17.07175348 14.97608217 -20 14 C-19.67 13.01 -19.34 12.02 -19 11 C-17.68 11 -16.36 11 -15 11 C-15 10.34 -15 9.68 -15 9 C-13.35 9 -11.7 9 -10 9 C-9.67 8.34 -9.34 7.68 -9 7 C-8.01 6.67 -7.02 6.34 -6 6 C-4.29319053 4.37446717 -2.62339805 2.70884005 -1 1 C-0.67 0.67 -0.34 0.34 0 0 Z " fill="#53382B" transform="translate(133,112)"/>
<path d="M0 0 C0.12375 0.804375 0.2475 1.60875 0.375 2.4375 C0.58125 3.283125 0.7875 4.12875 1 5 C1.66 5.33 2.32 5.66 3 6 C2.34 7.65 1.68 9.3 1 11 C0.34 11 -0.32 11 -1 11 C-0.67 11.99 -0.34 12.98 0 14 C-0.66 14 -1.32 14 -2 14 C-2 12.35 -2 10.7 -2 9 C-2.66 9 -3.32 9 -4 9 C-4 10.65 -4 12.3 -4 14 C-5.32 13.01 -6.64 12.02 -8 11 C-7.71915428 6.97454466 -7.21634296 5.25517374 -4.5625 2.125 C-2 0 -2 0 0 0 Z " fill="#3E2B21" transform="translate(55,22)"/>
<path d="M0 0 C0.66 0 1.32 0 2 0 C2.10854617 2.39706123 2.18753157 4.78915838 2.25 7.1875 C2.28351563 7.86103516 2.31703125 8.53457031 2.3515625 9.22851562 C2.42503051 12.99375127 2.11393243 14.83108854 -0.015625 17.98828125 C-0.67046875 18.65214844 -1.3253125 19.31601563 -2 20 C-2.66 19.67 -3.32 19.34 -4 19 C-3.34 17.68 -2.68 16.36 -2 15 C-2.66 15 -3.32 15 -4 15 C-3.979375 13.88625 -3.95875 12.7725 -3.9375 11.625 C-3.73619282 8.16784079 -3.73619282 8.16784079 -5 6 C-4.67 5.34 -4.34 4.68 -4 4 C-3.01 4 -2.02 4 -1 4 C-0.67 2.68 -0.34 1.36 0 0 Z " fill="#9F7F67" transform="translate(157,57)"/>
<path d="M0 0 C0.94875 0.04125 1.8975 0.0825 2.875 0.125 C2.56433119 2.99868648 2.31604521 4.6666589 0.28125 6.78125 C-3.03834435 8.63504944 -5.60131154 8.41732468 -9.375 8.3125 C-10.63828125 8.28542969 -11.9015625 8.25835937 -13.203125 8.23046875 C-14.16734375 8.19566406 -15.1315625 8.16085938 -16.125 8.125 C-14.805 7.465 -13.485 6.805 -12.125 6.125 C-13.115 5.465 -14.105 4.805 -15.125 4.125 C-14.07699219 3.94324219 -14.07699219 3.94324219 -13.0078125 3.7578125 C-11.64269531 3.50644531 -11.64269531 3.50644531 -10.25 3.25 C-8.89261719 3.00636719 -8.89261719 3.00636719 -7.5078125 2.7578125 C-4.07166117 1.84526084 -3.77402584 0.15096103 0 0 Z " fill="#BDBEBE" transform="translate(91.125,145.875)"/>
<path d="M0 0 C0.66 0 1.32 0 2 0 C2.66 3.3 3.32 6.6 4 10 C5.65 10 7.3 10 9 10 C9 10.66 9 11.32 9 12 C3.39 12 -2.22 12 -8 12 C-8 11.34 -8 10.68 -8 10 C-7.38640625 9.92910156 -6.7728125 9.85820313 -6.140625 9.78515625 C-3.81931552 9.1849879 -3.81931552 9.1849879 -2.734375 6.93359375 C-2.24710937 5.69802734 -2.24710937 5.69802734 -1.75 4.4375 C-1.41484375 3.61121094 -1.0796875 2.78492188 -0.734375 1.93359375 C-0.49203125 1.29550781 -0.2496875 0.65742188 0 0 Z " fill="#4E3527" transform="translate(107,31)"/>
<path d="M0 0 C0.33 0 0.66 0 1 0 C0.84152588 1.29993896 0.68305176 2.59987793 0.51977539 3.93920898 C0.00094634 8.62147112 -0.21327971 13.26522016 -0.31640625 17.97265625 C-0.33718735 18.78117538 -0.35796844 19.58969452 -0.37937927 20.42271423 C-0.44401616 22.96923514 -0.50335409 25.51584627 -0.5625 28.0625 C-0.6057672 29.80404525 -0.64938388 31.54558186 -0.69335938 33.28710938 C-0.79960748 37.52465052 -0.90110823 41.76228106 -1 46 C-1.99 46.495 -1.99 46.495 -3 47 C-3 37.43 -3 27.86 -3 18 C-3.66 18.99 -4.32 19.98 -5 21 C-6.35899829 17.31252693 -5.60931659 15.21219803 -4.1875 11.625 C-3.81496094 10.66207031 -3.44242188 9.69914062 -3.05859375 8.70703125 C-2.70925781 7.81371094 -2.35992187 6.92039062 -2 6 C-1.32318977 4.00340982 -0.65038501 2.00535378 0 0 Z " fill="#563A2C" transform="translate(158,81)"/>
<path d="M0 0 C1.9375 0.75 1.9375 0.75 4 2 C4.625 4.0625 4.625 4.0625 5 6 C5.66 6.33 6.32 6.66 7 7 C7.625 9.5625 7.625 9.5625 8 12 C7.01 12.66 6.02 13.32 5 14 C5.66 14 6.32 14 7 14 C8.52299523 16.93720508 9.80100302 19.9168649 11 23 C9.12890625 22.7265625 9.12890625 22.7265625 7 22 C5.83984375 20.3984375 5.83984375 20.3984375 4.9375 18.375 C4.61136719 17.65183594 4.28523437 16.92867187 3.94921875 16.18359375 C3.63597656 15.46300781 3.32273437 14.74242188 3 14 C2.4225 12.824375 1.845 11.64875 1.25 10.4375 C-0.09842945 6.72931903 -0.23962664 3.91390184 0 0 Z " fill="#725140" transform="translate(1,77)"/>
<path d="M0 0 C0 0.66 0 1.32 0 2 C-8.17793038 5.28786181 -16.35324414 7.33376383 -25 9 C-25.33 12.63 -25.66 16.26 -26 20 C-26.33 20 -26.66 20 -27 20 C-27.33 14.72 -27.66 9.44 -28 4 C-26.4325 4.061875 -24.865 4.12375 -23.25 4.1875 C-15.16422551 4.2084476 -7.73814559 0 0 0 Z " fill="#331F16" transform="translate(123,126)"/>
<path d="M0 0 C1.77131561 0.30975468 3.54203778 0.62290425 5.3125 0.9375 C6.79169922 1.19853516 6.79169922 1.19853516 8.30078125 1.46484375 C11 2 11 2 14 3 C15.89470816 3.0685495 17.7916834 3.08480372 19.6875 3.0625 C21.440625 3.041875 23.19375 3.02125 25 3 C25.33 9.6 25.66 16.2 26 23 C24 21 24 21 23.8046875 17.7421875 C23.82789062 16.46601563 23.85109375 15.18984375 23.875 13.875 C23.89304687 12.59367188 23.91109375 11.31234375 23.9296875 9.9921875 C23.95289062 9.00476563 23.97609375 8.01734375 24 7 C23.42894531 6.97421875 22.85789062 6.9484375 22.26953125 6.921875 C14.88641562 6.40540904 7.88279103 4.75104016 1 2 C0.67 1.34 0.34 0.68 0 0 Z " fill="#321D15" transform="translate(39,127)"/>
<path d="M0 0 C2.62901288 1.52206009 4.84365964 2.84365964 7 5 C7.3125 8.5 7.3125 8.5 7 12 C6.01 12.66 5.02 13.32 4 14 C4 12.35 4 10.7 4 9 C2.35 9.66 0.7 10.32 -1 11 C-2.0257259 6.58937864 -2.03684712 4.07369424 0 0 Z " fill="#3E2B21" transform="translate(105,22)"/>
<path d="M0 0 C1.67545143 0.02997826 1.67545143 0.02997826 3.38475037 0.06056213 C4.64598221 0.08065842 5.90721405 0.1007547 7.20666504 0.12145996 C8.59342151 0.14866045 9.98017582 0.17597123 11.3669281 0.2033844 C12.77796691 0.22767566 14.18901349 0.25151971 15.60006714 0.27493286 C19.32049886 0.33787286 23.04079374 0.40691114 26.76109314 0.47718811 C30.55477141 0.54778228 34.34854699 0.61265252 38.14231873 0.67799377 C45.59099402 0.80713381 53.03953409 0.94271162 60.48802185 1.08229065 C60.48802185 1.41229065 60.48802185 1.74229065 60.48802185 2.08229065 C59.38927986 2.09775185 59.38927986 2.09775185 58.26834106 2.11352539 C51.36732677 2.21147829 44.46639365 2.31398968 37.5655241 2.42162991 C34.01766734 2.47680856 30.46980226 2.53022042 26.92185974 2.5796051 C22.84356227 2.63644917 18.76541747 2.70095865 14.6872406 2.7658844 C13.41217148 2.78259689 12.13710236 2.79930939 10.82339478 2.81652832 C9.05189812 2.84644615 9.05189812 2.84644615 7.24461365 2.87696838 C6.20314682 2.89251266 5.16167999 2.90805695 4.08865356 2.92407227 C1.37390452 2.97697739 1.37390452 2.97697739 -1.51197815 4.08229065 C-1.51197815 3.42229065 -1.51197815 2.76229065 -1.51197815 2.08229065 C-2.17197815 1.75229065 -2.83197815 1.42229065 -3.51197815 1.08229065 C-2.51197815 0.08229065 -2.51197815 0.08229065 0 0 Z " fill="#9F7C6A" transform="translate(8.511978149414063,42.91770935058594)"/>
<path d="M0 0 C0.33 0 0.66 0 1 0 C1.33 3.63 1.66 7.26 2 11 C3.32 10.34 4.64 9.68 6 9 C6 11.31 6 13.62 6 16 C5.34 16 4.68 16 4 16 C4.33 17.65 4.66 19.3 5 21 C4.34 21 3.68 21 3 21 C2.67 21.66 2.34 22.32 2 23 C-0.13604308 19.79593538 -0.24208908 19.00399253 -0.1953125 15.33203125 C-0.18564453 13.99301758 -0.18564453 13.99301758 -0.17578125 12.62695312 C-0.15902344 11.69818359 -0.14226563 10.76941406 -0.125 9.8125 C-0.11597656 8.87212891 -0.10695312 7.93175781 -0.09765625 6.96289062 C-0.07409056 4.64167032 -0.04119116 2.32096356 0 0 Z " fill="#9F7F67" transform="translate(1,57)"/>
<path d="M0 0 C0.66 0.33 1.32 0.66 2 1 C-1.97887669 6.48965318 -6.52818242 10.31697469 -12.1875 13.9375 C-12.79352051 14.32671631 -13.39954102 14.71593262 -14.02392578 15.11694336 C-19.9279202 18.78107018 -19.9279202 18.78107018 -23 19 C-23.66 18.34 -24.32 17.68 -25 17 C-24.07380859 16.56300781 -24.07380859 16.56300781 -23.12890625 16.1171875 C-14.30287441 11.84522689 -6.69925815 7.2145857 0 0 Z " fill="#3E281E" transform="translate(146,108)"/>
<path d="M0 0 C1.29486328 0.06123047 2.58972656 0.12246094 3.92382812 0.18554688 C7.09613062 0.33772375 10.26679735 0.50541499 13.4375 0.6875 C13.4375 1.0175 13.4375 1.3475 13.4375 1.6875 C12.45354248 1.72508423 12.45354248 1.72508423 11.44970703 1.76342773 C8.48709817 1.8792326 5.52481969 2.00202886 2.5625 2.125 C1.52996094 2.16431641 0.49742188 2.20363281 -0.56640625 2.24414062 C-1.55253906 2.28603516 -2.53867188 2.32792969 -3.5546875 2.37109375 C-4.46589355 2.40775146 -5.37709961 2.44440918 -6.31591797 2.48217773 C-8.59733481 2.55327065 -8.59733481 2.55327065 -10.5625 3.6875 C-12.93373246 3.91779956 -15.30991943 4.09869942 -17.6875 4.25 C-18.96882813 4.33378906 -20.25015625 4.41757812 -21.5703125 4.50390625 C-22.55773438 4.56449219 -23.54515625 4.62507813 -24.5625 4.6875 C-23.29958266 2.16166533 -22.51899093 2.0153995 -19.91015625 1.04296875 C-13.33910626 -1.02586391 -6.79367267 -0.39267776 0 0 Z " fill="#D1AB8F" transform="translate(79.5625,18.3125)"/>
<path d="M0 0 C0.33 0 0.66 0 1 0 C1 3.3 1 6.6 1 10 C-0.65 10 -2.3 10 -4 10 C-4.66 8.35 -5.32 6.7 -6 5 C-10.95 4.67 -15.9 4.34 -21 4 C-21 3.67 -21 3.34 -21 3 C-10.605 2.505 -10.605 2.505 0 2 C0 1.34 0 0.68 0 0 Z " fill="#F9FAFB" transform="translate(93,131)"/>
<path d="M0 0 C0.33 1.32 0.66 2.64 1 4 C-0.0725 3.938125 -1.145 3.87625 -2.25 3.8125 C-5.9155222 3.64533888 -5.9155222 3.64533888 -8 5.5 C-10.9280281 7.69602107 -13.45050599 7.2047785 -17 7 C-17 6.67 -17 6.34 -17 6 C-14.36 5.34 -11.72 4.68 -9 4 C-13.29 4 -17.58 4 -22 4 C-22 3.01 -22 2.02 -22 1 C-14.74 0.67 -7.48 0.34 0 0 Z " fill="#999999" transform="translate(94,143)"/>
<path d="M0 0 C4.16660676 -0.05851976 8.33310637 -0.0937706 12.5 -0.125 C14.25957031 -0.15013672 14.25957031 -0.15013672 16.0546875 -0.17578125 C22.41081848 -0.21148985 27.92457188 0.09015007 34 2 C34.495 3.98 34.495 3.98 35 6 C33.59814453 5.58427734 33.59814453 5.58427734 32.16796875 5.16015625 C21.42604386 2.14245055 11.13110126 1.24198046 0 1 C0 0.67 0 0.34 0 0 Z " fill="#8B654E" transform="translate(71,16)"/>
<path d="M0 0 C0.66 0 1.32 0 2 0 C2.02690104 2.79173055 2.04679053 5.58320348 2.0625 8.375 C2.07087891 9.1690625 2.07925781 9.963125 2.08789062 10.78125 C2.11328125 16.7734375 2.11328125 16.7734375 1 19 C1.99 19.33 2.98 19.66 4 20 C2.35 21.32 0.7 22.64 -1 24 C-2.61863273 20.76273455 -2.1845318 17.24043124 -2.1875 13.6875 C-2.19974609 12.92759766 -2.21199219 12.16769531 -2.22460938 11.38476562 C-2.23570015 7.12960614 -1.96104913 3.88334235 0 0 Z " fill="#4B3528" transform="translate(68,86)"/>
<path d="M0 0 C6.27 0 12.54 0 19 0 C19 0.99 19 1.98 19 3 C12.73 3 6.46 3 0 3 C0 2.01 0 1.02 0 0 Z " fill="#583E2E" transform="translate(70,41)"/>
<path d="M0 0 C0.61875 0.350625 1.2375 0.70125 1.875 1.0625 C2.57625 1.371875 3.2775 1.68125 4 2 C4.66 1.67 5.32 1.34 6 1 C7.70702735 0.93003986 9.41668003 0.91559846 11.125 0.9375 C12.03507812 0.94652344 12.94515625 0.95554688 13.8828125 0.96484375 C14.58148438 0.97644531 15.28015625 0.98804688 16 1 C16 1.33 16 1.66 16 2 C13.69 2 11.38 2 9 2 C9.33 2.99 9.66 3.98 10 5 C8.02 5.99 6.04 6.98 4 8 C4 7.34 4 6.68 4 6 C2.68 6.33 1.36 6.66 0 7 C0 4.69 0 2.38 0 0 Z " fill="#D4BDAB" transform="translate(4,44)"/>
<path d="M0 0 C1 4 1 4 1 4 Z M-14 3 C-13.4225 3.14953125 -12.845 3.2990625 -12.25 3.453125 C-9.6923269 4.07478166 -7.61935293 3.92568831 -5 3.75 C-0.34893571 3.66768028 -0.34893571 3.66768028 2.625 6.5 C3.305625 7.7375 3.305625 7.7375 4 9 C3.34 9.33 2.68 9.66 2 10 C1.34 9.01 0.68 8.02 0 7 C-3.10213725 6.48779459 -3.10213725 6.48779459 -6.7578125 6.48828125 C-7.42086395 6.47033005 -8.08391541 6.45237885 -8.76705933 6.43388367 C-10.88630803 6.37967076 -13.00533025 6.34585229 -15.125 6.3125 C-16.56122952 6.27933633 -17.9974291 6.24484755 -19.43359375 6.20898438 C-22.95551129 6.12394036 -26.47750759 6.05718127 -30 6 C-26.53569319 4.1232112 -24.27343191 3.80529266 -20.3125 3.9375 C-18.5423653 3.99142463 -16.77083735 4.02048903 -15 4 C-14.67 3.67 -14.34 3.34 -14 3 Z " fill="#3C2318" transform="translate(96,118)"/>
<path d="M0 0 C1.48285242 0.95262034 2.96118201 1.91228405 4.4375 2.875 C5.67306641 3.67550781 5.67306641 3.67550781 6.93359375 4.4921875 C9 6 9 6 10 8 C4.09513742 9.56659619 4.09513742 9.56659619 0.9765625 7.953125 C-0.73737075 6.70790003 -2.37522444 5.35950608 -4 4 C-2.68 3.34 -1.36 2.68 0 2 C0 1.34 0 0.68 0 0 Z " fill="#583C2E" transform="translate(26,113)"/>
<path d="M0 0 C0.66 0 1.32 0 2 0 C1.79503906 0.66386719 1.59007812 1.32773438 1.37890625 2.01171875 C1.10949219 2.89472656 0.84007812 3.77773437 0.5625 4.6875 C0.29566406 5.55761719 0.02882812 6.42773438 -0.24609375 7.32421875 C-0.96344529 9.87025921 -1.517541 12.4003423 -2 15 C-3.65 15.33 -5.3 15.66 -7 16 C-6.67 14.02 -6.34 12.04 -6 10 C-5.34 10 -4.68 10 -4 10 C-4.33 8.35 -4.66 6.7 -5 5 C-4.360625 4.731875 -3.72125 4.46375 -3.0625 4.1875 C-0.66868314 3.11332248 -0.66868314 3.11332248 0 0 Z " fill="#6F4E3D" transform="translate(157,79)"/>
<path d="M0 0 C0.66 0 1.32 0 2 0 C3.25695906 7.22751457 3.91154358 14.83171158 2 22 C0.68 21.67 -0.64 21.34 -2 21 C-1.67 19.7625 -1.34 18.525 -1 17.25 C0.30171773 11.50227454 0.17855667 5.8626108 0 0 Z " fill="#442F23" transform="translate(90,86)"/>
<path d="M0 0 C3.40478259 1.54762845 6.20695088 3.56311012 9.1875 5.8125 C13.93325935 9.31441113 18.75742315 12.30751608 24 15 C21 16 21 16 18.65234375 15.1015625 C11.58580264 11.25817755 5.61394705 6.78443568 0 1 C0 0.67 0 0.34 0 0 Z " fill="#3B251C" transform="translate(14,111)"/>
<path d="M0 0 C0.99 0.66 1.98 1.32 3 2 C-0.90456127 5.53269829 -3.80177328 7.63855967 -9 9 C-9.33 8.01 -9.66 7.02 -10 6 C-8.89932004 5.18278283 -7.79430269 4.37140549 -6.6875 3.5625 C-6.07261719 3.11003906 -5.45773438 2.65757813 -4.82421875 2.19140625 C-3 1 -3 1 0 0 Z " fill="#5D3F31" transform="translate(139,111)"/>
<path d="M0 0 C1.21429688 -0.02578125 2.42859375 -0.0515625 3.6796875 -0.078125 C7.33905292 0.27038599 9.21319936 1.05784591 12.125 3.25 C12.125 3.58 12.125 3.91 12.125 4.25 C9.75 4.375 9.75 4.375 7.125 4.25 C6.465 3.59 5.805 2.93 5.125 2.25 C2.82494337 1.8925553 2.82494337 1.8925553 0.25 1.9375 C-1.04550781 1.91236328 -1.04550781 1.91236328 -2.3671875 1.88671875 C-5.32726253 2.31551466 -6.5802262 3.40062534 -8.875 5.25 C-11.625 5.4375 -11.625 5.4375 -13.875 5.25 C-9.44182282 0.51108646 -6.40401513 0.08123486 0 0 Z " fill="#6F503F" transform="translate(79.875,105.75)"/>
<path d="M0 0 C0.33 0 0.66 0 1 0 C1 1.65 1 3.3 1 5 C2.11375 4.6596875 2.11375 4.6596875 3.25 4.3125 C6 4 6 4 10 7 C7.03 8.65 4.06 10.3 1 12 C0.67 8.04 0.34 4.08 0 0 Z " fill="#C3A997" transform="translate(92,46)"/>
<path d="M0 0 C0.66 0 1.32 0 2 0 C2 1.65 2 3.3 2 5 C2.66 5.33 3.32 5.66 4 6 C3.34 6 2.68 6 2 6 C2 6.66 2 7.32 2 8 C1.01 8 0.02 8 -1 8 C-1 8.99 -1 9.98 -1 11 C0.65 11 2.3 11 4 11 C4 11.33 4 11.66 4 12 C0.37 12 -3.26 12 -7 12 C-7 11.34 -7 10.68 -7 10 C-5.35 10 -3.7 10 -2 10 C-1.855625 9.278125 -1.71125 8.55625 -1.5625 7.8125 C-1.04166667 5.20833333 -0.52083333 2.60416667 0 0 Z " fill="#4F3728" transform="translate(51,31)"/>
<path d="M0 0 C0.33 5.28 0.66 10.56 1 16 C-2 14 -2 14 -2.51171875 12.125 C-2.56972656 11.42375 -2.62773438 10.7225 -2.6875 10 C-2.75324219 9.29875 -2.81898437 8.5975 -2.88671875 7.875 C-3.02544445 5.57885054 -3 3.30139174 -3 1 C-1 0 -1 0 0 0 Z " fill="#6F5342" transform="translate(92,67)"/>
<path d="M0 0 C1.5631897 0.07069702 1.5631897 0.07069702 3.15795898 0.14282227 C4.28266602 0.19116211 5.40737305 0.23950195 6.56616211 0.28930664 C8.34216797 0.37341797 8.34216797 0.37341797 10.15405273 0.45922852 C11.34192383 0.51143555 12.52979492 0.56364258 13.75366211 0.61743164 C16.69986339 0.74758511 19.64576549 0.88256492 22.59155273 1.02172852 C22.59155273 1.35172852 22.59155273 1.68172852 22.59155273 2.02172852 C21.97111084 2.04678467 21.35066895 2.07184082 20.71142578 2.09765625 C17.90042877 2.21369572 15.08976033 2.33638611 12.27905273 2.45922852 C11.30258789 2.49854492 10.32612305 2.53786133 9.32006836 2.57836914 C8.38227539 2.62026367 7.44448242 2.6621582 6.47827148 2.70532227 C5.61419678 2.74197998 4.75012207 2.7786377 3.85986328 2.81640625 C1.42677013 2.94920206 1.42677013 2.94920206 -1.40844727 4.02172852 C-1.40844727 3.36172852 -1.40844727 2.70172852 -1.40844727 2.02172852 C-2.06844727 1.69172852 -2.72844727 1.36172852 -3.40844727 1.02172852 C-2.40844727 0.02172852 -2.40844727 0.02172852 0 0 Z " fill="#AE8F7C" transform="translate(8.408447265625,42.978271484375)"/>
<path d="M0 0 C0.99 0.33 1.98 0.66 3 1 C3 1.99 3 2.98 3 4 C4.65 4 6.3 4 8 4 C8 4.66 8 5.32 8 6 C4.37 5.67 0.74 5.34 -3 5 C-3 4.01 -3 3.02 -3 2 C-2.01 2 -1.02 2 0 2 C0 1.34 0 0.68 0 0 Z " fill="#3F2A1F" transform="translate(53,37)"/>
<path d="M0 0 C2.38857981 2.14171542 3.56944475 3.9158281 4.625 6.9375 C4.86476563 7.60652344 5.10453125 8.27554688 5.3515625 8.96484375 C5.98784039 10.96183642 6.51650833 12.96112475 7 15 C6.01 15 5.02 15 4 15 C1.27893306 12.27893306 1.39344428 10.15223689 0.875 6.375 C0.70742188 5.18648438 0.53984375 3.99796875 0.3671875 2.7734375 C0.24601563 1.85820313 0.12484375 0.94296875 0 0 Z " fill="#5C3E2F" transform="translate(1,84)"/>
<path d="M0 0 C0.99 0.495 0.99 0.495 2 1 C1.67 1.99 1.34 2.98 1 4 C1.66 4 2.32 4 3 4 C3.14285714 11.42857143 3.14285714 11.42857143 2 15 C1.34 15 0.68 15 0 15 C0 10.05 0 5.1 0 0 Z " fill="#82614D" transform="translate(68,51)"/>
<path d="M0 0 C0.66 0 1.32 0 2 0 C1.34 3.96 0.68 7.92 0 12 C-1.65 10.35 -3.3 8.7 -5 7 C-4.67 6.01 -4.34 5.02 -4 4 C-3.01 4 -2.02 4 -1 4 C-0.67 2.68 -0.34 1.36 0 0 Z " fill="#AC8C72" transform="translate(157,57)"/>
<path d="M0 0 C1.65 0 3.3 0 5 0 C4.8125 2.3125 4.8125 2.3125 4 5 C1.4375 6.8125 1.4375 6.8125 -1 8 C-0.67 5.36 -0.34 2.72 0 0 Z " fill="#B8B8B7" transform="translate(89,146)"/>
<path d="M0 0 C0.33 0.66 0.66 1.32 1 2 C1.66 2.33 2.32 2.66 3 3 C2.34 4.65 1.68 6.3 1 8 C0.34 8 -0.32 8 -1 8 C-0.67 8.99 -0.34 9.98 0 11 C-0.66 11 -1.32 11 -2 11 C-2 9.35 -2 7.7 -2 6 C-2.66 5.67 -3.32 5.34 -4 5 C-3.01 4.34 -2.02 3.68 -1 3 C-0.67 2.01 -0.34 1.02 0 0 Z " fill="#493428" transform="translate(55,25)"/>
<path d="M0 0 C0.33 0 0.66 0 1 0 C1.02686553 1.97909398 1.04633375 3.95828971 1.0625 5.9375 C1.07410156 7.03964844 1.08570312 8.14179688 1.09765625 9.27734375 C1 12 1 12 0 13 C-1.66617115 13.04063832 -3.33388095 13.042721 -5 13 C-5 12.01 -5 11.02 -5 10 C-3.35 10 -1.7 10 0 10 C0 6.7 0 3.4 0 0 Z " fill="#DFE0E1" transform="translate(94,131)"/>
<path d="M0 0 C3.3 0 6.6 0 10 0 C10 0.33 10 0.66 10 1 C7.69 1 5.38 1 3 1 C3.33 1.99 3.66 2.98 4 4 C2.35 4.66 0.7 5.32 -1 6 C-0.67 4.02 -0.34 2.04 0 0 Z " fill="#DAC2B1" transform="translate(10,45)"/>
<path d="M0 0 C0.66 0 1.32 0 2 0 C3.125 5.75 3.125 5.75 2 8 C0.68 7.67 -0.64 7.34 -2 7 C-1.125 1.125 -1.125 1.125 0 0 Z " fill="#A3907E" transform="translate(107,31)"/>
<path d="M0 0 C1.66666667 0 3.33333333 0 5 0 C5 2.64 5 5.28 5 8 C4.01 8.495 4.01 8.495 3 9 C2.67 6.69 2.34 4.38 2 2 C1.01 1.67 0.02 1.34 -1 1 C-0.67 0.67 -0.34 0.34 0 0 Z " fill="#82604C" transform="translate(87,53)"/>
<path d="M0 0 C0.33 0 0.66 0 1 0 C1.12375 1.093125 1.2475 2.18625 1.375 3.3125 C1.75464801 7.07381802 1.75464801 7.07381802 4 10 C-0.875 8.25 -0.875 8.25 -2 6 C-1.67 5.34 -1.34 4.68 -1 4 C-2.65 4 -4.3 4 -6 4 C-6 3.67 -6 3.34 -6 3 C-4.02 3 -2.04 3 0 3 C0 2.01 0 1.02 0 0 Z " fill="#BDBDBC" transform="translate(71,140)"/>
<path d="M0 0 C0.33 0.66 0.66 1.32 1 2 C1.66 2.33 2.32 2.66 3 3 C3 5.97 3 8.94 3 12 C2.34 12 1.68 12 1 12 C1 9.36 1 6.72 1 4 C0.01 3.67 -0.98 3.34 -2 3 C-1.34 2.01 -0.68 1.02 0 0 Z " fill="#8B6C57" transform="translate(91,62)"/>
<path d="M0 0 C1.99954746 -0.04254356 4.00041636 -0.04080783 6 0 C7 1 7 1 7.09765625 3.06640625 C7.08605469 3.89011719 7.07445312 4.71382812 7.0625 5.5625 C7.05347656 6.38878906 7.04445312 7.21507812 7.03515625 8.06640625 C7.01775391 9.02353516 7.01775391 9.02353516 7 10 C6.01 9.67 5.02 9.34 4 9 C4.33 6.69 4.66 4.38 5 2 C4.34 1.67 3.68 1.34 3 1 C2.67 1.66 2.34 2.32 2 3 C2 2.34 2 1.68 2 1 C1.34 0.67 0.68 0.34 0 0 Z " fill="#C2A896" transform="translate(150,45)"/>
<path d="M0 0 C0.33 0 0.66 0 1 0 C1 1.65 1 3.3 1 5 C-2.47325181 6.1577506 -5.36067448 6.06866652 -9 6 C-6.64031256 3.90250005 -5.45383006 3.03094296 -2.25 2.8125 C-1.13625 2.9053125 -1.13625 2.9053125 0 3 C0 2.01 0 1.02 0 0 Z " fill="#584339" transform="translate(62,125)"/>
<path d="M0 0 C0.99 0 1.98 0 3 0 C3 2.97 3 5.94 3 9 C1.68 8.34 0.36 7.68 -1 7 C-0.67 4.69 -0.34 2.38 0 0 Z " fill="#A98A71" transform="translate(5,56)"/>
<path d="M0 0 C0.66 0.66 1.32 1.32 2 2 C1.67 2.66 1.34 3.32 1 4 C1.99 4.33 2.98 4.66 4 5 C2.35 6.32 0.7 7.64 -1 9 C-2.60031344 5.79937313 -1.03173691 3.27728194 0 0 Z " fill="#432E22" transform="translate(68,101)"/>
<path d="M0 0 C0.33 0 0.66 0 1 0 C1 2.31 1 4.62 1 7 C-1.97 6.505 -1.97 6.505 -5 6 C-3.35830472 3.97945196 -1.69088222 1.97956942 0 0 Z " fill="#8A6A54" transform="translate(158,72)"/>
<path d="M0 0 C4.95 0.99 4.95 0.99 10 2 C10 2.33 10 2.66 10 3 C6.7 3.33 3.4 3.66 0 4 C0 2.68 0 1.36 0 0 Z " fill="#76503E" transform="translate(91,41)"/>
<path d="M0 0 C7.42857143 -0.14285714 7.42857143 -0.14285714 11 1 C10.67 1.99 10.34 2.98 10 4 C9.01 4 8.02 4 7 4 C7 3.34 7 2.68 7 2 C4.69 1.67 2.38 1.34 0 1 C0 0.67 0 0.34 0 0 Z " fill="#CFA98E" transform="translate(94,20)"/>
<path d="M0 0 C2 3.75 2 3.75 2 6 C2.66 6 3.32 6 4 6 C4 6.66 4 7.32 4 8 C3.01 8 2.02 8 1 8 C1 7.34 1 6.68 1 6 C0.01 5.67 -0.98 5.34 -2 5 C-1.34 3.35 -0.68 1.7 0 0 Z " fill="#1F130D" transform="translate(102,27)"/>
<path d="M0 0 C2.475 0.99 2.475 0.99 5 2 C4.67 2.99 4.34 3.98 4 5 C1.69 4.34 -0.62 3.68 -3 3 C-2.01 2.67 -1.02 2.34 0 2 C0 1.34 0 0.68 0 0 Z " fill="#9C7A63" transform="translate(101,17)"/>
<path d="M0 0 C2.64 0.33 5.28 0.66 8 1 C8 1.66 8 2.32 8 3 C6.02 3.33 4.04 3.66 2 4 C2 3.01 2 2.02 2 1 C1.34 0.67 0.68 0.34 0 0 Z " fill="#52392D" transform="translate(49,126)"/>
<path d="M0 0 C0.763125 0.20625 1.52625 0.4125 2.3125 0.625 C1.9825 1.615 1.6525 2.605 1.3125 3.625 C-0.9975 2.965 -3.3075 2.305 -5.6875 1.625 C-2.6875 -0.375 -2.6875 -0.375 0 0 Z " fill="#C5AA94" transform="translate(16.6875,52.375)"/>
<path d="M0 0 C0.66 0 1.32 0 2 0 C2 1.65 2 3.3 2 5 C2.66 5.33 3.32 5.66 4 6 C3.34 6 2.68 6 2 6 C2 6.66 2 7.32 2 8 C1.34 8 0.68 8 0 8 C-1.09658936 4.71023192 -0.79953138 3.28696233 0 0 Z " fill="#C0AE9B" transform="translate(51,31)"/>
<path d="M0 0 C-0.66 0.66 -1.32 1.32 -2 2 C-2.99 2 -3.98 2 -5 2 C-5.33 2.99 -5.66 3.98 -6 5 C-6.99 4.01 -7.98 3.02 -9 2 C-5.5647952 -0.29013653 -4.014669 -0.17842973 0 0 Z " fill="#745745" transform="translate(65,24)"/>
<path d="M0 0 C0.66 0.66 1.32 1.32 2 2 C1.67 2.66 1.34 3.32 1 4 C-2.3 4 -5.6 4 -9 4 C-9 3.67 -9 3.34 -9 3 C-8.43410156 2.86722656 -7.86820313 2.73445312 -7.28515625 2.59765625 C-6.18494141 2.33275391 -6.18494141 2.33275391 -5.0625 2.0625 C-4.33160156 1.88847656 -3.60070312 1.71445313 -2.84765625 1.53515625 C-1.00030102 1.16112431 -1.00030102 1.16112431 0 0 Z " fill="#382219" transform="translate(149,154)"/>
<path d="M0 0 C1 3 1 3 0.0625 5.1875 C-0.4634375 6.0846875 -0.4634375 6.0846875 -1 7 C-1.99 6.67 -2.98 6.34 -4 6 C-2.25 1.125 -2.25 1.125 0 0 Z " fill="#5C4032" transform="translate(152,104)"/>
<path d="M0 0 C1.134375 0.020625 2.26875 0.04125 3.4375 0.0625 C2.4475 0.5575 2.4475 0.5575 1.4375 1.0625 C1.1075 2.0525 0.7775 3.0425 0.4375 4.0625 C-0.5525 4.0625 -1.5425 4.0625 -2.5625 4.0625 C-2.5625 3.4025 -2.5625 2.7425 -2.5625 2.0625 C-3.2225 1.7325 -3.8825 1.4025 -4.5625 1.0625 C-3.5625 0.0625 -3.5625 0.0625 0 0 Z " fill="#C8AF9C" transform="translate(122.5625,50.9375)"/>
<path d="M0 0 C0.33 0 0.66 0 1 0 C1.9765625 6.0546875 1.9765625 6.0546875 2 8 C1.34 8.66 0.68 9.32 0 10 C-1.125 2.25 -1.125 2.25 0 0 Z " fill="#C5AB99" transform="translate(3,46)"/>
<path d="M0 0 C0.66 0.33 1.32 0.66 2 1 C2 1.99 2 2.98 2 4 C-0.31 4 -2.62 4 -5 4 C-5 3.01 -5 2.02 -5 1 C-2.525 1.495 -2.525 1.495 0 2 C0 1.34 0 0.68 0 0 Z " fill="#332219" transform="translate(109,37)"/>
<path d="M0 0 C0.99 0 1.98 0 3 0 C3 0.99 3 1.98 3 3 C2.34 3 1.68 3 1 3 C1 3.66 1 4.32 1 5 C1.66 5 2.32 5 3 5 C3 5.66 3 6.32 3 7 C2.01 7 1.02 7 0 7 C0 4.69 0 2.38 0 0 Z " fill="#6B5141" transform="translate(67,78)"/>
<path d="M0 0 C0.33 1.32 0.66 2.64 1 4 C2.32 3.67 3.64 3.34 5 3 C5 3.99 5 4.98 5 6 C4.34 6 3.68 6 3 6 C2.67 6.66 2.34 7.32 2 8 C-0.1519437 4.77208445 -0.20086443 3.71599191 0 0 Z " fill="#8F6E58" transform="translate(1,72)"/>
<path d="M0 0 C0.33 0.99 0.66 1.98 1 3 C1.66 3.33 2.32 3.66 3 4 C1.02 4.33 -0.96 4.66 -3 5 C-3 3.68 -3 2.36 -3 1 C-2.01 0.67 -1.02 0.34 0 0 Z " fill="#A48169" transform="translate(57,17)"/>
</svg>
