<?xml version="1.0" encoding="UTF-8"?>
<svg version="1.1" xmlns="http://www.w3.org/2000/svg" width="160" height="160">
<path d="M0 0 C1.54005389 0.64966979 3.08171043 1.29555443 4.625 1.9375 C11.83266514 5.21717832 18.83975269 8.97380455 23 16 C23.375 19.4375 23.375 19.4375 23 22 C24.0828125 22.2475 24.0828125 22.2475 25.1875 22.5 C30.00693666 25.07036622 32.30947628 29.92842885 34 35 C35.83013208 36.3421094 35.83013208 36.3421094 38 37.5 C41.88888889 39.66666667 41.88888889 39.66666667 43 43 C45.31869204 44.46293963 45.31869204 44.46293963 48.0625 45.6875 C48.98160156 46.12449219 49.90070313 46.56148437 50.84765625 47.01171875 C51.55792969 47.33785156 52.26820313 47.66398437 53 48 C53 49.32 53 50.64 53 52 C53.721875 52.268125 54.44375 52.53625 55.1875 52.8125 C62.51519176 55.9064143 62.51519176 55.9064143 63.85546875 58.9296875 C65.34095572 61.61674585 66.91852497 62.35809856 69.625 63.75 C70.44226563 64.17796875 71.25953125 64.6059375 72.1015625 65.046875 C72.72804687 65.36140625 73.35453125 65.6759375 74 66 C73.34 67.98 72.68 69.96 72 72 C73.32 72.33 74.64 72.66 76 73 C74.55802132 75.88395737 72.29355765 77.76525152 70 80 C70.99 81.485 70.99 81.485 72 83 C70.68 82.67 69.36 82.34 68 82 C68.59927826 78.64404172 69.84622436 76.62198774 72 74 C71.443125 74.495 70.88625 74.99 70.3125 75.5 C67.61837017 77.24754367 66.14624993 77.26218749 63 77 C63 79.31 63 81.62 63 84 C63.99 84 64.98 84 66 84 C66 93.57 66 103.14 66 113 C65.01 113 64.02 113 63 113 C63 113.66 63 114.32 63 115 C63.886875 115.226875 64.77375 115.45375 65.6875 115.6875 C69.53215129 117.2108524 71.48626354 118.72452522 74 122 C73.625 124.5 73.625 124.5 73 127 C73.495 127.763125 73.99 128.52625 74.5 129.3125 C76.20552771 132.36823715 76.36937607 134.42770226 75.76171875 137.87109375 C74.04302505 142.67462229 70.63195943 146.65999631 66.07421875 148.98046875 C59.34822274 150.98883229 52.85216472 149.96945463 46.63330078 146.96972656 C39.94385729 144.24232052 33.35758026 144.49635279 26.2421875 144.609375 C24.84401262 144.61685285 23.44582713 144.62253846 22.04763794 144.62652588 C18.4011037 144.64166128 14.75522595 144.68083465 11.10894775 144.7253418 C7.37480546 144.76655907 3.64055512 144.78459283 -0.09375 144.8046875 C-7.39612979 144.84734408 -14.69797226 144.91544385 -22 145 C-22 145.66 -22 146.32 -22 147 C-22.66 147 -23.32 147 -24 147 C-24 146.01 -24 145.02 -24 144 C-24.66 144 -25.32 144 -26 144 C-26 143.34 -26 142.68 -26 142 C-27.051875 142.04125 -28.10375 142.0825 -29.1875 142.125 C-32.79304157 142.00678552 -34.76818463 141.41775666 -38 140 C-37.87882812 138.98164063 -37.75765625 137.96328125 -37.6328125 136.9140625 C-37.2749083 133.90161205 -36.92352128 130.88845888 -36.57421875 127.875 C-36.22250604 124.8511067 -35.85160249 121.83107779 -35.45703125 118.8125 C-33.74367745 105.25216452 -33.3739534 91.65385942 -33 78 C-33.69359619 78.01740234 -34.38719238 78.03480469 -35.10180664 78.05273438 C-36.00793701 78.06626953 -36.91406738 78.07980469 -37.84765625 78.09375 C-38.74750244 78.11115234 -39.64734863 78.12855469 -40.57446289 78.14648438 C-43 78 -43 78 -45.4375 76.5 C-48.47799675 74.72019702 -49.96016114 74.88782778 -53.4375 75 C-60.76396646 75.19668366 -64.4288554 72.45691568 -70 68 C-71.010625 67.566875 -72.02125 67.13375 -73.0625 66.6875 C-76.79433085 64.54368228 -78.47901346 61.92254422 -80 58 C-80.6875 54.125 -80.6875 54.125 -81 51 C-81.33 50.67 -81.66 50.34 -82 50 C-82.44417306 44.44783674 -81.32632254 40.99728546 -79 36 C-78.55162347 34.52409392 -78.11461712 33.04469811 -77.6875 31.5625 C-75.01890871 23.51567087 -70.3892297 18.69832809 -63.05078125 14.6171875 C-60.76275788 13.06337146 -60.76275788 13.06337146 -59.6484375 10.0859375 C-57.59989112 6.25098101 -55.03414857 4.71627426 -51.3125 2.75 C-50.68182617 2.40573975 -50.05115234 2.06147949 -49.40136719 1.70678711 C-44.88222023 -0.69291946 -41.03956082 -2.24406588 -36 -3 C-35.29359375 -3.10699219 -34.5871875 -3.21398437 -33.859375 -3.32421875 C-22.12526541 -4.82012345 -10.72707049 -5.46686079 0 0 Z " fill="#7DAD44" transform="translate(84,10)"/>
<path d="M0 0 C1.54005389 0.64966979 3.08171043 1.29555443 4.625 1.9375 C11.83266514 5.21717832 18.83975269 8.97380455 23 16 C23.375 19.4375 23.375 19.4375 23 22 C24.0828125 22.2475 24.0828125 22.2475 25.1875 22.5 C30.00693666 25.07036622 32.30947628 29.92842885 34 35 C35.83013208 36.3421094 35.83013208 36.3421094 38 37.5 C41.88888889 39.66666667 41.88888889 39.66666667 43 43 C45.31869204 44.46293963 45.31869204 44.46293963 48.0625 45.6875 C48.98160156 46.12449219 49.90070313 46.56148437 50.84765625 47.01171875 C51.55792969 47.33785156 52.26820313 47.66398437 53 48 C53 49.32 53 50.64 53 52 C53.721875 52.268125 54.44375 52.53625 55.1875 52.8125 C62.51519176 55.9064143 62.51519176 55.9064143 63.85546875 58.9296875 C65.34095572 61.61674585 66.91852497 62.35809856 69.625 63.75 C70.44226563 64.17796875 71.25953125 64.6059375 72.1015625 65.046875 C72.72804687 65.36140625 73.35453125 65.6759375 74 66 C73.34 67.98 72.68 69.96 72 72 C73.32 72.33 74.64 72.66 76 73 C74.55802132 75.88395737 72.29355765 77.76525152 70 80 C70.99 81.485 70.99 81.485 72 83 C70.68 82.67 69.36 82.34 68 82 C68.59927826 78.64404172 69.84622436 76.62198774 72 74 C71.443125 74.495 70.88625 74.99 70.3125 75.5 C67.61837017 77.24754367 66.14624993 77.26218749 63 77 C63 79.31 63 81.62 63 84 C63.99 84 64.98 84 66 84 C66 93.57 66 103.14 66 113 C64.68 113.33 63.36 113.66 62 114 C62 100.14 62 86.28 62 72 C60.68 71.34 59.36 70.68 58 70 C56.38668563 68.76745039 54.80691229 67.49056789 53.25 66.1875 C52.28964844 65.39085938 51.32929688 64.59421875 50.33984375 63.7734375 C49.81116699 63.33354492 49.28249023 62.89365234 48.73779297 62.44042969 C45.44543366 59.71144403 42.12859981 57.0125425 38.8125 54.3125 C37.83361816 53.51138794 37.83361816 53.51138794 36.83496094 52.6940918 C35.54975847 51.64707544 34.25926694 50.60651541 32.96337891 49.57275391 C31.59703678 48.47825304 30.24611208 47.36434141 28.90771484 46.23583984 C25.09424255 43.01408582 25.09424255 43.01408582 20.41796875 41.77734375 C16.91304968 43.54962108 14.20909099 45.9333172 11.3125 48.5625 C10.05706746 49.67049334 8.8005538 50.77726288 7.54296875 51.8828125 C6.93372559 52.42196289 6.32448242 52.96111328 5.69677734 53.51660156 C2.80785488 56.04222643 -0.20168513 58.40694137 -3.21484375 60.78125 C-5.51707785 62.61528783 -7.79532955 64.47155487 -10.06640625 66.34375 C-10.78650879 66.93551025 -11.50661133 67.52727051 -12.24853516 68.13696289 C-13.68716213 69.32030819 -15.12312297 70.50690364 -16.55615234 71.69702148 C-17.21695801 72.23915283 -17.87776367 72.78128418 -18.55859375 73.33984375 C-19.14954834 73.82831787 -19.74050293 74.31679199 -20.34936523 74.82006836 C-22 76 -22 76 -25 77 C-24.67 99.11 -24.34 121.22 -24 144 C-24.66 144 -25.32 144 -26 144 C-26 143.34 -26 142.68 -26 142 C-27.051875 142.04125 -28.10375 142.0825 -29.1875 142.125 C-32.79304157 142.00678552 -34.76818463 141.41775666 -38 140 C-37.87882812 138.98164063 -37.75765625 137.96328125 -37.6328125 136.9140625 C-37.2749083 133.90161205 -36.92352128 130.88845888 -36.57421875 127.875 C-36.22250604 124.8511067 -35.85160249 121.83107779 -35.45703125 118.8125 C-33.74367745 105.25216452 -33.3739534 91.65385942 -33 78 C-33.69359619 78.01740234 -34.38719238 78.03480469 -35.10180664 78.05273438 C-36.00793701 78.06626953 -36.91406738 78.07980469 -37.84765625 78.09375 C-38.74750244 78.11115234 -39.64734863 78.12855469 -40.57446289 78.14648438 C-43 78 -43 78 -45.4375 76.5 C-48.47799675 74.72019702 -49.96016114 74.88782778 -53.4375 75 C-60.76396646 75.19668366 -64.4288554 72.45691568 -70 68 C-71.010625 67.566875 -72.02125 67.13375 -73.0625 66.6875 C-76.79433085 64.54368228 -78.47901346 61.92254422 -80 58 C-80.6875 54.125 -80.6875 54.125 -81 51 C-81.33 50.67 -81.66 50.34 -82 50 C-82.44417306 44.44783674 -81.32632254 40.99728546 -79 36 C-78.55162347 34.52409392 -78.11461712 33.04469811 -77.6875 31.5625 C-75.01890871 23.51567087 -70.3892297 18.69832809 -63.05078125 14.6171875 C-60.76275788 13.06337146 -60.76275788 13.06337146 -59.6484375 10.0859375 C-57.59989112 6.25098101 -55.03414857 4.71627426 -51.3125 2.75 C-50.68182617 2.40573975 -50.05115234 2.06147949 -49.40136719 1.70678711 C-44.88222023 -0.69291946 -41.03956082 -2.24406588 -36 -3 C-35.29359375 -3.10699219 -34.5871875 -3.21398437 -33.859375 -3.32421875 C-22.12526541 -4.82012345 -10.72707049 -5.46686079 0 0 Z " fill="#33541C" transform="translate(84,10)"/>
<path d="M0 0 C1.54005389 0.64966979 3.08171043 1.29555443 4.625 1.9375 C11.80206561 5.20325472 18.8600494 8.99031092 23 16 C23 17.32 23 18.64 23 20 C22.34 20.33 21.68 20.66 21 21 C21 22.32 21 23.64 21 25 C17.94152152 25.54372951 15.11227195 26 12 26 C11.525625 26.515625 11.05125 27.03125 10.5625 27.5625 C10.046875 28.036875 9.53125 28.51125 9 29 C6.8125 28.6875 6.8125 28.6875 5 28 C5 27.01 5 26.02 5 25 C4.34 24.67 3.68 24.34 3 24 C2.505 25.485 2.505 25.485 2 27 C1.01 27 0.02 27 -1 27 C-1 29.64 -1 32.28 -1 35 C-2.98 35 -4.96 35 -7 35 C-7.33 35.99 -7.66 36.98 -8 38 C-10.0625 38.6875 -10.0625 38.6875 -12 39 C-12 39.66 -12 40.32 -12 41 C-13.32 41 -14.64 41 -16 41 C-16 41.99 -16 42.98 -16 44 C-17.32 44 -18.64 44 -20 44 C-20.33 47.63 -20.66 51.26 -21 55 C-21.33 55 -21.66 55 -22 55 C-22 48.73 -22 42.46 -22 36 C-24.31 35.67 -26.62 35.34 -29 35 C-28.38125 35.268125 -27.7625 35.53625 -27.125 35.8125 C-25 37 -25 37 -23 40 C-22.8046875 42.48046875 -22.8046875 42.48046875 -22.875 45.1875 C-22.89304688 46.08855469 -22.91109375 46.98960938 -22.9296875 47.91796875 C-22.95289063 48.60503906 -22.97609375 49.29210938 -23 50 C-27.12722261 50.16426757 -28.86890758 49.78319327 -32 47 C-31.67 47.99 -31.34 48.98 -31 50 C-34 55 -34 55 -36 57 C-37.99958364 57.04080783 -40.00045254 57.04254356 -42 57 C-43.32 54.69 -44.64 52.38 -46 50 C-46.66 50 -47.32 50 -48 50 C-47.67 48.35 -47.34 46.7 -47 45 C-47.70125 45.66 -48.4025 46.32 -49.125 47 C-52.4580898 49.31867116 -54.02524236 49.61829563 -58 49 C-58.66 48.01 -59.32 47.02 -60 46 C-60.53625 46.309375 -61.0725 46.61875 -61.625 46.9375 C-64.3984957 48.17827439 -67.00042837 48.5909675 -70 49 C-72 46 -72 46 -72 43 C-75.42578949 46.17539556 -75.42578949 46.17539556 -78 50 C-79.32 50 -80.64 50 -82 50 C-82.34078925 44.43377565 -81.33656015 41.01927736 -79 36 C-78.55162347 34.52409392 -78.11461712 33.04469811 -77.6875 31.5625 C-75.01890871 23.51567087 -70.3892297 18.69832809 -63.05078125 14.6171875 C-60.76275788 13.06337146 -60.76275788 13.06337146 -59.6484375 10.0859375 C-57.59989112 6.25098101 -55.03414857 4.71627426 -51.3125 2.75 C-50.68182617 2.40573975 -50.05115234 2.06147949 -49.40136719 1.70678711 C-44.88222023 -0.69291946 -41.03956082 -2.24406588 -36 -3 C-35.29359375 -3.10699219 -34.5871875 -3.21398437 -33.859375 -3.32421875 C-22.12526541 -4.82012345 -10.72707049 -5.46686079 0 0 Z " fill="#71AD44" transform="translate(84,10)"/>
<path d="M0 0 C3.65948775 1.3421617 6.38191139 3.54887893 9.3515625 6 C9.96765381 6.4962085 10.58374512 6.99241699 11.21850586 7.50366211 C13.0626597 8.99277637 14.89613767 10.49405726 16.7265625 12 C17.68433594 12.78503906 18.64210938 13.57007812 19.62890625 14.37890625 C21.34969993 15.79142265 23.05777393 17.2196415 24.75 18.66625977 C27.68501653 21.08296076 27.68501653 21.08296076 31.07055664 22.91552734 C35.43497359 25.482788 39.77739248 28.09403824 41.41836548 33.11801147 C42.38098904 39.08596486 41.95882433 45.05691782 41.6015625 51.0625 C41.5448396 52.88719477 41.49400669 54.71208265 41.44921875 56.53710938 C41.05687971 69.66968279 41.05687971 69.66968279 39.7265625 71 C38.0765625 71 36.4265625 71 34.7265625 71 C34.7265625 62.42 34.7265625 53.84 34.7265625 45 C34.0665625 45 33.4065625 45 32.7265625 45 C32.7265625 44.34 32.7265625 43.68 32.7265625 43 C22.4965625 43 12.2665625 43 1.7265625 43 C2.0565625 53.89 2.3865625 64.78 2.7265625 76 C9.3265625 76 15.9265625 76 22.7265625 76 C22.7265625 77.32 22.7265625 78.64 22.7265625 80 C21.9221875 80.433125 21.1178125 80.86625 20.2890625 81.3125 C17.36515447 82.83325356 17.36515447 82.83325356 16.7890625 86.4375 C16.44782706 89.83563529 16.44782706 89.83563529 17.7265625 91.9375 C18.7265625 94 18.7265625 94 17.7265625 102 C11.7865625 102 5.8465625 102 -0.2734375 102 C-0.6034375 101.01 -0.9334375 100.02 -1.2734375 99 C-1.78047211 98.54638092 -2.28750671 98.09276184 -2.80990601 97.62539673 C-4.81825703 95.39492393 -4.6631285 93.96554383 -4.68994141 90.99365234 C-4.70650787 89.97604828 -4.72307434 88.95844421 -4.74014282 87.91000366 C-4.74339569 86.81306183 -4.74664856 85.71612 -4.75 84.5859375 C-4.76557953 83.46055573 -4.78115906 82.33517395 -4.79721069 81.1756897 C-4.84481824 77.57546686 -4.87252816 73.97543897 -4.8984375 70.375 C-4.93486664 66.7675566 -4.97542434 63.16022522 -5.02108765 59.55288696 C-5.04841889 57.30602548 -5.06972418 55.05908157 -5.08462524 52.81210327 C-5.09488739 51.80080353 -5.10514954 50.78950378 -5.11572266 49.74755859 C-5.12221832 48.8528183 -5.12871399 47.958078 -5.13540649 47.03622437 C-5.04885657 45.00535949 -5.04885657 45.00535949 -6.2734375 44 C-8.56332531 43.84111908 -10.85787191 43.74861927 -13.15234375 43.68359375 C-14.40861572 43.64548584 -15.6648877 43.60737793 -16.95922852 43.56811523 C-18.56854248 43.52501221 -20.17785645 43.48190918 -21.8359375 43.4375 C-26.9303125 43.293125 -32.0246875 43.14875 -37.2734375 43 C-37.2734375 60.16 -37.2734375 77.32 -37.2734375 95 C-41.2734375 97 -41.2734375 97 -44.2734375 97 C-43.9434375 97.99 -43.6134375 98.98 -43.2734375 100 C-43.7684375 100.99 -43.7684375 100.99 -44.2734375 102 C-44.9334375 102 -45.5934375 102 -46.2734375 102 C-46.59944817 93.5853445 -46.84734344 85.17337034 -46.99880791 76.75393963 C-47.07155242 72.8430331 -47.16996264 68.93647735 -47.32958984 65.02807617 C-48.41998224 37.62298786 -48.41998224 37.62298786 -43.32324219 31.63330078 C-40.50909738 29.14137739 -37.51119615 27.4639644 -34.09579468 25.93167114 C-30.9122975 24.30412387 -28.4050422 21.88747648 -25.7734375 19.5 C-20.59159969 15.04140139 -15.26563482 10.79063427 -9.85351562 6.61523438 C-6.56941044 4.08669761 -6.56941044 4.08669761 -3.6875 1.125 C-2.2734375 0 -2.2734375 0 0 0 Z " fill="#FCECC5" transform="translate(105.2734375,51)"/>
<path d="M0 0 C3.25627842 1.82834003 5.97674555 4.08334876 8.76171875 6.54296875 C9.92384991 7.54760336 11.08661938 8.55150004 12.25 9.5546875 C12.82443848 10.05274902 13.39887695 10.55081055 13.99072266 11.06396484 C17.15026133 13.78298641 20.39110826 16.40164752 23.625 19.03125 C25.91955932 20.89725349 28.20764876 22.77023744 30.4921875 24.6484375 C42.42590306 35.00755678 42.42590306 35.00755678 55.63671875 43.48046875 C54.19474007 46.36442612 51.9302764 48.24572027 49.63671875 50.48046875 C50.29671875 51.47046875 50.95671875 52.46046875 51.63671875 53.48046875 C49.65671875 52.98546875 49.65671875 52.98546875 47.63671875 52.48046875 C48.23599701 49.12451047 49.48294311 47.10245649 51.63671875 44.48046875 C51.07984375 44.97546875 50.52296875 45.47046875 49.94921875 45.98046875 C47.25508892 47.72801242 45.78296868 47.74265624 42.63671875 47.48046875 C42.63671875 49.79046875 42.63671875 52.10046875 42.63671875 54.48046875 C43.62671875 54.48046875 44.61671875 54.48046875 45.63671875 54.48046875 C45.63671875 64.05046875 45.63671875 73.62046875 45.63671875 83.48046875 C44.31671875 83.81046875 42.99671875 84.14046875 41.63671875 84.48046875 C41.63671875 70.62046875 41.63671875 56.76046875 41.63671875 42.48046875 C40.31671875 41.82046875 38.99671875 41.16046875 37.63671875 40.48046875 C36.02340438 39.24791914 34.44363104 37.97103664 32.88671875 36.66796875 C31.92636719 35.87132812 30.96601563 35.0746875 29.9765625 34.25390625 C29.44788574 33.81401367 28.91920898 33.37412109 28.37451172 32.92089844 C25.08215241 30.19191278 21.76531856 27.49301125 18.44921875 24.79296875 C17.79663086 24.25889404 17.14404297 23.72481934 16.47167969 23.17456055 C15.18647722 22.12754419 13.89598569 21.08698416 12.60009766 20.05322266 C11.23375553 18.95872179 9.88283083 17.84481016 8.54443359 16.71630859 C4.7309613 13.49455457 4.7309613 13.49455457 0.0546875 12.2578125 C-3.45023157 14.03008983 -6.15419026 16.41378595 -9.05078125 19.04296875 C-10.30621379 20.15096209 -11.56272745 21.25773163 -12.8203125 22.36328125 C-13.42955566 22.90243164 -14.03879883 23.44158203 -14.66650391 23.99707031 C-17.55542637 26.52269518 -20.56496638 28.88741012 -23.578125 31.26171875 C-25.8803591 33.09575658 -28.1586108 34.95202362 -30.4296875 36.82421875 C-31.14979004 37.415979 -31.86989258 38.00773926 -32.61181641 38.61743164 C-34.05044338 39.80077694 -35.48640422 40.98737239 -36.91943359 42.17749023 C-37.91064209 42.99068726 -37.91064209 42.99068726 -38.921875 43.8203125 C-39.51282959 44.30878662 -40.10378418 44.79726074 -40.71264648 45.30053711 C-42.36328125 46.48046875 -42.36328125 46.48046875 -45.36328125 47.48046875 C-45.36328125 46.16046875 -45.36328125 44.84046875 -45.36328125 43.48046875 C-46.02328125 43.48046875 -46.68328125 43.48046875 -47.36328125 43.48046875 C-47.36328125 44.14046875 -47.36328125 44.80046875 -47.36328125 45.48046875 C-48.68328125 45.48046875 -50.00328125 45.48046875 -51.36328125 45.48046875 C-51.69328125 43.83046875 -52.02328125 42.18046875 -52.36328125 40.48046875 C-45.82169025 34.86252432 -39.24106721 29.32724974 -32.42578125 24.04296875 C-27.5163604 20.23382889 -22.75011421 16.29580509 -18.05078125 12.23046875 C-16.88952399 11.23283882 -15.72807197 10.23543553 -14.56640625 9.23828125 C-12.58541343 7.53744067 -10.61897048 5.82435666 -8.66015625 4.09765625 C-7.8815625 3.44023438 -7.10296875 2.7828125 -6.30078125 2.10546875 C-5.32431641 1.25855469 -5.32431641 1.25855469 -4.328125 0.39453125 C-2.36328125 -0.51953125 -2.36328125 -0.51953125 0 0 Z " fill="#E65545" transform="translate(104.36328125,39.51953125)"/>
<path d="M0 0 C7.92 0 15.84 0 24 0 C24 16.5 24 33 24 50 C16.08 50 8.16 50 0 50 C0 33.5 0 17 0 0 Z " fill="#814731" transform="translate(71,97)"/>
<path d="M0 0 C5.445 1.485 5.445 1.485 11 3 C11.05393279 6.58353441 11.09364225 10.16625756 11.125 13.75 C11.14175781 14.76578125 11.15851562 15.7815625 11.17578125 16.828125 C11.18544922 18.29765625 11.18544922 18.29765625 11.1953125 19.796875 C11.21102295 21.14797363 11.21102295 21.14797363 11.22705078 22.52636719 C10.98000078 25.217884 10.5087621 26.764028 9 29 C7.20707872 29.92847709 5.41415092 30.85694162 3.62109375 31.78515625 C0.75072862 33.93620096 0.59240136 36.57723657 0 40 C-2.475 40.495 -2.475 40.495 -5 41 C-6.15454162 39.75803878 -7.29832562 38.50607155 -8.4375 37.25 C-9.07558594 36.55390625 -9.71367188 35.8578125 -10.37109375 35.140625 C-11.99081325 33.01207275 -12.58267256 31.60976595 -13 29 C-13.66 29 -14.32 29 -15 29 C-14.938125 29.763125 -14.87625 30.52625 -14.8125 31.3125 C-15.03881649 34.55636969 -15.74942072 34.83944389 -18 37 C-18.72197162 39.60611077 -18.72197162 39.60611077 -19 42 C-26.96724244 42.47803455 -30.97266777 39.82186578 -37 35 C-38.010625 34.566875 -39.02125 34.13375 -40.0625 33.6875 C-43.80646036 31.53671426 -45.51356764 28.95344312 -47 25 C-47.56186455 22.29927294 -47.80606711 19.76354371 -48 17 C-47.01 17 -46.02 17 -45 17 C-44.7525 16.21625 -44.505 15.4325 -44.25 14.625 C-42.84610901 11.67682892 -41.99324263 11.0975223 -39 10 C-38.34 11.65 -37.68 13.3 -37 15 C-33.28111761 14.49287967 -30.26545761 13.88391785 -27 12 C-26.01 13.485 -26.01 13.485 -25 15 C-20.90605837 15.6513089 -19.22579376 15.13380371 -15.625 13 C-14.75875 12.34 -13.8925 11.68 -13 11 C-13.66 12.98 -14.32 14.96 -15 17 C-14.01 16.67 -13.02 16.34 -12 16 C-11.01 18.31 -10.02 20.62 -9 23 C-6.16926564 23.50169415 -6.16926564 23.50169415 -3 23 C-0.41038912 20.40726463 -0.41038912 20.40726463 1 17 C0.87754191 14.20438833 0.87754191 14.20438833 0 12 C0.721875 12.639375 1.44375 13.27875 2.1875 13.9375 C4.98191184 15.98673535 6.61663274 16.61332946 10 17 C9.85904936 15.3745692 9.71207913 13.74965949 9.5625 12.125 C9.48128906 11.22007813 9.40007813 10.31515625 9.31640625 9.3828125 C9.13010715 6.98889139 9.13010715 6.98889139 8 5 C6.845 4.505 5.69 4.01 4.5 3.5 C1 2 1 2 0 0 Z " fill="#549039" transform="translate(51,43)"/>
<path d="M0 0 C10.23 0 20.46 0 31 0 C31 0.66 31 1.32 31 2 C31.66 2 32.32 2 33 2 C33 10.58 33 19.16 33 28 C34.98 27.67 36.96 27.34 39 27 C39 27.66 39 28.32 39 29 C35.7 29.33 32.4 29.66 29 30 C29 30.66 29 31.32 29 32 C23.21354356 33.25406138 17.51131884 33.11186913 11.625 33.0625 C10.60277344 33.05798828 9.58054687 33.05347656 8.52734375 33.04882812 C6.01816806 33.037103 3.5091151 33.02069176 1 33 C-0.48679725 30.02640551 -0.11112605 27.33700821 -0.09765625 24.0234375 C-0.09515869 22.76966309 -0.09266113 21.51588867 -0.09008789 20.22412109 C-0.08098389 18.62391113 -0.07187988 17.02370117 -0.0625 15.375 C-0.041875 10.30125 -0.02125 5.2275 0 0 Z " fill="#9B836A" transform="translate(107,94)"/>
<path d="M0 0 C2.390625 2.0234375 2.390625 2.0234375 4 4 C3.67 4.33 3.34 4.66 3 5 C0.97591245 4.90997602 -1.04544287 4.75358962 -3.0625 4.5625 C-4.71958984 4.40974609 -4.71958984 4.40974609 -6.41015625 4.25390625 C-7.26480469 4.17011719 -8.11945312 4.08632812 -9 4 C-9 4.33 -9 4.66 -9 5 C-8.13375 4.938125 -7.2675 4.87625 -6.375 4.8125 C-2.52194779 5.02655846 -0.36016482 6.17382346 3 8 C5.23525035 8.68636625 5.23525035 8.68636625 7 9 C5.68 8.34 4.36 7.68 3 7 C3 6.67 3 6.34 3 6 C9.75 4.875 9.75 4.875 12 6 C13.49756871 6.09499503 14.99942932 6.12987198 16.5 6.125 C17.69109375 6.12886719 17.69109375 6.12886719 18.90625 6.1328125 C21.05918534 6.13277996 21.05918534 6.13277996 23 5 C24.32 6.32 25.64 7.64 27 9 C26.67 9.66 26.34 10.32 26 11 C25.34 11 24.68 11 24 11 C23.67 11.66 23.34 12.32 23 13 C20.69 12.67 18.38 12.34 16 12 C19.38168431 15.68006822 22.42521756 17.9785845 27 20 C26.67 21.32 26.34 22.64 26 24 C22.04632793 25.09824224 20.55172015 24.88032243 17 23 C15.88625 22.938125 14.7725 22.87625 13.625 22.8125 C8.6616557 21.70002628 6.86500509 19.01940274 4 15 C3.67 15.33 3.34 15.66 3 16 C1.00049364 16.04443347 -1.00038436 16.03920815 -3 16 C-6.93116919 16 -8.8114049 16.56258349 -12.375 18 C-16.42190063 19.5385807 -19.61289463 20.47428166 -24 20 C-24 18.35 -24 16.7 -24 15 C-24.99 15 -25.98 15 -27 15 C-26.76796875 15.57492188 -26.5359375 16.14984375 -26.296875 16.7421875 C-26 19 -26 19 -27.328125 21.0703125 C-27.96234375 21.74835937 -28.5965625 22.42640625 -29.25 23.125 C-29.87390625 23.80820312 -30.4978125 24.49140625 -31.140625 25.1953125 C-33.85398495 27.82886775 -35.34880936 28.97446311 -39.1875 29.125 C-40.5796875 29.063125 -40.5796875 29.063125 -42 29 C-42.33 27.68 -42.66 26.36 -43 25 C-43.433125 25.495 -43.86625 25.99 -44.3125 26.5 C-46 28 -46 28 -49 28 C-48.8046875 25.71484375 -48.8046875 25.71484375 -48 23 C-45.8203125 21.19140625 -45.8203125 21.19140625 -43.125 19.5625 C-39.83775733 17.57386194 -38.26386477 16.55639452 -36.59765625 13.04296875 C-34.58920297 9.2175773 -32.00931163 7.70189316 -28.3125 5.75 C-27.67965088 5.40646484 -27.04680176 5.06292969 -26.39477539 4.70898438 C-18.0658485 0.30565077 -9.44919951 -1.47487506 0 0 Z " fill="#83BE53" transform="translate(61,7)"/>
<path d="M0 0 C7.610625 -0.061875 7.610625 -0.061875 15.375 -0.125 C16.97520996 -0.14320801 18.57541992 -0.16141602 20.22412109 -0.18017578 C22.10478271 -0.18766846 22.10478271 -0.18766846 24.0234375 -0.1953125 C25.31169434 -0.20578613 26.59995117 -0.21625977 27.92724609 -0.22705078 C31 0 31 0 33 2 C33.2784729 4.25259399 33.2784729 4.25259399 33.31884766 7.09228516 C33.33871735 8.15323395 33.35858704 9.21418274 33.37905884 10.30728149 C33.39061005 11.45626923 33.40216125 12.60525696 33.4140625 13.7890625 C33.43342865 14.96262299 33.4527948 16.13618347 33.4727478 17.3453064 C33.53267664 21.10512961 33.57898246 24.86498323 33.625 28.625 C33.6631675 31.16928442 33.70221849 33.71355575 33.7421875 36.2578125 C33.83838905 42.50509241 33.92339738 48.75245072 34 55 C34.99 55.33 35.98 55.66 37 56 C36.67 56.99 36.34 57.98 36 59 C22.14 58.67 8.28 58.34 -6 58 C-6 59.65 -6 61.3 -6 63 C-6.66 63 -7.32 63 -8 63 C-7.93993922 61.54052295 -7.8511311 60.08220728 -7.75 58.625 C-7.68039063 57.40683594 -7.68039063 57.40683594 -7.609375 56.1640625 C-7 54 -7 54 -5.140625 52.7109375 C-3 52 -3 52 0 52 C0 34.84 0 17.68 0 0 Z M3 3 C3 19.5 3 36 3 53 C10.92 53 18.84 53 27 53 C27 36.5 27 20 27 3 C19.08 3 11.16 3 3 3 Z " fill="#B69676" transform="translate(68,94)"/>
<path d="M0 0 C0.33 0 0.66 0 1 0 C1.33 10.89 1.66 21.78 2 33 C8.6 33 15.2 33 22 33 C22 34.32 22 35.64 22 37 C21.195625 37.433125 20.39125 37.86625 19.5625 38.3125 C16.63859197 39.83325356 16.63859197 39.83325356 16.0625 43.4375 C15.72126456 46.83563529 15.72126456 46.83563529 17 48.9375 C18 51 18 51 17 59 C11.06 59 5.12 59 -1 59 C-1.495 57.515 -1.495 57.515 -2 56 C-2.50860062 55.54670822 -3.01720123 55.09341644 -3.54121399 54.62638855 C-5.55425516 52.38206547 -5.36267444 50.96104955 -5.34057617 47.9777832 C-5.34034958 46.95695145 -5.34012299 45.93611969 -5.33988953 44.88435364 C-5.32440567 43.78427475 -5.30892181 42.68419586 -5.29296875 41.55078125 C-5.28872391 40.4230278 -5.28447906 39.29527435 -5.28010559 38.13334656 C-5.26329311 34.52615633 -5.22563528 30.91952178 -5.1875 27.3125 C-5.17245653 24.86914868 -5.15876754 22.42578863 -5.14648438 19.98242188 C-5.11338116 13.98809118 -5.06315593 7.99408529 -5 2 C-3.35 2 -1.7 2 0 2 C0 1.34 0 0.68 0 0 Z " fill="#EAD7B4" transform="translate(106,94)"/>
<path d="M0 0 C0.66 0.33 1.32 0.66 2 1 C1.67 1.99 1.34 2.98 1 4 C1.99 4 2.98 4 4 4 C4 4.66 4 5.32 4 6 C1.03 5.505 1.03 5.505 -2 5 C-2.33 6.65 -2.66 8.3 -3 10 C-1.68 9.67 -0.36 9.34 1 9 C0.979375 10.134375 0.95875 11.26875 0.9375 12.4375 C0.58422523 15.81575674 0.58422523 15.81575674 2 17 C3.91424457 16.8981629 3.91424457 16.8981629 6.0625 16.5625 C7.361875 16.376875 8.66125 16.19125 10 16 C10 16.66 10 17.32 10 18 C9.40703125 18.25523438 8.8140625 18.51046875 8.203125 18.7734375 C5.78775462 20.11816498 4.48788294 21.49214367 2.75 23.625 C2.22921875 24.25664063 1.7084375 24.88828125 1.171875 25.5390625 C0.78515625 26.02117188 0.3984375 26.50328125 0 27 C0.33 27.66 0.66 28.32 1 29 C-1.875 29.1875 -1.875 29.1875 -5 29 C-5.66 28.01 -6.32 27.02 -7 26 C-7.804375 26.4640625 -7.804375 26.4640625 -8.625 26.9375 C-11.3984957 28.17827439 -14.00042837 28.5909675 -17 29 C-19 26 -19 26 -19 23 C-22.42578949 26.17539556 -22.42578949 26.17539556 -25 30 C-26.32 30 -27.64 30 -29 30 C-29.34078925 24.43377565 -28.33656015 21.01927736 -26 16 C-25.50700377 14.46269992 -25.02827681 12.92076479 -24.5625 11.375 C-23.34525345 7.58729133 -21.74903388 4.93862242 -19 2 C-19 2.99 -19 3.98 -19 5 C-18.236875 4.505 -17.47375 4.01 -16.6875 3.5 C-14 2 -14 2 -11 2 C-11.33 3.32 -11.66 4.64 -12 6 C-5.10740765 4.65226477 -5.10740765 4.65226477 0 0 Z " fill="#63A240" transform="translate(31,30)"/>
<path d="M0 0 C0.99 0.33 1.98 0.66 3 1 C3.495 3.97 3.495 3.97 4 7 C6.31 6.34 8.62 5.68 11 5 C11.495 5.495 11.495 5.495 12 6 C16.05953998 5.819576 17.56501211 5.46932904 20.375 2.4375 C20.91125 1.633125 21.4475 0.82875 22 0 C25 1 25 1 27 4 C30.58357241 4.25015873 30.58357241 4.25015873 34 4 C34.33 2.68 34.66 1.36 35 0 C36.27723405 4.34259578 35.88815492 6.8953154 34 11 C31.4344248 15.0208031 28.8694125 18.11692006 24.1875 19.5 C17.84889619 20.58249401 12.39598841 19.74941365 6.63330078 16.96972656 C-0.05614271 14.24232052 -6.64241974 14.49635279 -13.7578125 14.609375 C-15.15598738 14.61685285 -16.55417287 14.62253846 -17.95236206 14.62652588 C-21.5988963 14.64166128 -25.24477405 14.68083465 -28.89105225 14.7253418 C-32.62519454 14.76655907 -36.35944488 14.78459283 -40.09375 14.8046875 C-47.39612979 14.84734408 -54.69797226 14.91544385 -62 15 C-62 14.01 -62 13.02 -62 12 C-56.3664582 11.97484508 -50.73295073 11.95693054 -45.09936523 11.94506836 C-43.19213286 11.94011119 -41.28490414 11.93334346 -39.37768555 11.92456055 C-26.54767384 11.8670572 -13.80467396 12.17870086 -1 13 C-0.97287934 11.56260487 -0.95354933 10.12506137 -0.9375 8.6875 C-0.92589844 7.88699219 -0.91429687 7.08648437 -0.90234375 6.26171875 C-0.90342145 3.83138666 -0.90342145 3.83138666 -2 1 C-1.34 0.67 -0.68 0.34 0 0 Z " fill="#5B8935" transform="translate(124,140)"/>
<path d="M0 0 C1.65 0 3.3 0 5 0 C5 0.66 5 1.32 5 2 C6.0828125 2.2475 6.0828125 2.2475 7.1875 2.5 C12.00693666 5.07036622 14.30947628 9.92842885 16 15 C17.83013208 16.3421094 17.83013208 16.3421094 20 17.5 C23.88888889 19.66666667 23.88888889 19.66666667 25 23 C27.31869204 24.46293963 27.31869204 24.46293963 30.0625 25.6875 C30.98160156 26.12449219 31.90070313 26.56148437 32.84765625 27.01171875 C33.55792969 27.33785156 34.26820313 27.66398437 35 28 C35 29.32 35 30.64 35 32 C35.721875 32.268125 36.44375 32.53625 37.1875 32.8125 C44.51519176 35.9064143 44.51519176 35.9064143 45.85546875 38.9296875 C47.34095572 41.61674585 48.91852497 42.35809856 51.625 43.75 C52.44226563 44.17796875 53.25953125 44.6059375 54.1015625 45.046875 C54.72804688 45.36140625 55.35453125 45.6759375 56 46 C55.34 47.65 54.68 49.3 54 51 C49.14809323 48.35523513 45.09331056 44.90461635 40.875 41.375 C39.34906546 40.10794389 37.82302385 38.84101672 36.296875 37.57421875 C35.55888672 36.95981934 34.82089844 36.34541992 34.06054688 35.71240234 C30.57470626 32.81552011 27.06176873 29.95226718 23.55078125 27.0859375 C21.75323835 25.61597133 19.95929511 24.1415979 18.16796875 22.6640625 C12.87425812 18.3045361 7.53771284 14.04617987 2 10 C-1.24460895 11.47079084 -3.80554495 13.31424176 -6.5625 15.5625 C-7.42746094 16.26503906 -8.29242188 16.96757813 -9.18359375 17.69140625 C-10.11300781 18.45324219 -11.04242188 19.21507813 -12 20 C-13.02222656 20.83402344 -14.04445313 21.66804688 -15.09765625 22.52734375 C-17.73477064 24.68127073 -20.36872179 26.83895022 -23 29 C-23 25.06845568 -21.74672985 22.4934597 -20 19 C-19.01 18.67 -18.02 18.34 -17 18 C-17.10699219 17.24074219 -17.21398437 16.48148438 -17.32421875 15.69921875 C-17.44410156 14.70535156 -17.56398438 13.71148437 -17.6875 12.6875 C-17.81511719 11.70136719 -17.94273438 10.71523438 -18.07421875 9.69921875 C-18 7 -18 7 -16.51953125 5.14453125 C-16.01808594 4.76683594 -15.51664063 4.38914062 -15 4 C-14.01 4.33 -13.02 4.66 -12 5 C-12 5.66 -12 6.32 -12 7 C-10.68 7 -9.36 7 -8 7 C-7.505 6.484375 -7.01 5.96875 -6.5 5.4375 C-6.005 4.963125 -5.51 4.48875 -5 4 C-3.0625 4.3125 -3.0625 4.3125 -1 5 C0.32 5 1.64 5 3 5 C3 3.68 3 2.36 3 1 C2.01 0.67 1.02 0.34 0 0 Z " fill="#342E2C" transform="translate(102,30)"/>
<path d="M0 0 C2.875 -0.125 2.875 -0.125 6 0 C8.58925669 2.58925669 8.26946157 3.67069432 8.31884766 7.27587891 C8.33871735 8.3768692 8.35858704 9.4778595 8.37905884 10.61221313 C8.39061005 11.80494843 8.40216125 12.99768372 8.4140625 14.2265625 C8.43342865 15.44451508 8.4527948 16.66246765 8.4727478 17.91732788 C8.53268215 21.8198133 8.57898471 25.72232799 8.625 29.625 C8.66316699 32.2656381 8.70221795 34.90626357 8.7421875 37.546875 C8.83839504 44.03113826 8.92340176 50.51547708 9 57 C8.34 57 7.68 57 7 57 C7 56.34 7 55.68 7 55 C5.948125 55.04125 4.89625 55.0825 3.8125 55.125 C0.20695843 55.00678552 -1.76818463 54.41775666 -5 53 C-4.87882812 51.98164063 -4.75765625 50.96328125 -4.6328125 49.9140625 C-4.17904078 46.09059019 -3.73223722 42.26632494 -3.28662109 38.44189453 C-3.01479381 36.12603723 -2.73629268 33.81106416 -2.45703125 31.49609375 C-1.21593546 21.00906498 -0.47382052 10.54874105 0 0 Z " fill="#896B34" transform="translate(51,97)"/>
<path d="M0 0 C7.59 0 15.18 0 23 0 C23 7.59 23 15.18 23 23 C15.41 23 7.82 23 0 23 C0 15.41 0 7.82 0 0 Z " fill="#7FBBE5" transform="translate(111,98)"/>
<path d="M0 0 C0.66 0 1.32 0 2 0 C2.66 1.65 3.32 3.3 4 5 C7.71888239 4.49287967 10.73454239 3.88391785 14 2 C14.99 3.485 14.99 3.485 16 5 C18.05003955 6.19232613 18.05003955 6.19232613 20 7 C19.34 7 18.68 7 18 7 C18 7.66 18 8.32 18 9 C20.475 9.495 20.475 9.495 23 10 C23 10.99 23 11.98 23 13 C23.66 13 24.32 13 25 13 C25.62222222 21.24444444 25.62222222 21.24444444 23.25 24.125 C21 25 21 25 18.9375 24.9375 C16.44594305 23.73190793 15.42336035 22.34854458 14 20 C14 19.34 14 18.68 14 18 C13.505 18.495 13.01 18.99 12.5 19.5 C9.04955144 21.57026914 5.88169688 21.57993479 2 21 C-0.8125 19.6875 -0.8125 19.6875 -3 18 C-3.5775 17.608125 -4.155 17.21625 -4.75 16.8125 C-6.82069194 13.80999669 -6.7054601 10.5933868 -7 7 C-6.01 7 -5.02 7 -4 7 C-3.71125 6.21625 -3.4225 5.4325 -3.125 4.625 C-2 2 -2 2 0 0 Z " fill="#569039" transform="translate(10,53)"/>
<path d="M0 0 C1.54005389 0.64966979 3.08171043 1.29555443 4.625 1.9375 C11.80206561 5.20325472 18.8600494 8.99031092 23 16 C23 17.32 23 18.64 23 20 C22.01 20.495 22.01 20.495 21 21 C21 22.32 21 23.64 21 25 C18.5 25.9375 18.5 25.9375 15 26 C10.53095245 23.08796525 7.08946091 19.3137674 4 15 C4.66 14.67 5.32 14.34 6 14 C3.92490134 13.9744345 3.92490134 13.9744345 1.5625 14.1875 C-1 14 -1 14 -4 11 C-1.03 10.01 1.94 9.02 5 8 C2.525 5.525 2.525 5.525 0 3 C-0.66 3.33 -1.32 3.66 -2 4 C-3.47668337 4.0952699 -4.95775457 4.12985959 -6.4375 4.125 C-7.61119141 4.12886719 -7.61119141 4.12886719 -8.80859375 4.1328125 C-11 4 -11 4 -14 3 C-16.63804589 3.39397335 -16.63804589 3.39397335 -19 4 C-15.535 5.485 -15.535 5.485 -12 7 C-14 8 -14 8 -16.75 7.25 C-20 6 -20 6 -22.75 4.375 C-27.2103674 2.48792149 -31.22427744 2.74516895 -36 3 C-33.55420823 0.69074515 -32.40557866 0.00998186 -28.984375 -0.07421875 C-27.38335937 0.11720703 -27.38335937 0.11720703 -25.75 0.3125 C-24.13351563 0.49232422 -24.13351563 0.49232422 -22.484375 0.67578125 C-21.25460938 0.83626953 -21.25460938 0.83626953 -20 1 C-21.70828921 -1.10633718 -22.52148416 -1.93801608 -25.26171875 -2.29296875 C-26.46248047 -2.24076172 -26.46248047 -2.24076172 -27.6875 -2.1875 C-28.49574219 -2.16042969 -29.30398437 -2.13335937 -30.13671875 -2.10546875 C-30.75160156 -2.07066406 -31.36648437 -2.03585938 -32 -2 C-32 -2.33 -32 -2.66 -32 -3 C-20.87176038 -5.12542465 -10.21573562 -5.20626806 0 0 Z " fill="#74AE46" transform="translate(84,10)"/>
<path d="M0 0 C1.01709045 0.00088623 2.03418091 0.00177246 3.08209229 0.00268555 C17.59772179 0.01757484 32.07199411 0.19654653 46.5625 1.125 C46.5625 2.775 46.5625 4.425 46.5625 6.125 C18.5125 6.125 -9.5375 6.125 -38.4375 6.125 C-37.7775 4.475 -37.1175 2.825 -36.4375 1.125 C-24.28892361 -0.02032912 -12.19102724 -0.0304573 0 0 Z " fill="#FEECC5" transform="translate(98.4375,83.875)"/>
<path d="M0 0 C2.63257753 -0.28644682 5.02911842 -0.37843744 7.66259766 -0.34057617 C8.84809456 -0.34123329 8.84809456 -0.34123329 10.05754089 -0.34190369 C12.6766305 -0.33980932 15.29508437 -0.31644826 17.9140625 -0.29296875 C19.7272405 -0.28737509 21.54042303 -0.28310391 23.35360718 -0.28010559 C28.13114898 -0.26863869 32.90841814 -0.23915575 37.68585205 -0.20599365 C42.55875968 -0.17533243 47.43171126 -0.16160871 52.3046875 -0.14648438 C61.8699116 -0.11428773 71.43493315 -0.0630692 81 0 C81.02464775 5.53588533 81.04283496 11.071739 81.05493164 16.60766602 C81.05997244 18.4924373 81.06680498 20.37720465 81.07543945 22.26196289 C81.08751617 24.96501636 81.09323068 27.66801831 81.09765625 30.37109375 C81.10281754 31.21900986 81.10797882 32.06692596 81.11329651 32.9405365 C81.11349195 34.96071068 81.06206211 36.98077934 81 39 C80.67 39.33 80.34 39.66 80 40 C78.35 40 76.7 40 75 40 C75 31.42 75 22.84 75 14 C74.34 14 73.68 14 73 14 C72.505 12.515 72.505 12.515 72 11 C72.33 10.67 72.66 10.34 73 10 C46.93 9.67 20.86 9.34 -6 9 C-6 7.68 -6 6.36 -6 5 C-5.01 5.495 -5.01 5.495 -4 6 C-4.33 6.66 -4.66 7.32 -5 8 C23.05 8 51.1 8 80 8 C80 6.35 80 4.7 80 3 C52.94 3 25.88 3 -2 3 C-1.34 2.01 -0.68 1.02 0 0 Z " fill="#F5DEBC" transform="translate(65,82)"/>
<path d="M0 0 C0.33 0 0.66 0 1 0 C1 17.16 1 34.32 1 52 C11.23 52 21.46 52 32 52 C32 35.5 32 19 32 2 C32.33 2 32.66 2 33 2 C33.33 19.49 33.66 36.98 34 55 C34.99 55.33 35.98 55.66 37 56 C36.67 56.99 36.34 57.98 36 59 C22.14 58.67 8.28 58.34 -6 58 C-6 59.65 -6 61.3 -6 63 C-6.66 63 -7.32 63 -8 63 C-7.93993922 61.54052295 -7.8511311 60.08220728 -7.75 58.625 C-7.68039063 57.40683594 -7.68039063 57.40683594 -7.609375 56.1640625 C-7 54 -7 54 -5.140625 52.7109375 C-3 52 -3 52 0 52 C0 34.84 0 17.68 0 0 Z " fill="#BAA892" transform="translate(68,94)"/>
<path d="M0 0 C4.15629906 1.76202205 7.44476198 4.57786523 10.9375 7.375 C11.54529297 7.85710937 12.15308594 8.33921875 12.77929688 8.8359375 C15.48233841 10.98204167 18.16679028 13.13926179 20.81640625 15.3515625 C22.81004531 17.20083663 22.81004531 17.20083663 25 17 C25 16.01 25 15.02 25 14 C29.69323544 14.48550711 32.0482211 16.38266786 35.5625 19.4375 C39.9482175 23.23371668 39.9482175 23.23371668 45 26 C43.55802132 28.88395737 41.29355765 30.76525152 39 33 C39.66 33.99 40.32 34.98 41 36 C39.68 35.67 38.36 35.34 37 35 C37.59927826 31.64404172 38.84622436 29.62198774 41 27 C40.443125 27.495 39.88625 27.99 39.3125 28.5 C36.61837017 30.24754367 35.14624993 30.26218749 32 30 C32 32.31 32 34.62 32 37 C32.99 37 33.98 37 35 37 C35 46.57 35 56.14 35 66 C33.02 66.495 33.02 66.495 31 67 C31 53.14 31 39.28 31 25 C29.68 24.34 28.36 23.68 27 23 C25.38668563 21.76745039 23.80691229 20.49056789 22.25 19.1875 C21.29996094 18.39730469 20.34992188 17.60710937 19.37109375 16.79296875 C18.84370605 16.35388184 18.31631836 15.91479492 17.77294922 15.46240234 C15.76874949 13.80925495 13.74729081 12.17883328 11.72265625 10.55078125 C10.99336914 9.96337158 10.26408203 9.37596191 9.51269531 8.77075195 C8.0539822 7.59675659 6.5937106 6.42469487 5.13183594 5.25463867 C4.46571289 4.71685791 3.79958984 4.17907715 3.11328125 3.625 C2.51298096 3.14289062 1.91268066 2.66078125 1.29418945 2.1640625 C0.86710693 1.77992187 0.44002441 1.39578125 0 1 C0 0.67 0 0.34 0 0 Z " fill="#C33935" transform="translate(115,57)"/>
<path d="M0 0 C-1.06483067 3.21564758 -2.02649586 4.01571146 -5.00390625 5.78125 C-7.37841389 6.92810331 -9.7534152 8.07393504 -12.12890625 9.21875 C-15.06268998 10.68697426 -15.06268998 10.68697426 -15.96484375 12.96875 C-16.1096889 15.02638741 -16.1096889 15.02638741 -15.359375 16.9921875 C-15 19 -15 19 -16.328125 21.0703125 C-16.96234375 21.74835937 -17.5965625 22.42640625 -18.25 23.125 C-18.87390625 23.80820312 -19.4978125 24.49140625 -20.140625 25.1953125 C-22.85398495 27.82886775 -24.34880936 28.97446311 -28.1875 29.125 C-29.5796875 29.063125 -29.5796875 29.063125 -31 29 C-31.33 27.68 -31.66 26.36 -32 25 C-32.433125 25.495 -32.86625 25.99 -33.3125 26.5 C-35 28 -35 28 -38 28 C-37.8046875 25.71484375 -37.8046875 25.71484375 -37 23 C-34.8203125 21.19140625 -34.8203125 21.19140625 -32.125 19.5625 C-28.83775733 17.57386194 -27.26386477 16.55639452 -25.59765625 13.04296875 C-23.58861429 9.21645606 -21.00864312 7.70437225 -17.3125 5.75 C-16.68762695 5.40646484 -16.06275391 5.06292969 -15.41894531 4.70898438 C-10.44315954 2.05213661 -5.71931832 0 0 0 Z " fill="#7CB554" transform="translate(50,7)"/>
<path d="M0 0 C0.85846527 0.00045822 1.71693054 0.00091644 2.60140991 0.00138855 C4.41869487 0.00440716 6.23597733 0.01228178 8.05322266 0.0246582 C10.80510873 0.04276589 13.55665464 0.04516869 16.30859375 0.04492188 C18.08073202 0.04984365 19.85286804 0.05567481 21.625 0.0625 C22.4357901 0.06361282 23.2465802 0.06472565 24.0819397 0.06587219 C26.46075307 0.08515214 28.83351972 0.14778829 31.2109375 0.23046875 C32.09545593 0.2495932 32.97997437 0.26871765 33.89129639 0.28842163 C34.77198792 0.33463654 35.65267944 0.38085144 36.56005859 0.4284668 C37.75288956 0.47840034 37.75288956 0.47840034 38.96981812 0.52934265 C41.2109375 1.23046875 41.2109375 1.23046875 45.2109375 6.23046875 C25.4109375 6.23046875 5.6109375 6.23046875 -14.7890625 6.23046875 C-12.7890625 2.23046875 -12.7890625 2.23046875 -11.21337891 0.99487305 C-7.51545875 -0.17110762 -3.83762583 -0.03350849 0 0 Z " fill="#FEEFC5" transform="translate(89.7890625,70.76953125)"/>
<path d="M0 0 C0.83265381 0.00523682 1.66530762 0.01047363 2.52319336 0.01586914 C3.42231445 0.0190918 4.32143555 0.02231445 5.24780273 0.02563477 C6.66609375 0.03820313 6.66609375 0.03820313 8.11303711 0.05102539 C9.06243164 0.05553711 10.01182617 0.06004883 10.98999023 0.06469727 C13.34353242 0.07652411 15.69704243 0.09446018 18.05053711 0.11352539 C18.05053711 3.08352539 18.05053711 6.05352539 18.05053711 9.11352539 C16.07053711 9.11352539 14.09053711 9.11352539 12.05053711 9.11352539 C11.72053711 10.10352539 11.39053711 11.09352539 11.05053711 12.11352539 C8.98803711 12.80102539 8.98803711 12.80102539 7.05053711 13.11352539 C7.05053711 13.77352539 7.05053711 14.43352539 7.05053711 15.11352539 C5.73053711 15.11352539 4.41053711 15.11352539 3.05053711 15.11352539 C3.05053711 16.10352539 3.05053711 17.09352539 3.05053711 18.11352539 C1.73053711 18.11352539 0.41053711 18.11352539 -0.94946289 18.11352539 C-1.27946289 21.74352539 -1.60946289 25.37352539 -1.94946289 29.11352539 C-2.27946289 29.11352539 -2.60946289 29.11352539 -2.94946289 29.11352539 C-2.9741217 25.1442155 -2.99230312 21.17493505 -3.00439453 17.20556641 C-3.00943346 15.85432153 -3.01626466 14.50308213 -3.02490234 13.15185547 C-3.03698708 11.21332105 -3.04216117 9.27474739 -3.04711914 7.33618164 C-3.05235596 6.16837158 -3.05759277 5.00056152 -3.06298828 3.79736328 C-2.90952816 0.16943401 -2.90952816 0.16943401 0 0 Z " fill="#AF6B4E" transform="translate(64.949462890625,35.886474609375)"/>
<path d="M0 0 C1.98 0.66 3.96 1.32 6 2 C6 2.66 6 3.32 6 4 C7.258125 4 8.51625 4 9.8125 4 C12.20833333 4 14.60416667 4 17 4 C18.37868281 5.62935241 19.71274093 7.29749607 21 9 C21.66 9.33 22.32 9.66 23 10 C23.49230769 16.4 23.49230769 16.4 21 19.4375 C20.01 20.2109375 20.01 20.2109375 19 21 C15.57440916 19.79641403 13.46741391 18.64107354 11 16 C10.69707031 16.49371094 10.39414062 16.98742187 10.08203125 17.49609375 C6.61749571 22.7941681 6.61749571 22.7941681 3.1875 23.9375 C2.465625 23.958125 1.74375 23.97875 1 24 C6.96583144 15.18451025 6.96583144 15.18451025 12 14 C10.14536523 14 8.28993212 14.03463746 6.4375 14.125 C4 14 4 14 2 12 C1.875 8.875 1.875 8.875 2 6 C0.68 6 -0.64 6 -2 6 C-1.34 4.02 -0.68 2.04 0 0 Z " fill="#77B246" transform="translate(29,34)"/>
<path d="M0 0 C27.39 0 54.78 0 83 0 C81.68 0.66 80.36 1.32 79 2 C78.67 2.33 78.34 2.66 78 3 C75.70848583 3.08790975 73.41427476 3.10694038 71.12109375 3.09765625 C70.09110008 3.09553383 70.09110008 3.09553383 69.04029846 3.09336853 C66.83932199 3.08775479 64.63844591 3.07520007 62.4375 3.0625 C60.94856917 3.05748676 59.45963676 3.05292355 57.97070312 3.04882812 C54.31376925 3.03778093 50.65689442 3.02050713 47 3 C47 3.66 47 4.32 47 5 C45.00045254 5.04254356 42.99958364 5.04080783 41 5 C40.505 4.505 40.505 4.505 40 4 C37.71011219 3.84111908 35.41556559 3.74861927 33.12109375 3.68359375 C32.4344313 3.66281265 31.74776886 3.64203156 31.04029846 3.62062073 C28.83947065 3.55505857 26.63852025 3.49620985 24.4375 3.4375 C22.94855486 3.39432108 21.45962227 3.350707 19.97070312 3.30664062 C16.31393447 3.1993707 12.65702682 3.09812228 9 3 C9 3.66 9 4.32 9 5 C6.69 5 4.38 5 2 5 C2 7.31 2 9.62 2 12 C1.67 12 1.34 12 1 12 C0.67 8.04 0.34 4.08 0 0 Z " fill="#FEF2CC" transform="translate(59,91)"/>
<path d="M0 0 C0.33 0.66 0.66 1.32 1 2 C0.0625 4.125 0.0625 4.125 -1 6 C-0.01 5.67 0.98 5.34 2 5 C1.67 9.29 1.34 13.58 1 18 C0.34 18 -0.32 18 -1 18 C-0.938125 18.763125 -0.87625 19.52625 -0.8125 20.3125 C-1.03881649 23.55636969 -1.74942072 23.83944389 -4 26 C-4.72197162 28.60611077 -4.72197162 28.60611077 -5 31 C-12.96724244 31.47803455 -16.97266777 28.82186578 -23 24 C-24.051875 23.525625 -25.10375 23.05125 -26.1875 22.5625 C-29 21 -29 21 -30.375 18.3125 C-30.58125 17.549375 -30.7875 16.78625 -31 16 C-26.125 17.875 -26.125 17.875 -25 19 C-18.6850015 19.41453713 -18.6850015 19.41453713 -13 17 C-11.02 19.97 -11.02 19.97 -9 23 C-6.83125748 22.49396008 -5.00032373 22.00016187 -3 21 C-2.53348793 18.87423218 -2.53348793 18.87423218 -2.375 16.4375 C-2.30023438 15.61121094 -2.22546875 14.78492187 -2.1484375 13.93359375 C-2.09945312 13.29550781 -2.05046875 12.65742187 -2 12 C-2.66 12 -3.32 12 -4 12 C-4 11.01 -4 10.02 -4 9 C-6.475 8.505 -6.475 8.505 -9 8 C-9 7.34 -9 6.68 -9 6 C-7.03125 4.4921875 -7.03125 4.4921875 -4.5 2.875 C-3.6646875 2.33617187 -2.829375 1.79734375 -1.96875 1.2421875 C-1.3190625 0.83226562 -0.669375 0.42234375 0 0 Z " fill="#436B26" transform="translate(37,54)"/>
<path d="M0 0 C2.2477975 2.05233685 3.0022242 3.00667261 4 6 C5.83013208 7.3421094 5.83013208 7.3421094 8 8.5 C11.88888889 10.66666667 11.88888889 10.66666667 13 14 C15.31869204 15.46293963 15.31869204 15.46293963 18.0625 16.6875 C18.98160156 17.12449219 19.90070313 17.56148437 20.84765625 18.01171875 C21.55792969 18.33785156 22.26820313 18.66398437 23 19 C23 20.32 23 21.64 23 23 C23.721875 23.268125 24.44375 23.53625 25.1875 23.8125 C32.51519176 26.9064143 32.51519176 26.9064143 33.85546875 29.9296875 C35.34095572 32.61674585 36.91852497 33.35809856 39.625 34.75 C40.44226563 35.17796875 41.25953125 35.6059375 42.1015625 36.046875 C42.72804687 36.36140625 43.35453125 36.6759375 44 37 C43.34 38.65 42.68 40.3 42 42 C37.14809323 39.35523513 33.09331056 35.90461635 28.875 32.375 C27.34906546 31.10794389 25.82302385 29.84101672 24.296875 28.57421875 C23.55888672 27.95981934 22.82089844 27.34541992 22.06054688 26.71240234 C19.42657052 24.52345564 16.77787538 22.35350374 14.125 20.1875 C11.41015588 17.97079242 8.69791664 15.75127163 5.9921875 13.5234375 C5.00476563 12.71132813 4.01734375 11.89921875 3 11.0625 C1.6696875 9.96615234 1.6696875 9.96615234 0.3125 8.84765625 C-2.05900021 6.89854558 -2.05900021 6.89854558 -5 5 C-4.67 4.01 -4.34 3.02 -4 2 C-1.525 2.99 -1.525 2.99 1 4 C0.67 2.68 0.34 1.36 0 0 Z " fill="#30302F" transform="translate(114,39)"/>
<path d="M0 0 C5.28 0 10.56 0 16 0 C16 5.28 16 10.56 16 16 C10.72 16 5.44 16 0 16 C0 10.72 0 5.44 0 0 Z " fill="#94D4F6" transform="translate(75,101)"/>
<path d="M0 0 C2 2 2 2 2.0625 5.625 C1.21210492 11.04379654 -1.81439712 14.6077996 -6 18 C-11.38955617 20.74397282 -17.22833085 20.1960303 -23 19 C-26.0625 17.9375 -26.0625 17.9375 -28 17 C-28 16.67 -28 16.34 -28 16 C-27.071875 15.773125 -26.14375 15.54625 -25.1875 15.3125 C-21.43948491 13.76919967 -20.76970981 12.53941962 -19 9 C-18.34 8.34 -17.68 7.68 -17 7 C-14.69 7.66 -12.38 8.32 -10 9 C-10 8.34 -10 7.68 -10 7 C-9.34 7 -8.68 7 -8 7 C-7.67 6.01 -7.34 5.02 -7 4 C-4.69 4 -2.38 4 0 4 C0 2.68 0 1.36 0 0 Z " fill="#527C31" transform="translate(158,140)"/>
<path d="M0 0 C2.4983576 1.18758221 4.50255511 2.65731293 6.66796875 4.37890625 C7.45558594 4.99636719 8.24320313 5.61382812 9.0546875 6.25 C10.98046875 7.94140625 10.98046875 7.94140625 11.98046875 9.94140625 C9.71215582 8.88826096 7.9400277 7.9061834 6.04296875 6.25390625 C4.07667538 4.73052198 4.07667538 4.73052198 1.76953125 5.01171875 C-2.17736328 6.32735026 -4.65897331 8.73723967 -7.70703125 11.50390625 C-8.96246379 12.61189959 -10.21897745 13.71866913 -11.4765625 14.82421875 C-12.08580566 15.36336914 -12.69504883 15.90251953 -13.32275391 16.45800781 C-16.21167637 18.98363268 -19.22121638 21.34834762 -22.234375 23.72265625 C-24.5366091 25.55669408 -26.8148608 27.41296112 -29.0859375 29.28515625 C-29.80604004 29.8769165 -30.52614258 30.46867676 -31.26806641 31.07836914 C-32.70669338 32.26171444 -34.14265422 33.44830989 -35.57568359 34.63842773 C-36.23648926 35.18055908 -36.89729492 35.72269043 -37.578125 36.28125 C-38.16907959 36.76972412 -38.76003418 37.25819824 -39.36889648 37.76147461 C-41.01953125 38.94140625 -41.01953125 38.94140625 -44.01953125 39.94140625 C-43.80334236 36.19863601 -43.08351648 35.00596278 -40.39453125 32.29296875 C-39.28013018 31.37114928 -38.15446126 30.46282957 -37.01953125 29.56640625 C-36.43300781 29.08743896 -35.84648438 28.60847168 -35.2421875 28.11499023 C-33.51246132 26.70911459 -31.7693976 25.32209598 -30.01953125 23.94140625 C-29.13265625 23.23886719 -28.24578125 22.53632812 -27.33203125 21.8125 C-24.31222844 19.45072855 -21.26577872 17.1274599 -18.20703125 14.81640625 C-15.9386344 12.99819657 -15.9386344 12.99819657 -14.1953125 10.59765625 C-11.98525486 7.89956074 -9.71329324 5.77561959 -7.01953125 3.56640625 C-6.17390625 2.85742188 -5.32828125 2.1484375 -4.45703125 1.41796875 C-2.01953125 -0.05859375 -2.01953125 -0.05859375 0 0 Z " fill="#B08065" transform="translate(103.01953125,47.05859375)"/>
<path d="M0 0 C0.33 0.99 0.66 1.98 1 3 C1.78375 2.484375 2.5675 1.96875 3.375 1.4375 C4.674375 0.7259375 4.674375 0.7259375 6 0 C6.66 0.33 7.32 0.66 8 1 C1.23116052 6.81310633 -5.58912392 12.55798015 -12.5625 18.125 C-13.14531738 18.59784424 -13.72813477 19.07068848 -14.32861328 19.55786133 C-17.11736199 21.76341937 -19.40512226 23.56052839 -23 24 C-23 24.66 -23 25.32 -23 26 C-24.32 26 -25.64 26 -27 26 C-27.33 24.35 -27.66 22.7 -28 21 C-24.2671466 17.8249975 -20.52735079 14.65851025 -16.77929688 11.50146484 C-15.64060781 10.54057876 -14.50371209 9.57756092 -13.36914062 8.61181641 C-11.89741554 7.3597309 -10.41764447 6.11712124 -8.9375 4.875 C-8.08027344 4.15054688 -7.22304687 3.42609375 -6.33984375 2.6796875 C-4.12353861 1.08868381 -2.66557894 0.40630072 0 0 Z " fill="#CB3D3A" transform="translate(80,59)"/>
<path d="M0 0 C0.66 0.33 1.32 0.66 2 1 C1.67 1.99 1.34 2.98 1 4 C1.99 4 2.98 4 4 4 C4 4.66 4 5.32 4 6 C1.03 5.505 1.03 5.505 -2 5 C-2.33 5.66 -2.66 6.32 -3 7 C-5.28515625 7.4140625 -5.28515625 7.4140625 -8.0625 7.625 C-8.98160156 7.69976562 -9.90070312 7.77453125 -10.84765625 7.8515625 C-11.91306641 7.92503906 -11.91306641 7.92503906 -13 8 C-13 9.98 -13 11.96 -13 14 C-13.66 13.34 -14.32 12.68 -15 12 C-17.64167228 13.52791204 -17.64167228 13.52791204 -20 16 C-20.04241723 18.33294775 -20.04092937 20.66702567 -20 23 C-21.9375 25.8125 -21.9375 25.8125 -24 28 C-24.33 28.66 -24.66 29.32 -25 30 C-26.32 30 -27.64 30 -29 30 C-29.34078925 24.43377565 -28.33656015 21.01927736 -26 16 C-25.50700377 14.46269992 -25.02827681 12.92076479 -24.5625 11.375 C-23.34525345 7.58729133 -21.74903388 4.93862242 -19 2 C-19 2.99 -19 3.98 -19 5 C-18.236875 4.505 -17.47375 4.01 -16.6875 3.5 C-14 2 -14 2 -11 2 C-11.33 3.32 -11.66 4.64 -12 6 C-5.10740765 4.65226477 -5.10740765 4.65226477 0 0 Z " fill="#5A9139" transform="translate(31,30)"/>
<path d="M0 0 C7.59 0 15.18 0 23 0 C22.34 1.32 21.68 2.64 21 4 C20.01 4.33 19.02 4.66 18 5 C18 5.99 18 6.98 18 8 C17.34 8 16.68 8 16 8 C16 9.32 16 10.64 16 12 C10.72 12 5.44 12 0 12 C0 8.04 0 4.08 0 0 Z " fill="#F7E3BF" transform="translate(102,130)"/>
<path d="M0 0 C3.21284937 1.0440574 5.26885947 2.5532566 7.89453125 4.671875 C9.20164062 5.70248047 9.20164062 5.70248047 10.53515625 6.75390625 C12.64453125 8.859375 12.64453125 8.859375 13.64453125 12.859375 C4.40453125 12.859375 -4.83546875 12.859375 -14.35546875 12.859375 C-4.50904018 -0.26919643 -4.50904018 -0.26919643 0 0 Z " fill="#FEF4CA" transform="translate(105.35546875,51.140625)"/>
<path d="M0 0 C0.33 0 0.66 0 1 0 C1 11.22 1 22.44 1 34 C6.94 34 12.88 34 19 34 C19 34.33 19 34.66 19 35 C11.41 35 3.82 35 -4 35 C-5.15927528 31.52217417 -5.11313066 28.81196743 -5.09765625 25.14453125 C-5.0962413 24.48289474 -5.09482635 23.82125824 -5.09336853 23.13957214 C-5.08777996 21.03050172 -5.07522965 18.92153823 -5.0625 16.8125 C-5.05748352 15.38086091 -5.05292087 13.94922015 -5.04882812 12.51757812 C-5.0378143 9.01168412 -5.02055755 5.5058525 -5 2 C-3.35 2 -1.7 2 0 2 C0 1.34 0 0.68 0 0 Z " fill="#F7DFBD" transform="translate(106,94)"/>
<path d="M0 0 C1.96191406 1.31933594 1.96191406 1.31933594 4 4 C4.6457049 7.61789627 4.60499697 11.22290997 4.609375 14.890625 C4.62591125 15.95037537 4.64244751 17.01012573 4.65948486 18.10198975 C4.70804555 21.48471831 4.72935437 24.86699705 4.75 28.25 C4.77815283 30.54429356 4.80807928 32.8385661 4.83984375 35.1328125 C4.91380655 40.75512645 4.96540179 46.37731347 5 52 C4.34 52 3.68 52 3 52 C2.505 44.575 2.505 44.575 2 37 C0.68 37.66 -0.64 38.32 -2 39 C-2.02700675 36.08327116 -2.04684237 33.16679323 -2.0625 30.25 C-2.07087891 29.425 -2.07925781 28.6 -2.08789062 27.75 C-2.09111328 26.95078125 -2.09433594 26.1515625 -2.09765625 25.328125 C-2.10289307 24.5949707 -2.10812988 23.86181641 -2.11352539 23.10644531 C-1.99718172 20.94770727 -1.52812631 19.09048917 -1 17 C-0.95562015 14.26231804 -0.95136641 11.54813925 -1 8.8125 C-1.04567784 6.20201142 -1.04722011 3.61186209 -1 1 C-0.67 0.67 -0.34 0.34 0 0 Z " fill="#9F823E" transform="translate(55,102)"/>
<path d="M0 0 C0.66 0.33 1.32 0.66 2 1 C2.08090971 2.62418745 2.13914995 4.24951745 2.1875 5.875 C2.23970703 7.23238281 2.23970703 7.23238281 2.29296875 8.6171875 C2.19628906 9.40351562 2.09960938 10.18984375 2 11 C1.01 11.66 0.02 12.32 -1 13 C-1.33 13.99 -1.66 14.98 -2 16 C-4.14453125 17.4296875 -4.14453125 17.4296875 -6.8125 18.875 C-10.79632416 21.14822348 -13.3258612 23.2116367 -16 27 C-16.66 27 -17.32 27 -18 27 C-18.33 27.99 -18.66 28.98 -19 30 C-19.66 30 -20.32 30 -21 30 C-20.34 25.71 -19.68 21.42 -19 17 C-17.68 17 -16.36 17 -15 17 C-15 16.01 -15 15.02 -15 14 C-13.68 14 -12.36 14 -11 14 C-11 13.34 -11 12.68 -11 12 C-11.66 11.67 -12.32 11.34 -13 11 C-11.02 11 -9.04 11 -7 11 C-6.67 9.68 -6.34 8.36 -6 7 C-3.03 7.495 -3.03 7.495 0 8 C0 5.36 0 2.72 0 0 Z " fill="#96372B" transform="translate(83,37)"/>
<path d="M0 0 C1.11375 0.57814453 1.11375 0.57814453 2.25 1.16796875 C2.25 3.80796875 2.25 6.44796875 2.25 9.16796875 C0.96996094 8.75804687 0.96996094 8.75804687 -0.3359375 8.33984375 C-4.37337389 8.13658608 -5.73599614 9.21791061 -8.703125 11.84375 C-9.25484375 12.36324219 -9.8065625 12.88273437 -10.375 13.41796875 C-11.49154618 14.42388939 -12.60871826 15.42911579 -13.7265625 16.43359375 C-14.24895508 16.90861328 -14.77134766 17.38363281 -15.30957031 17.87304688 C-20.08710407 22.16796875 -20.08710407 22.16796875 -23.75 22.16796875 C-24.08 21.50796875 -24.41 20.84796875 -24.75 20.16796875 C-25.41 20.49796875 -26.07 20.82796875 -26.75 21.16796875 C-25.18500661 16.96512486 -22.06017577 14.60557767 -18.6875 11.85546875 C-18.10548828 11.37634033 -17.52347656 10.89721191 -16.92382812 10.40356445 C-15.75090756 9.44062512 -14.57564014 8.48053672 -13.39794922 7.5234375 C-11.93153713 6.3172864 -10.49650402 5.07321244 -9.06640625 3.82421875 C-8.30199219 3.17453125 -7.53757812 2.52484375 -6.75 1.85546875 C-6.09 1.28183594 -5.43 0.70820312 -4.75 0.1171875 C-2.75 -0.83203125 -2.75 -0.83203125 0 0 Z " fill="#EC5647" transform="translate(104.75,39.83203125)"/>
<path d="M0 0 C2.63257753 -0.28644682 5.02911842 -0.37843744 7.66259766 -0.34057617 C8.84809456 -0.34123329 8.84809456 -0.34123329 10.05754089 -0.34190369 C12.6766305 -0.33980932 15.29508437 -0.31644826 17.9140625 -0.29296875 C19.7272405 -0.28737509 21.54042303 -0.28310391 23.35360718 -0.28010559 C28.13114898 -0.26863869 32.90841814 -0.23915575 37.68585205 -0.20599365 C42.55875968 -0.17533243 47.43171126 -0.16160871 52.3046875 -0.14648438 C61.8699116 -0.11428773 71.43493315 -0.0630692 81 0 C81.02464775 5.53588533 81.04283496 11.071739 81.05493164 16.60766602 C81.05997244 18.4924373 81.06680498 20.37720465 81.07543945 22.26196289 C81.08751617 24.96501636 81.09323068 27.66801831 81.09765625 30.37109375 C81.10281754 31.21900986 81.10797882 32.06692596 81.11329651 32.9405365 C81.11349195 34.96071068 81.06206211 36.98077934 81 39 C80.67 39.33 80.34 39.66 80 40 C78.35 40 76.7 40 75 40 C75 31.42 75 22.84 75 14 C75.33 14 75.66 14 76 14 C76 21.92 76 29.84 76 38 C77.32 38 78.64 38 80 38 C80 26.45 80 14.9 80 3 C52.94 3 25.88 3 -2 3 C-1.34 2.01 -0.68 1.02 0 0 Z " fill="#E7D1AF" transform="translate(65,82)"/>
<path d="M0 0 C0.99 0.33 1.98 0.66 3 1 C3 17.83 3 34.66 3 52 C2.01 52 1.02 52 0 52 C0 34.84 0 17.68 0 0 Z " fill="#9C856F" transform="translate(97,94)"/>
<path d="M0 0 C5.28 0 10.56 0 16 0 C16.87890625 6.93359375 16.87890625 6.93359375 17 9 C16 10 16 10 13.05859375 10.09765625 C11.26615234 10.08025391 11.26615234 10.08025391 9.4375 10.0625 C7.64119141 10.04896484 7.64119141 10.04896484 5.80859375 10.03515625 C4.88175781 10.02355469 3.95492187 10.01195312 3 10 C2.67 9.01 2.34 8.02 2 7 C1.34 6.67 0.68 6.34 0 6 C0 4.02 0 2.04 0 0 Z " fill="#F5E1B9" transform="translate(102,143)"/>
<path d="M0 0 C20.46 0 40.92 0 62 0 C62 0.66 62 1.32 62 2 C47.9020245 2.84974886 33.87143782 3.12783137 19.75 3.0625 C17.81770952 3.05746461 15.88541774 3.05290538 13.953125 3.04882812 C9.30205008 3.03800776 4.65104027 3.020861 0 3 C0 2.01 0 1.02 0 0 Z " fill="#867E72" transform="translate(62,152)"/>
<path d="M0 0 C5.445 1.485 5.445 1.485 11 3 C11.05393279 6.58353441 11.09364225 10.16625756 11.125 13.75 C11.14175781 14.76578125 11.15851562 15.7815625 11.17578125 16.828125 C11.18222656 17.8078125 11.18867187 18.7875 11.1953125 19.796875 C11.20578613 20.69760742 11.21625977 21.59833984 11.22705078 22.52636719 C10.98000078 25.217884 10.5087621 26.764028 9 29 C7.20707872 29.92847709 5.41415092 30.85694162 3.62109375 31.78515625 C0.75072862 33.93620096 0.59240136 36.57723657 0 40 C-2.475 40.495 -2.475 40.495 -5 41 C-6.32 39.35 -7.64 37.7 -9 36 C-8.34 36 -7.68 36 -7 36 C-6.67 35.01 -6.34 34.02 -6 33 C-6 33.66 -6 34.32 -6 35 C-4.68 35.33 -3.36 35.66 -2 36 C-1.67 34.68 -1.34 33.36 -1 32 C-0.34 32 0.32 32 1 32 C1.0825 31.4225 1.165 30.845 1.25 30.25 C2.20918964 27.37243109 3.83980195 26.0947375 6 24 C7.23512079 21.86690808 7.23512079 21.86690808 8 20 C6.68 19.34 5.36 18.68 4 18 C4 17.67 4 17.34 4 17 C5.98 17 7.96 17 10 17 C9.85904936 15.3745692 9.71207913 13.74965949 9.5625 12.125 C9.48128906 11.22007813 9.40007813 10.31515625 9.31640625 9.3828125 C9.13010715 6.98889139 9.13010715 6.98889139 8 5 C6.845 4.505 5.69 4.01 4.5 3.5 C1 2 1 2 0 0 Z " fill="#427529" transform="translate(51,43)"/>
<path d="M0 0 C-0.66 0.66 -1.32 1.32 -2 2 C-2.6425235 4.06874034 -2.6425235 4.06874034 -3 6 C-3.928125 6.12375 -3.928125 6.12375 -4.875 6.25 C-7.17469437 6.78131326 -7.17469437 6.78131326 -7.9375 8.9375 C-9 11 -9 11 -11.625 12.25 C-12.40875 12.4975 -13.1925 12.745 -14 13 C-14.33 12.34 -14.66 11.68 -15 11 C-14.0625 8.875 -14.0625 8.875 -13 7 C-13.99 7 -14.98 7 -16 7 C-16 6.34 -16 5.68 -16 5 C-16.66 5 -17.32 5 -18 5 C-18.0825 5.5775 -18.165 6.155 -18.25 6.75 C-19.21797787 9.6539336 -20.68694284 11.03740604 -23 13 C-23.66 13 -24.32 13 -25 13 C-25.33 14.32 -25.66 15.64 -26 17 C-25.51020408 10.51020408 -25.51020408 10.51020408 -23.0625 8.0625 C-21 7 -21 7 -19 7 C-19 5.68 -19 4.36 -19 3 C-16.29120665 1.64560332 -13.99066732 1.93498549 -11 2 C-11 1.34 -11 0.68 -11 0 C-6.98195309 -0.84098656 -3.98196457 -1.05404945 0 0 Z " fill="#9AC653" transform="translate(147,124)"/>
<path d="M0 0 C10.10831721 2.85106383 10.10831721 2.85106383 13 7 C13 8.32 13 9.64 13 11 C12.01 11 11.02 11 10 11 C10 11.99 10 12.98 10 14 C8.56208484 13.85831863 7.1246763 13.71148957 5.6875 13.5625 C4.88699219 13.48128906 4.08648437 13.40007812 3.26171875 13.31640625 C1 13 1 13 -2 12 C-2.33 10.02 -2.66 8.04 -3 6 C-2.01 6 -1.02 6 0 6 C0 4.02 0 2.04 0 0 Z " fill="#8DBF4A" transform="translate(144,124)"/>
<path d="M0 0 C-0.309375 0.598125 -0.61875 1.19625 -0.9375 1.8125 C-2.10209704 4.08956772 -2.10209704 4.08956772 -3 7 C-4.8984375 8.7265625 -4.8984375 8.7265625 -7.375 10.625 C-11.21871818 13.60966368 -15.00547723 16.64153315 -18.75 19.75 C-22.38623958 22.73635847 -26.00505547 25.5166561 -30 28 C-29.12737648 24.72766181 -28.52609096 22.50912029 -26.0625 20.125 C-24 19 -24 19 -21 19 C-20.91234375 18.41089844 -20.8246875 17.82179688 -20.734375 17.21484375 C-19.80267808 14.40488548 -18.53211708 13.4199374 -16.25 11.5625 C-13.79975877 9.52281612 -11.5470058 7.53647105 -9.3125 5.25 C-6.62317775 2.63336213 -3.90660269 0 0 0 Z " fill="#3A3432" transform="translate(81,53)"/>
<path d="M0 0 C6.6 0 13.2 0 20 0 C20 11.55 20 23.1 20 35 C19.34 33.68 18.68 32.36 18 31 C17.67 31.66 17.34 32.32 17 33 C15.68 32.67 14.36 32.34 13 32 C13.33 30.35 13.66 28.7 14 27 C14.66 27 15.32 27 16 27 C16.33 24.69 16.66 22.38 17 20 C17.66 20 18.32 20 19 20 C18.34 19.34 17.68 18.68 17 18 C16.69279488 15.2583392 16.48936076 12.62345231 16.375 9.875 C16.25125 7.27625 16.1275 4.6775 16 2 C10.72 1.67 5.44 1.34 0 1 C0 0.67 0 0.34 0 0 Z " fill="#9F5232" transform="translate(75,99)"/>
<path d="M0 0 C0.33 0 0.66 0 1 0 C1 2.31 1 4.62 1 7 C1.99 7 2.98 7 4 7 C4 16.57 4 26.14 4 36 C2.02 36.495 2.02 36.495 0 37 C0 24.79 0 12.58 0 0 Z " fill="#635A4A" transform="translate(146,87)"/>
<path d="M0 0 C0.33 0 0.66 0 1 0 C1 2.64 1 5.28 1 8 C0.01 8.33 -0.98 8.66 -2 9 C-3.68538601 10.99665314 -3.68538601 10.99665314 -5 13 C-5.556875 12.62875 -6.11375 12.2575 -6.6875 11.875 C-9.05716353 10.70484137 -9.05716353 10.70484137 -11.75 11.875 C-12.4925 12.24625 -13.235 12.6175 -14 13 C-14.99 11.35 -15.98 9.7 -17 8 C-13.08073984 4.31827076 -10.30872977 3.4826118 -5 3 C-2.72349255 2.6422386 -2.72349255 2.6422386 -1 2 C-0.67 1.34 -0.34 0.68 0 0 Z " fill="#72B245" transform="translate(65,20)"/>
<path d="M0 0 C1.65 0 3.3 0 5 0 C5 0.66 5 1.32 5 2 C5.804375 2.2475 6.60875 2.495 7.4375 2.75 C8.283125 3.1625 9.12875 3.575 10 4 C10.66015625 6.078125 10.66015625 6.078125 11 8 C10.27554688 7.90460937 9.55109375 7.80921875 8.8046875 7.7109375 C1.20548286 6.77197122 1.20548286 6.77197122 -6 9 C-6.99 10.485 -6.99 10.485 -8 12 C-8.66 12 -9.32 12 -10 12 C-10 12.99 -10 13.98 -10 15 C-13 14 -13 14 -15 12 C-15.99 12.495 -15.99 12.495 -17 13 C-17.6875 10.1875 -17.6875 10.1875 -18 7 C-16.5625 5.125 -16.5625 5.125 -15 4 C-14.01 4.33 -13.02 4.66 -12 5 C-12 5.66 -12 6.32 -12 7 C-10.68 7 -9.36 7 -8 7 C-7.505 6.484375 -7.01 5.96875 -6.5 5.4375 C-6.005 4.963125 -5.51 4.48875 -5 4 C-3.0625 4.3125 -3.0625 4.3125 -1 5 C0.32 5 1.64 5 3 5 C3 3.68 3 2.36 3 1 C2.01 0.67 1.02 0.34 0 0 Z " fill="#4D7D2F" transform="translate(102,30)"/>
<path d="M0 0 C6.12352638 4.51567309 12.0805035 9.22073438 18 14 C16.68 14.33 15.36 14.66 14 15 C14 14.34 14 13.68 14 13 C-7.78 13 -29.56 13 -52 13 C-51.34 12.01 -50.68 11.02 -50 10 C-49.34 10.33 -48.68 10.66 -48 11 C-46.1820546 11.0909215 -44.36074055 11.11753467 -42.54052734 11.11352539 C-41.39949554 11.11344986 -40.25846375 11.11337433 -39.08285522 11.11329651 C-37.84637238 11.10813522 -36.60988953 11.10297394 -35.3359375 11.09765625 C-33.4424205 11.09553383 -33.4424205 11.09553383 -31.51065063 11.09336853 C-28.15361701 11.08871078 -24.796651 11.07972408 -21.43963623 11.06866455 C-18.01445094 11.0584377 -14.58925866 11.05386818 -11.1640625 11.04882812 C-4.44268957 11.03778238 2.27865131 11.02103194 9 11 C8.15231998 8.99446777 8.15231998 8.99446777 7 7 C4.81458448 6.3006486 4.81458448 6.3006486 2.375 6.25 C1.14910156 6.16492188 1.14910156 6.16492188 -0.1015625 6.078125 C-0.72804687 6.05234375 -1.35453125 6.0265625 -2 6 C-1.01 5.34 -0.02 4.68 1 4 C0.505 2.02 0.505 2.02 0 0 Z " fill="#F6DCB6" transform="translate(124,65)"/>
<path d="M0 0 C0.66 0 1.32 0 2 0 C2 5.28 2 10.56 2 16 C1.34 16.33 0.68 16.66 0 17 C0 16.01 0 15.02 0 14 C-1.98 14 -3.96 14 -6 14 C-6 11.03 -6 8.06 -6 5 C-7.65 5 -9.3 5 -11 5 C-10.67 4.01 -10.34 3.02 -10 2 C-6.7 2 -3.4 2 0 2 C0 1.34 0 0.68 0 0 Z " fill="#221402" transform="translate(57,83)"/>
<path d="M0 0 C0.33 0 0.66 0 1 0 C1.33 3.63 1.66 7.26 2 11 C2.99 10.01 3.98 9.02 5 8 C7.69921875 7.92578125 7.69921875 7.92578125 10.6875 8.3125 C12.17830078 8.49232422 12.17830078 8.49232422 13.69921875 8.67578125 C14.45847656 8.78277344 15.21773437 8.88976562 16 9 C16 11.31 16 13.62 16 16 C10.72 16 5.44 16 0 16 C0 10.72 0 5.44 0 0 Z " fill="#79BFE6" transform="translate(75,101)"/>
<path d="M0 0 C1.32 0 2.64 0 4 0 C4.66 0.66 5.32 1.32 6 2 C2.04 3.98 2.04 3.98 -2 6 C-0.02 6.66 1.96 7.32 4 8 C4.33 7.34 4.66 6.68 5 6 C6.65 6.99 8.3 7.98 10 9 C8 10 8 10 5 10 C5.51691406 10.45890625 6.03382812 10.9178125 6.56640625 11.390625 C7.22511719 12.00421875 7.88382813 12.6178125 8.5625 13.25 C9.55443359 14.15492187 9.55443359 14.15492187 10.56640625 15.078125 C12 17 12 17 11.83984375 19.109375 C11 21 11 21 9 23 C6.875 22.625 6.875 22.625 5 22 C4.87625 21.030625 4.7525 20.06125 4.625 19.0625 C4.41875 18.051875 4.2125 17.04125 4 16 C3.34 15.67 2.68 15.34 2 15 C2.33 13.68 2.66 12.36 3 11 C2.45730469 10.76925781 1.91460937 10.53851563 1.35546875 10.30078125 C-3.18613276 8.23046561 -5.88312742 6.76296329 -8 2 C-5.36 2.33 -2.72 2.66 0 3 C0 2.01 0 1.02 0 0 Z " fill="#649B3C" transform="translate(84,16)"/>
<path d="M0 0 C0.33 0.99 0.66 1.98 1 3 C13.87 2.67 26.74 2.34 40 2 C40.495 3.98 40.495 3.98 41 6 C26.81 5.67 12.62 5.34 -2 5 C-2 6.65 -2 8.3 -2 10 C-2.66 10 -3.32 10 -4 10 C-3.67 7.03 -3.34 4.06 -3 1 C-2.01 0.67 -1.02 0.34 0 0 Z " fill="#C6BAA6" transform="translate(64,147)"/>
<path d="M0 0 C0.33 0 0.66 0 1 0 C1.23652857 15.6371665 1.27405413 31.64691123 -2 47 C-1.01 47 -0.02 47 1 47 C1.66 45.68 2.32 44.36 3 43 C3 44.32 3 45.64 3 47 C4.32 47.66 5.64 48.32 7 49 C2.38820072 49.18085487 -0.79038695 48.84670417 -5 47 C-4.83564453 45.68128906 -4.83564453 45.68128906 -4.66796875 44.3359375 C-2.87822757 29.58148583 -1.45073737 14.7908344 0 0 Z " fill="#5C431D" transform="translate(51,103)"/>
<path d="M0 0 C0.33 0.99 0.66 1.98 1 3 C1.78375 2.484375 2.5675 1.96875 3.375 1.4375 C4.674375 0.7259375 4.674375 0.7259375 6 0 C6.66 0.33 7.32 0.66 8 1 C5.94709767 2.82446811 3.8838993 4.634243 1.8125 6.4375 C0.9452832 7.2119043 0.9452832 7.2119043 0.06054688 8.00195312 C-3.20131317 10.82152706 -5.5306867 12.67174535 -10 13 C-10.33 12.01 -10.66 11.02 -11 10 C-11.99 10.66 -12.98 11.32 -14 12 C-12.57369692 8.66950878 -10.84985604 6.68261063 -8.125 4.3125 C-7.44695312 3.71050781 -6.76890625 3.10851563 -6.0703125 2.48828125 C-3.98934166 0.99233806 -2.50369174 0.4210244 0 0 Z " fill="#CC4940" transform="translate(80,59)"/>
<path d="M0 0 C10.23 0 20.46 0 31 0 C30.01 0.495 30.01 0.495 29 1 C28.67 9.58 28.34 18.16 28 27 C27.67 27 27.34 27 27 27 C27 19.08 27 11.16 27 3 C25.21851563 3.03480469 23.43703125 3.06960937 21.6015625 3.10546875 C19.27605106 3.13359994 16.95052947 3.16090081 14.625 3.1875 C13.449375 3.21263672 12.27375 3.23777344 11.0625 3.26367188 C9.94101563 3.27333984 8.81953125 3.28300781 7.6640625 3.29296875 C6.62717285 3.3086792 5.5902832 3.32438965 4.52197266 3.34057617 C3.68972168 3.22818604 2.8574707 3.1157959 2 3 C1.34 2.01 0.68 1.02 0 0 Z " fill="#BE9D7C" transform="translate(107,94)"/>
<path d="M0 0 C0.66 0 1.32 0 2 0 C2 8.58 2 17.16 2 26 C3.98 25.67 5.96 25.34 8 25 C8 25.66 8 26.32 8 27 C4.7 27.33 1.4 27.66 -2 28 C-2 28.66 -2 29.32 -2 30 C-7.78645644 31.25406138 -13.48868116 31.11186913 -19.375 31.0625 C-20.39722656 31.05798828 -21.41945313 31.05347656 -22.47265625 31.04882812 C-24.98183194 31.037103 -27.4908849 31.02069176 -30 31 C-30 30.34 -30 29.68 -30 29 C-28.94087402 28.97812622 -28.94087402 28.97812622 -27.86035156 28.95581055 C-24.65635326 28.88126833 -21.45338984 28.78462795 -18.25 28.6875 C-17.13882813 28.66494141 -16.02765625 28.64238281 -14.8828125 28.61914062 C-13.81289062 28.58369141 -12.74296875 28.54824219 -11.640625 28.51171875 C-10.16384277 28.47244263 -10.16384277 28.47244263 -8.65722656 28.43237305 C-5.65831447 27.94440233 -4.24392093 26.99951045 -2 25 C-1.67 25.66 -1.34 26.32 -1 27 C-0.34 27 0.32 27 1 27 C0.67 18.09 0.34 9.18 0 0 Z " fill="#A6967C" transform="translate(138,96)"/>
<path d="M0 0 C0.33 0.66 0.66 1.32 1 2 C0.0625 4.125 0.0625 4.125 -1 6 C-0.01 5.67 0.98 5.34 2 5 C1.67 9.29 1.34 13.58 1 18 C0.34 18 -0.32 18 -1 18 C-0.938125 19.175625 -0.938125 19.175625 -0.875 20.375 C-1 23 -1 23 -3 25 C-5.125 24.625 -5.125 24.625 -7 24 C-6.0409375 23.5359375 -6.0409375 23.5359375 -5.0625 23.0625 C-1.90231425 19.90231425 -2.18099207 16.31666092 -2 12 C-2.66 12 -3.32 12 -4 12 C-4 11.01 -4 10.02 -4 9 C-5.65 8.67 -7.3 8.34 -9 8 C-9 7.34 -9 6.68 -9 6 C-7.03125 4.4921875 -7.03125 4.4921875 -4.5 2.875 C-3.6646875 2.33617187 -2.829375 1.79734375 -1.96875 1.2421875 C-1.3190625 0.83226562 -0.669375 0.42234375 0 0 Z " fill="#3E6B26" transform="translate(37,54)"/>
<path d="M0 0 C3.3 0 6.6 0 10 0 C10 0.33 10 0.66 10 1 C15.61 1.33 21.22 1.66 27 2 C27 2.33 27 2.66 27 3 C19.41 3 11.82 3 4 3 C4 10.59 4 18.18 4 26 C3.34 26 2.68 26 2 26 C1.93941406 24.85660156 1.87882812 23.71320313 1.81640625 22.53515625 C1.73201572 21.04425695 1.64736698 19.55337225 1.5625 18.0625 C1.52318359 17.30775391 1.48386719 16.55300781 1.44335938 15.77539062 C1.55961976 12.08055813 1.55961976 12.08055813 0 9 C-0.14193337 5.99668982 -0.04236378 3.00782866 0 0 Z " fill="#827F77" transform="translate(107,95)"/>
<path d="M0 0 C1.51861755 0.09203743 3.04110426 0.13001284 4.5625 0.125 C5.74005859 0.12886719 5.74005859 0.12886719 6.94140625 0.1328125 C9.06438977 0.12976366 9.06438977 0.12976366 11 -1 C12.32 0.32 13.64 1.64 15 3 C14.67 3.66 14.34 4.32 14 5 C13.34 5 12.68 5 12 5 C11.67 5.66 11.34 6.32 11 7 C9.9790625 6.7834375 9.9790625 6.7834375 8.9375 6.5625 C6.78446089 6.15021592 4.61331182 5.82970496 2.4375 5.5625 C-0.60703169 5.06430391 -2.39375768 4.52779722 -5 3 C-5.7425 2.62875 -6.485 2.2575 -7.25 1.875 C-7.8275 1.58625 -8.405 1.2975 -9 1 C-9 0.67 -9 0.34 -9 0 C-3.375 -1.125 -3.375 -1.125 0 0 Z " fill="#88C258" transform="translate(73,13)"/>
<path d="M0 0 C2.59239499 0.98953335 4.46207868 2.45512305 6.63061523 4.17919922 C7.41823242 4.79666016 8.20584961 5.41412109 9.01733398 6.05029297 C10.94311523 7.74169922 10.94311523 7.74169922 11.94311523 9.74169922 C9.6748023 8.68855393 7.90267419 7.70647637 6.00561523 6.05419922 C4.01661605 4.529186 4.01661605 4.529186 1.56811523 4.74169922 C-1.92515221 6.07246777 -4.22496307 8.3315531 -7.05688477 10.74169922 C-9.30688477 11.49169922 -9.30688477 11.49169922 -11.05688477 11.74169922 C-12.04688477 12.23669922 -12.04688477 12.23669922 -13.05688477 12.74169922 C-13.71688477 12.08169922 -14.37688477 11.42169922 -15.05688477 10.74169922 C-12.98618702 8.8714881 -10.90242062 7.02120664 -8.80688477 5.17919922 C-7.92709961 4.3796582 -7.92709961 4.3796582 -7.02954102 3.56396484 C-2.56659387 -0.32230935 -2.56659387 -0.32230935 0 0 Z " fill="#A5654E" transform="translate(103.056884765625,47.25830078125)"/>
<path d="M0 0 C5.6868961 2.08906387 9.59469939 4.86249881 14 9 C13.34 10.65 12.68 12.3 12 14 C7.59508389 11.89675177 3.44738664 9.49663502 0 6 C-0.5 2.625 -0.5 2.625 0 0 Z " fill="#D3433C" transform="translate(128,61)"/>
<path d="M0 0 C2.67193365 1.01465835 4.54939066 2.22207815 6.78125 4 C7.47863281 4.54785156 8.17601563 5.09570312 8.89453125 5.66015625 C9.41402344 6.08167969 9.93351562 6.50320312 10.46875 6.9375 C6.62570362 8.18575291 2.9182463 8.03529616 -1.09375 8 C-1.76599609 7.99548828 -2.43824219 7.99097656 -3.13085938 7.98632812 C-4.93101967 7.9738146 -6.73114057 7.95593115 -8.53125 7.9375 C-9.52125 7.9375 -10.51125 7.9375 -11.53125 7.9375 C-10.15309294 6.56534798 -8.75295849 5.21524233 -7.34375 3.875 C-6.56644531 3.12089844 -5.78914063 2.36679687 -4.98828125 1.58984375 C-2.53125 -0.0625 -2.53125 -0.0625 0 0 Z " fill="#FBEBC0" transform="translate(105.53125,51.0625)"/>
<path d="M0 0 C-0.66 1.98 -1.32 3.96 -2 6 C0.06484978 5.57372794 2.12681821 5.13348551 4.1875 4.6875 C5.33605469 4.44386719 6.48460937 4.20023438 7.66796875 3.94921875 C11.01991978 3.1513246 11.01991978 3.1513246 13.75 1.34375 C14.4925 0.9003125 15.235 0.456875 16 0 C18.8125 0.8125 18.8125 0.8125 21 2 C20.01 2.33 19.02 2.66 18 3 C14.28799503 4.26751389 13.25217975 4.62173037 11 8 C11.33 8.99 11.66 9.98 12 11 C14.01508358 11.73323796 14.01508358 11.73323796 16 12 C14.35 12.33 12.7 12.66 11 13 C10.319375 11.7625 10.319375 11.7625 9.625 10.5 C6.56132531 7.58221458 5.81366457 7.65872051 1.75 7.6875 C0.16526952 7.76765255 -1.41906283 7.8642325 -3 8 C-3.99 5.36 -4.98 2.72 -6 0 C-2 -1 -2 -1 0 0 Z " fill="#538F30" transform="translate(39,21)"/>
<path d="M0 0 C0.68578125 -0.01224609 1.3715625 -0.02449219 2.078125 -0.03710938 C6.42000695 -0.04953843 10.03627065 0.36877662 14 2.1875 C14.33 3.1775 14.66 4.1675 15 5.1875 C0.95152685 5.44189891 0.95152685 5.44189891 -4.5 3.125 C-7.73974034 1.91009737 -10.57080601 2.0530218 -14 2.1875 C-14 1.8575 -14 1.5275 -14 1.1875 C-9.31673539 0.27279988 -4.75821878 0.00447201 0 0 Z " fill="#7EAF51" transform="translate(66,5.8125)"/>
<path d="M0 0 C9.24 0 18.48 0 28 0 C28 0.33 28 0.66 28 1 C24.37 1 20.74 1 17 1 C17 1.66 17 2.32 17 3 C12.05 3 7.1 3 2 3 C2 5.64 2 8.28 2 11 C1.01 11.495 1.01 11.495 0 12 C0 8.04 0 4.08 0 0 Z " fill="#C2A180" transform="translate(69,94)"/>
<path d="M0 0 C3.8334923 1.67077146 6.94400029 4.16127834 10.1875 6.75 C10.7846582 7.22228027 11.38181641 7.69456055 11.99707031 8.18115234 C17.89515128 12.86847912 23.70199831 17.66775161 29.48901367 22.49121094 C30.17842041 23.06387695 30.86782715 23.63654297 31.578125 24.2265625 C32.19075195 24.73783691 32.80337891 25.24911133 33.43457031 25.77587891 C34.99733934 27.08144984 34.99733934 27.08144984 37 28 C37 28.66 37 29.32 37 30 C35.02 30 33.04 30 31 30 C31 28.35 31 26.7 31 25 C30.43796875 24.74863281 29.8759375 24.49726562 29.296875 24.23828125 C26.65066681 22.81166901 24.55654912 21.11798132 22.25 19.1875 C21.29996094 18.39730469 20.34992188 17.60710937 19.37109375 16.79296875 C18.84370605 16.35388184 18.31631836 15.91479492 17.77294922 15.46240234 C15.76874949 13.80925495 13.74729081 12.17883328 11.72265625 10.55078125 C10.99336914 9.96337158 10.26408203 9.37596191 9.51269531 8.77075195 C8.0539822 7.59675659 6.5937106 6.42469487 5.13183594 5.25463867 C4.46571289 4.71685791 3.79958984 4.17907715 3.11328125 3.625 C2.51298096 3.14289062 1.91268066 2.66078125 1.29418945 2.1640625 C0.86710693 1.77992187 0.44002441 1.39578125 0 1 C0 0.67 0 0.34 0 0 Z " fill="#914436" transform="translate(115,57)"/>
<path d="M0 0 C0.99 0.33 1.98 0.66 3 1 C3.33 2.98 3.66 4.96 4 7 C5.65 7 7.3 7 9 7 C8.67 7.66 8.34 8.32 8 9 C6.35 8.67 4.7 8.34 3 8 C3.33 9.32 3.66 10.64 4 12 C4.66 12 5.32 12 6 12 C5.67 13.32 5.34 14.64 5 16 C0.125 14.25 0.125 14.25 -1 12 C-1 9.9907774 -0.99756205 7.98098092 -0.9375 5.97265625 C-0.91266984 3.7852789 -0.91266984 3.7852789 -2 1 C-1.34 0.67 -0.68 0.34 0 0 Z " fill="#46692B" transform="translate(124,140)"/>
<path d="M0 0 C0.33 0 0.66 0 1 0 C1 11.22 1 22.44 1 34 C6.94 34 12.88 34 19 34 C19 34.33 19 34.66 19 35 C11.41 35 3.82 35 -4 35 C-4 33.02 -4 31.04 -4 29 C-2.68 29 -1.36 29 0 29 C0 19.43 0 9.86 0 0 Z " fill="#F1DAB8" transform="translate(106,94)"/>
<path d="M0 0 C1.07314453 0.00322266 2.14628906 0.00644531 3.25195312 0.00976562 C4.37150391 0.01814453 5.49105469 0.02652344 6.64453125 0.03515625 C8.34125977 0.04192383 8.34125977 0.04192383 10.07226562 0.04882812 C12.86724052 0.06062127 15.66210945 0.07707975 18.45703125 0.09765625 C18.78703125 1.08765625 19.11703125 2.07765625 19.45703125 3.09765625 C10.21703125 3.09765625 0.97703125 3.09765625 -8.54296875 3.09765625 C-8.54296875 2.43765625 -8.54296875 1.77765625 -8.54296875 1.09765625 C-5.42453625 0.05817875 -3.26821289 -0.01729213 0 0 Z " fill="#997F62" transform="translate(115.54296875,121.90234375)"/>
<path d="M0 0 C1.08654837 4.07455639 1 7.78307636 1 12 C-1.31 12.33 -3.62 12.66 -6 13 C-6.268125 12.21625 -6.53625 11.4325 -6.8125 10.625 C-7.84814432 7.71885077 -7.84814432 7.71885077 -11 6 C-10.67 5.34 -10.34 4.68 -10 4 C-5.25 4.875 -5.25 4.875 -3 6 C-3 5.01 -3 4.02 -3 3 C-2.01 3 -1.02 3 0 3 C0 2.01 0 1.02 0 0 Z " fill="#6D9E3C" transform="translate(157,132)"/>
<path d="M0 0 C6.27 0 12.54 0 19 0 C18.34 1.32 17.68 2.64 17 4 C15.68 4 14.36 4 13 4 C12.67 4.33 12.34 4.66 12 5 C10.00041636 5.04080783 7.99954746 5.04254356 6 5 C6 4.34 6 3.68 6 3 C4.02 3.66 2.04 4.32 0 5 C0 3.35 0 1.7 0 0 Z " fill="#CA493E" transform="translate(64,37)"/>
<path d="M0 0 C0.66 0.33 1.32 0.66 2 1 C2.08090971 2.62418745 2.13914995 4.24951745 2.1875 5.875 C2.22230469 6.77992187 2.25710937 7.68484375 2.29296875 8.6171875 C2.19628906 9.40351562 2.09960938 10.18984375 2 11 C1.01 11.66 0.02 12.32 -1 13 C-1.33 13.99 -1.66 14.98 -2 16 C-4.66083969 17.99396257 -7.61242325 20 -11 20 C-11 19.34 -11 18.68 -11 18 C-11.66 17.67 -12.32 17.34 -13 17 C-12.01 16.34 -11.02 15.68 -10 15 C-10 14.67 -10 14.34 -10 14 C-8.35 13.67 -6.7 13.34 -5 13 C-5 12.34 -5 11.68 -5 11 C-3.68 11 -2.36 11 -1 11 C-1 10.34 -1 9.68 -1 9 C-1.66 9 -2.32 9 -3 9 C-2.67 8.34 -2.34 7.68 -2 7 C-1.34 7.33 -0.68 7.66 0 8 C0 5.36 0 2.72 0 0 Z " fill="#6C2622" transform="translate(83,37)"/>
<path d="M0 0 C3.55780196 0.60990891 6.6828589 1.5783681 10 3 C9 5 9 5 5.5 6.1875 C-0.87581986 7.64123272 -7.10830048 6.85082235 -13 4 C-13 3.67 -13 3.34 -13 3 C-10.36 2.34 -7.72 1.68 -5 1 C-5 1.66 -5 2.32 -5 3 C-2.36 3 0.28 3 3 3 C2.01 2.01 1.02 1.02 0 0 Z " fill="#385324" transform="translate(143,153)"/>
<path d="M0 0 C1.98 0 3.96 0 6 0 C8 2 8 2 8.125 5.625 C8.08375 6.73875 8.0425 7.8525 8 9 C7.01 9.495 7.01 9.495 6 10 C5.67 8.35 5.34 6.7 5 5 C4.01 5 3.02 5 2 5 C2.02320313 6.10859375 2.04640625 7.2171875 2.0703125 8.359375 C2.08907577 9.82290992 2.10727537 11.28645214 2.125 12.75 C2.14175781 13.47960937 2.15851562 14.20921875 2.17578125 14.9609375 C2.21372922 19.13521398 1.91514727 21.16970546 0 25 C0 16.75 0 8.5 0 0 Z " fill="#7C5F2A" transform="translate(51,97)"/>
<path d="M0 0 C5.0572806 0.44623064 7.50642642 2.50642642 11 6 C11 7.32 11 8.64 11 10 C10.01 10 9.02 10 8 10 C8 10.99 8 11.98 8 13 C6.0625 12.25 6.0625 12.25 4 11 C2.76156206 8.04680182 2.95812843 7.12561472 4 4 C3.34 4 2.68 4 2 4 C1.34 2.68 0.68 1.36 0 0 Z " fill="#7FAC45" transform="translate(146,125)"/>
<path d="M0 0 C-2.98578937 2.80483244 -4.55878543 3.9401743 -8.6875 4.5 C-10.3271875 4.7475 -10.3271875 4.7475 -12 5 C-13.24174796 6.9001177 -13.24174796 6.9001177 -14 9 C-16.6205332 10.69066658 -17.82629722 11 -21 11 C-21 10.01 -21 9.02 -21 8 C-18.82267553 6.64709936 -16.635585 5.31840559 -14.4375 4 C-13.82841797 3.6184375 -13.21933594 3.236875 -12.59179688 2.84375 C-8.24338285 0.26691206 -5.17904313 -0.42658785 0 0 Z " fill="#8BBE5B" transform="translate(47,9)"/>
<path d="M0 0 C0.66 0.33 1.32 0.66 2 1 C0.68593801 5.08819285 -1.72861335 5.89550358 -5.37890625 7.78515625 C-8.24927138 9.93620096 -8.40759864 12.57723657 -9 16 C-10.65 16.33 -12.3 16.66 -14 17 C-15.32 15.35 -16.64 13.7 -18 12 C-17.34 12 -16.68 12 -16 12 C-15.67 11.01 -15.34 10.02 -15 9 C-15 9.66 -15 10.32 -15 11 C-13.68 11.33 -12.36 11.66 -11 12 C-10.95875 11.4225 -10.9175 10.845 -10.875 10.25 C-9.53737351 6.81038902 -7.14042375 5.7586373 -4 4 C-3.01 4 -2.02 4 -1 4 C-0.67 2.68 -0.34 1.36 0 0 Z " fill="#44772F" transform="translate(60,67)"/>
<path d="M0 0 C0.99 0.495 0.99 0.495 2 1 C2 6.28 2 11.56 2 17 C10.25 17 18.5 17 27 17 C27 17.33 27 17.66 27 18 C13.635 18.495 13.635 18.495 0 19 C0 12.73 0 6.46 0 0 Z " fill="#C2A17F" transform="translate(107,104)"/>
<path d="M0 0 C0.99 0.66 1.98 1.32 3 2 C2.67 3.65 2.34 5.3 2 7 C-4.625 7.125 -4.625 7.125 -8 6 C-8 5.34 -8 4.68 -8 4 C-7.34 4 -6.68 4 -6 4 C-6.33 2.68 -6.66 1.36 -7 0 C-4.28569464 -1.35715268 -2.88661718 -0.77445827 0 0 Z " fill="#406121" transform="translate(30,78)"/>
<path d="M0 0 C0.33 0 0.66 0 1 0 C1.33 10.56 1.66 21.12 2 32 C1.34 32 0.68 32 0 32 C-0.33 27.05 -0.66 22.1 -1 17 C-1.33 17 -1.66 17 -2 17 C-2.05441656 15.10448978 -2.09298035 13.2085208 -2.125 11.3125 C-2.14820313 10.25675781 -2.17140625 9.20101562 -2.1953125 8.11328125 C-1.99858729 4.97748141 -1.33057654 2.82354627 0 0 Z " fill="#927E49" transform="translate(58,122)"/>
<path d="M0 0 C3.3 1.98 6.6 3.96 10 6 C8.55802132 8.88395737 6.29355765 10.76525152 4 13 C4.99 14.485 4.99 14.485 6 16 C4.68 15.67 3.36 15.34 2 15 C2.59927826 11.64404172 3.84622436 9.62198774 6 7 C4.02 7.99 4.02 7.99 2 9 C0.4375 7.875 0.4375 7.875 -1 6 C-0.6875 2.8125 -0.6875 2.8125 0 0 Z " fill="#B33330" transform="translate(150,77)"/>
<path d="M0 0 C-1.49661255 4.32880971 -4.15380565 5.44268892 -8.125 7.4375 C-12.07691293 9.46591549 -15.91156634 11.49882715 -19.625 13.9375 C-23 16 -23 16 -26 16 C-25.67 14.68 -25.34 13.36 -25 12 C-23.63875 11.87625 -23.63875 11.87625 -22.25 11.75 C-18.96245841 11.29370775 -18.96245841 11.29370775 -17.125 9.125 C-14.55117227 6.55117227 -12.20347162 5.76117249 -8.8046875 4.61328125 C-6.93127656 4.02215698 -6.93127656 4.02215698 -5 3 C-5.66 2.34 -6.32 1.68 -7 1 C-2.25 0 -2.25 0 0 0 Z " fill="#72A845" transform="translate(50,7)"/>
<path d="M0 0 C2 0.33333333 4 0.66666667 6 1 C6.33 2.65 6.66 4.3 7 6 C5.8553125 5.7525 5.8553125 5.7525 4.6875 5.5 C1.96403764 4.90854604 1.96403764 4.90854604 -1 5 C-1.8353125 4.2265625 -1.8353125 4.2265625 -2.6875 3.4375 C-6.26368854 1.21446388 -8.9329035 2.25436564 -13 3 C-9.00870769 -1.58998616 -5.70680653 -1.14136131 0 0 Z " fill="#3B4A31" transform="translate(108,37)"/>
<path d="M0 0 C0.66 0.33 1.32 0.66 2 1 C2 2.98 2 4.96 2 7 C2.66 7.33 3.32 7.66 4 8 C3.67 9.32 3.34 10.64 3 12 C1.35 12.33 -0.3 12.66 -2 13 C-2 12.01 -2 11.02 -2 10 C-2.66 10 -3.32 10 -4 10 C-4 6 -4 6 -2 3.75 C-1.01 2.88375 -1.01 2.88375 0 2 C-0.99 1.67 -1.98 1.34 -3 1 C-2.01 0.67 -1.02 0.34 0 0 Z " fill="#85B647" transform="translate(140,129)"/>
<path d="M0 0 C0.99 0.33 1.98 0.66 3 1 C3 1.66 3 2.32 3 3 C-1.91934644 7.49157719 -7.37105566 11.44487726 -13 15 C-12.12737648 11.72766181 -11.52609096 9.50912029 -9.0625 7.125 C-7 6 -7 6 -4 6 C-3.896875 5.38125 -3.79375 4.7625 -3.6875 4.125 C-3 2 -3 2 0 0 Z " fill="#332C2A" transform="translate(64,66)"/>
<path d="M0 0 C0.66 0 1.32 0 2 0 C2 5.28 2 10.56 2 16 C1.34 16.33 0.68 16.66 0 17 C0 16.01 0 15.02 0 14 C-1.98 14 -3.96 14 -6 14 C-6 13.34 -6 12.68 -6 12 C-5.34 12 -4.68 12 -4 12 C-4 11.01 -4 10.02 -4 9 C-2.35 9 -0.7 9 1 9 C1 7.02 1 5.04 1 3 C-0.32 2.67 -1.64 2.34 -3 2 C-2.01 2 -1.02 2 0 2 C0 1.34 0 0.68 0 0 Z " fill="#4C331A" transform="translate(57,83)"/>
<path d="M0 0 C6.12352638 4.51567309 12.0805035 9.22073438 18 14 C16.68 14.33 15.36 14.66 14 15 C14 14.34 14 13.68 14 13 C13.1028125 12.8453125 13.1028125 12.8453125 12.1875 12.6875 C9.68741714 11.90175967 8.62464918 11.03081147 7 9 C7 8.34 7 7.68 7 7 C4.03 6.67 1.06 6.34 -2 6 C-1.01 5.34 -0.02 4.68 1 4 C0.67 2.68 0.34 1.36 0 0 Z " fill="#F4CBA3" transform="translate(124,65)"/>
<path d="M0 0 C0.33 0 0.66 0 1 0 C1 6.6 1 13.2 1 20 C0.01 20.33 -0.98 20.66 -2 21 C-2.05390357 18.06225537 -2.0936255 15.12549768 -2.125 12.1875 C-2.14175781 11.35412109 -2.15851562 10.52074219 -2.17578125 9.66210938 C-2.18222656 8.85966797 -2.18867187 8.05722656 -2.1953125 7.23046875 C-2.20578613 6.49207764 -2.21625977 5.75368652 -2.22705078 4.99291992 C-2 3 -2 3 0 0 Z " fill="#9D7E3B" transform="translate(55,120)"/>
<path d="M0 0 C4.875 1.875 4.875 1.875 6 3 C8.32817964 3.36760731 10.6618385 3.70241581 13 4 C12.67 5.32 12.34 6.64 12 8 C12.66 8 13.32 8 14 8 C14 8.66 14 9.32 14 10 C9.43976724 9.44724451 5.60675055 7.82590765 2 5 C0.5625 2.25 0.5625 2.25 0 0 Z " fill="#3F6525" transform="translate(6,70)"/>
<path d="M0 0 C0.33 0 0.66 0 1 0 C1 2.31 1 4.62 1 7 C0.030625 6.979375 -0.93875 6.95875 -1.9375 6.9375 C-4.87465895 6.64381501 -4.87465895 6.64381501 -6 8 C-7.66617115 8.04063832 -9.33388095 8.042721 -11 8 C-10.67 7.01 -10.34 6.02 -10 5 C-10.66 4.67 -11.32 4.34 -12 4 C-10.02 4 -8.04 4 -6 4 C-6 3.34 -6 2.68 -6 2 C-6.66 1.67 -7.32 1.34 -8 1 C-7.01 1 -6.02 1 -5 1 C-5 1.66 -5 2.32 -5 3 C-3.68 3 -2.36 3 -1 3 C-0.67 2.01 -0.34 1.02 0 0 Z " fill="#B13D35" transform="translate(82,38)"/>
<path d="M0 0 C0.99 0.33 1.98 0.66 3 1 C3.33 2.98 3.66 4.96 4 7 C3.34 7 2.68 7 2 7 C2 7.66 2 8.32 2 9 C0.02 9 -1.96 9 -4 9 C-3.38461538 3.46153846 -3.38461538 3.46153846 -1.4375 1.125 C-0.963125 0.75375 -0.48875 0.3825 0 0 Z " fill="#69993C" transform="translate(146,140)"/>
<path d="M0 0 C7.57142857 2.85714286 7.57142857 2.85714286 10 7 C9.01 6.67 8.02 6.34 7 6 C6.34 7.32 5.68 8.64 5 10 C2.36 8.02 -0.28 6.04 -3 4 C-2.01 2.68 -1.02 1.36 0 0 Z " fill="#E04E41" transform="translate(122,56)"/>
<path d="M0 0 C10.15317287 -0.63019694 10.15317287 -0.63019694 13.6875 2 C14.120625 2.66 14.55375 3.32 15 4 C14.67 4.33 14.34 4.66 14 5 C10.98053018 4.81727868 7.98800745 4.47861712 4.98046875 4.15625 C2.32168626 4.01686429 0.50156717 4.17623938 -2 5 C-1.34 3.35 -0.68 1.7 0 0 Z " fill="#8EC25D" transform="translate(50,7)"/>
<path d="M0 0 C2.64 0 5.28 0 8 0 C4.375 5.875 4.375 5.875 1 7 C0.67 7.99 0.34 8.98 0 10 C-0.66 10 -1.32 10 -2 10 C-1.34 6.7 -0.68 3.4 0 0 Z " fill="#6F312A" transform="translate(64,57)"/>
<path d="M0 0 C0.66 0.33 1.32 0.66 2 1 C1.34 1.66 0.68 2.32 0 3 C13.365 3.495 13.365 3.495 27 4 C27.33 3.01 27.66 2.02 28 1 C28.99 2.32 29.98 3.64 31 5 C19.45 5 7.9 5 -4 5 C-2.68 3.35 -1.36 1.7 0 0 Z " fill="#F6D9B2" transform="translate(92,60)"/>
<path d="M0 0 C0.66 0 1.32 0 2 0 C2.05447047 1.41623216 2.09300508 2.83308191 2.125 4.25 C2.14820312 5.03890625 2.17140625 5.8278125 2.1953125 6.640625 C1.9828378 9.20731941 1.28654105 10.7916067 0 13 C-1.32 12.67 -2.64 12.34 -4 12 C-3.67 10.35 -3.34 8.7 -3 7 C-2.34 7 -1.68 7 -1 7 C-0.67 4.69 -0.34 2.38 0 0 Z " fill="#8C452B" transform="translate(92,119)"/>
<path d="M0 0 C1.134375 0.020625 2.26875 0.04125 3.4375 0.0625 C2.17632275 3.95112987 0.98485833 5.95625599 -2.5625 8.0625 C-3.2225 8.0625 -3.8825 8.0625 -4.5625 8.0625 C-4.60491723 5.72955225 -4.60342937 3.39547433 -4.5625 1.0625 C-3.5625 0.0625 -3.5625 0.0625 0 0 Z " fill="#6DA646" transform="translate(12.5625,35.9375)"/>
<path d="M0 0 C0.33 0 0.66 0 1 0 C1.05428973 2.22889496 1.09292338 4.45817471 1.125 6.6875 C1.14820313 7.92886719 1.17140625 9.17023438 1.1953125 10.44921875 C1.01032021 13.81237857 0.45767895 15.9985587 -1 19 C-1.33 19 -1.66 19 -2 19 C-2.33 14.71 -2.66 10.42 -3 6 C-2.34 6 -1.68 6 -1 6 C-0.67 4.02 -0.34 2.04 0 0 Z " fill="#A78E47" transform="translate(58,108)"/>
<path d="M0 0 C0.66 0.33 1.32 0.66 2 1 C2.38063221 3.3260857 2.71269945 5.66055264 3 8 C3.33 8.66 3.66 9.32 4 10 C3.83219837 12.69565202 3.38844355 15.32405554 3 18 C2.01 18 1.02 18 0 18 C-0.73030908 11.78675502 -1.23180249 6.15901243 0 0 Z " fill="#D5C6A1" transform="translate(120,135)"/>
<path d="M0 0 C0.886875 0.845625 1.77375 1.69125 2.6875 2.5625 C5.33719169 4.83085061 5.33719169 4.83085061 8.875 4.8125 C9.57625 4.544375 10.2775 4.27625 11 4 C11 4.66 11 5.32 11 6 C4.6 7.35384615 4.6 7.35384615 1.5625 5.5625 C1.046875 5.046875 0.53125 4.53125 0 4 C0 6.31 0 8.62 0 11 C-1.32 11 -2.64 11 -4 11 C-3.56179109 6.44262737 -3.14958831 3.42346555 0 0 Z " fill="#5B9134" transform="translate(40,49)"/>
<path d="M0 0 C-1.98 0.99 -1.98 0.99 -4 2 C-4 2.66 -4 3.32 -4 4 C-5.32 4 -6.64 4 -8 4 C-8 4.99 -8 5.98 -8 7 C-9.32 7 -10.64 7 -12 7 C-12 5.02 -12 3.04 -12 1 C-8.0186217 -0.3271261 -4.14954773 -0.06915913 0 0 Z " fill="#AF4332" transform="translate(76,47)"/>
<path d="M0 0 C0.66 0.33 1.32 0.66 2 1 C1.34 1.66 0.68 2.32 0 3 C-0.309375 4.175625 -0.61875 5.35125 -0.9375 6.5625 C-1.288125 7.696875 -1.63875 8.83125 -2 10 C-2.99 10.33 -3.98 10.66 -5 11 C-5.33 10.01 -5.66 9.02 -6 8 C-6.99 8.66 -7.98 9.32 -9 10 C-7.61811547 6.78956118 -6.07578097 4.95063635 -3.375 2.75 C-2.74335937 2.22921875 -2.11171875 1.7084375 -1.4609375 1.171875 C-0.73777344 0.59179688 -0.73777344 0.59179688 0 0 Z " fill="#E24642" transform="translate(75,61)"/>
<path d="M0 0 C1.485 0.99 1.485 0.99 3 2 C5.84120234 1.64484971 8.28047752 0.90650749 11 0 C10.6875 2.375 10.6875 2.375 10 5 C7 7 7 7 5 6.875 C2.4164102 5.74467946 1.44741985 4.38824276 0 2 C0 1.34 0 0.68 0 0 Z " fill="#4C7F32" transform="translate(24,71)"/>
<path d="M0 0 C0.33 0.66 0.66 1.32 1 2 C0.01 3.485 0.01 3.485 -1 5 C-1.66 5 -2.32 5 -3 5 C-2.67 7.31 -2.34 9.62 -2 12 C-2.66 12 -3.32 12 -4 12 C-4 11.01 -4 10.02 -4 9 C-5.65 8.67 -7.3 8.34 -9 8 C-9 7.34 -9 6.68 -9 6 C-7.03125 4.4921875 -7.03125 4.4921875 -4.5 2.875 C-3.6646875 2.33617187 -2.829375 1.79734375 -1.96875 1.2421875 C-1.3190625 0.83226562 -0.669375 0.42234375 0 0 Z " fill="#497B2C" transform="translate(37,54)"/>
<path d="M0 0 C0.39169887 2.66355234 0.40564529 4.39224373 -1.11328125 6.66796875 C-2.36389317 8.1510888 -3.67864514 9.57954352 -5 11 C-5.66 10.67 -6.32 10.34 -7 10 C-6.67 9.67 -6.34 9.34 -6 9 C-5.92851801 7.64756083 -5.91600546 6.29165633 -5.9375 4.9375 C-5.958125 3.638125 -5.97875 2.33875 -6 1 C-3.92446352 0.4465236 -2.15634036 0 0 0 Z " fill="#476B2C" transform="translate(159,145)"/>
<path d="M0 0 C0.33 0.66 0.66 1.32 1 2 C7.6 2 14.2 2 21 2 C21 3.32 21 4.64 21 6 C20.01 6.33 19.02 6.66 18 7 C18 6.34 18 5.68 18 5 C14.43913342 3.81304447 11.02668976 3.64904582 7.3125 3.4375 C6.61060547 3.39431641 5.90871094 3.35113281 5.18554688 3.30664062 C3.45724794 3.2008264 1.7286489 3.09993419 0 3 C0 2.01 0 1.02 0 0 Z " fill="#E0CCAC" transform="translate(107,125)"/>
<path d="M0 0 C0.99 0.33 1.98 0.66 3 1 C3 3 3 3 0.9375 5.25 C-2 7 -2 7 -5.8125 6.25 C-6.864375 5.8375 -7.91625 5.425 -9 5 C-8.67 4.34 -8.34 3.68 -8 3 C-6.00116131 2.65977214 -4.00109278 2.32670903 -2 2 C-1.34 1.34 -0.68 0.68 0 0 Z " fill="#3E7327" transform="translate(22,55)"/>
<path d="M0 0 C0.66 0.99 1.32 1.98 2 3 C5.06556598 3.73343428 5.06556598 3.73343428 8 4 C8 4.33 8 4.66 8 5 C4.7 5 1.4 5 -2 5 C-2 6.65 -2 8.3 -2 10 C-2.66 10 -3.32 10 -4 10 C-3.67 7.03 -3.34 4.06 -3 1 C-2.01 0.67 -1.02 0.34 0 0 Z " fill="#D9CAB0" transform="translate(64,147)"/>
<path d="M0 0 C0.66 0 1.32 0 2 0 C2 0.66 2 1.32 2 2 C2.99 2 3.98 2 5 2 C3.9024777 4.99324263 3.32317108 5.84610901 0.375 7.25 C-0.40875 7.4975 -1.1925 7.745 -2 8 C-2.33 7.34 -2.66 6.68 -3 6 C-2.06553465 3.96855359 -1.06775224 1.96466413 0 0 Z " fill="#94C44E" transform="translate(135,129)"/>
<path d="M0 0 C5.445 1.485 5.445 1.485 11 3 C11 7.62 11 12.24 11 17 C10.67 17 10.34 17 10 17 C9.93941406 16.30132812 9.87882812 15.60265625 9.81640625 14.8828125 C9.73261719 13.97273438 9.64882813 13.06265625 9.5625 12.125 C9.48128906 11.22007813 9.40007813 10.31515625 9.31640625 9.3828125 C9.13010715 6.98889139 9.13010715 6.98889139 8 5 C6.845 4.505 5.69 4.01 4.5 3.5 C1 2 1 2 0 0 Z " fill="#588E33" transform="translate(51,43)"/>
<path d="M0 0 C0.66 0.33 1.32 0.66 2 1 C-3.0940919 8.68490153 -3.0940919 8.68490153 -6.875 10 C-7.57625 10 -8.2775 10 -9 10 C-8.06862408 8.70391053 -7.1296434 7.41328368 -6.1875 6.125 C-5.66542969 5.40570313 -5.14335938 4.68640625 -4.60546875 3.9453125 C-3 2 -3 2 0 0 Z " fill="#6EAC42" transform="translate(39,48)"/>
<path d="M0 0 C1.5625 1.8125 1.5625 1.8125 3 4 C1.66667905 7.99996286 -0.4957827 8.83782337 -4 11 C-4.66 10.67 -5.32 10.34 -6 10 C-4.68 9.34 -3.36 8.68 -2 8 C-2.04125 7.236875 -2.0825 6.47375 -2.125 5.6875 C-2 3 -2 3 0 0 Z " fill="#39532E" transform="translate(87,40)"/>
<path d="M0 0 C0.33 0 0.66 0 1 0 C1 4.62 1 9.24 1 14 C-0.65 14 -2.3 14 -4 14 C-3.2884375 12.205625 -3.2884375 12.205625 -2.5625 10.375 C-1.26517227 6.93585762 -0.45763049 3.66104396 0 0 Z " fill="#796230" transform="translate(57,137)"/>
<path d="M0 0 C0.66 0.33 1.32 0.66 2 1 C0.67890085 5.11008624 -1.78634217 6.10220006 -5.37890625 7.984375 C-7.47071109 9.29490334 -8.25134589 10.67085389 -9 13 C-9.66 12.67 -10.32 12.34 -11 12 C-10.875 10.25 -10.875 10.25 -10 8 C-4.88888889 4 -4.88888889 4 -1 4 C-0.67 2.68 -0.34 1.36 0 0 Z " fill="#475443" transform="translate(60,67)"/>
<path d="M0 0 C1.08667969 -0.01740234 1.08667969 -0.01740234 2.1953125 -0.03515625 C7.56830101 -0.00541646 7.56830101 -0.00541646 9.73046875 1.89990234 C10.14941406 2.38668457 10.56835938 2.8734668 11 3.375 C3.66666667 3.375 -3.66666667 3.375 -11 3.375 C-8.28005632 -0.64116684 -4.38579723 -0.07023519 0 0 Z " fill="#F7DCB3" transform="translate(105,55.625)"/>
<path d="M0 0 C0.99 0.33 1.98 0.66 3 1 C3 1.66 3 2.32 3 3 C3.66 3.33 4.32 3.66 5 4 C4.67 4.66 4.34 5.32 4 6 C2.68 5.67 1.36 5.34 0 5 C-0.33 6.32 -0.66 7.64 -1 9 C-1.33 9 -1.66 9 -2 9 C-2.6875 6.1875 -2.6875 6.1875 -3 3 C-1.5625 1.125 -1.5625 1.125 0 0 Z " fill="#588B35" transform="translate(87,34)"/>
<path d="M0 0 C0.99 0.33 1.98 0.66 3 1 C3.33 2.65 3.66 4.3 4 6 C2.02 6.99 2.02 6.99 0 8 C-0.66 5.69 -1.32 3.38 -2 1 C-1.34 0.67 -0.68 0.34 0 0 Z " fill="#5A8235" transform="translate(124,140)"/>
<path d="M0 0 C0.33 0 0.66 0 1 0 C1.3125 2.1875 1.3125 2.1875 1 5 C-1.375 7.8125 -1.375 7.8125 -4 10 C-4.66 10 -5.32 10 -6 10 C-6.33 11.32 -6.66 12.64 -7 14 C-6.51020408 7.51020408 -6.51020408 7.51020408 -4.0625 5.0625 C-2 4 -2 4 0 4 C0 2.68 0 1.36 0 0 Z " fill="#A2C064" transform="translate(128,127)"/>
<path d="M0 0 C0.66 0.66 1.32 1.32 2 2 C1.625 4.125 1.625 4.125 1 6 C-0.65 6.33 -2.3 6.66 -4 7 C-3.6875 4.625 -3.6875 4.625 -3 2 C-2.01 1.34 -1.02 0.68 0 0 Z " fill="#679F44" transform="translate(7,46)"/>
<path d="M0 0 C0.82638376 2.89234315 1 4.88742431 1 8 C-0.5 9.75 -0.5 9.75 -2 11 C-4.125 6.375 -4.125 6.375 -3 3 C-2.01 3 -1.02 3 0 3 C0 2.01 0 1.02 0 0 Z " fill="#638E38" transform="translate(157,132)"/>
<path d="M0 0 C0 2 0 4 0 6 C-1.32 6.33 -2.64 6.66 -4 7 C-4.66 6.01 -5.32 5.02 -6 4 C-5.34 4 -4.68 4 -4 4 C-4 3.34 -4 2.68 -4 2 C-4.66 1.67 -5.32 1.34 -6 1 C-4.02 0.67 -2.04 0.34 0 0 Z " fill="#50742C" transform="translate(24,76)"/>
<path d="M0 0 C0.33 0 0.66 0 1 0 C1 1.65 1 3.3 1 5 C3.31 3.68 5.62 2.36 8 1 C8 1.99 8 2.98 8 4 C5 6.1875 5 6.1875 2 8 C2 7.34 2 6.68 2 6 C1.01 6 0.02 6 -1 6 C-0.67 4.02 -0.34 2.04 0 0 Z " fill="#528632" transform="translate(7,39)"/>
<path d="M0 0 C1.5 1.3125 1.5 1.3125 3 3 C3 3.99 3 4.98 3 6 C0.6875 6.625 0.6875 6.625 -2 7 C-2.99 6.34 -3.98 5.68 -5 5 C-4.67 4.01 -4.34 3.02 -4 2 C-1.525 2.99 -1.525 2.99 1 4 C0.67 2.68 0.34 1.36 0 0 Z " fill="#2B3A24" transform="translate(114,39)"/>
<path d="M0 0 C0.66 0 1.32 0 2 0 C2 0.66 2 1.32 2 2 C2.66 2.33 3.32 2.66 4 3 C3.01 3.33 2.02 3.66 1 4 C1 4.99 1 5.98 1 7 C0.01 6.67 -0.98 6.34 -2 6 C-3.1875 3.4375 -3.1875 3.4375 -4 1 C-2.68 1.33 -1.36 1.66 0 2 C0 1.34 0 0.68 0 0 Z " fill="#466A31" transform="translate(91,38)"/>
<path d="M0 0 C2.64 0 5.28 0 8 0 C8 0.66 8 1.32 8 2 C6.68 2 5.36 2 4 2 C4 2.66 4 3.32 4 4 C2.68 4.33 1.36 4.66 0 5 C0 3.35 0 1.7 0 0 Z " fill="#D65040" transform="translate(64,37)"/>
<path d="M0 0 C1.32 0.33 2.64 0.66 4 1 C2.55802132 3.88395737 0.29355765 5.76525152 -2 8 C-1.01 9.485 -1.01 9.485 0 11 C-1.32 10.67 -2.64 10.34 -4 10 C-3.39561204 6.61542745 -2.06998635 4.6999822 0 2 C0 1.34 0 0.68 0 0 Z " fill="#F67C49" transform="translate(156,82)"/>
<path d="M0 0 C5.94 0.99 5.94 0.99 12 2 C12 2.33 12 2.66 12 3 C6.06 3.495 6.06 3.495 0 4 C0 2.68 0 1.36 0 0 Z " fill="#BD4837" transform="translate(64,44)"/>
<path d="M0 0 C1.32 0 2.64 0 4 0 C4 1.98 4 3.96 4 6 C2.68 6 1.36 6 0 6 C0 4.02 0 2.04 0 0 Z " fill="#FCE6C3" transform="translate(102,110)"/>
<path d="M0 0 C2.49361571 1.20381448 4.68143083 2.45428722 7 4 C7 4.66 7 5.32 7 6 C5.02 6 3.04 6 1 6 C0.67 4.02 0.34 2.04 0 0 Z " fill="#6B221D" transform="translate(145,81)"/>
<path d="M0 0 C-0.99 0.33 -1.98 0.66 -3 1 C-3.33 1.66 -3.66 2.32 -4 3 C-4.7425 2.814375 -5.485 2.62875 -6.25 2.4375 C-8.94990963 2.00796892 -10.44631077 2.14877026 -13 3 C-9.02319261 -1.5733285 -5.71367679 -1.16870662 0 0 Z " fill="#474E3D" transform="translate(108,37)"/>
<path d="M0 0 C0 1.32 0 2.64 0 4 C-2.875 4.625 -2.875 4.625 -6 5 C-6.66 4.34 -7.32 3.68 -8 3 C-3.375 0 -3.375 0 0 0 Z " fill="#679E3F" transform="translate(105,31)"/>
<path d="M0 0 C2.475 0.495 2.475 0.495 5 1 C4.67 2.32 4.34 3.64 4 5 C2.68 4.67 1.36 4.34 0 4 C0 2.68 0 1.36 0 0 Z " fill="#E9BA58" transform="translate(88,127)"/>
<path d="M0 0 C6.625 -0.25 6.625 -0.25 10 2 C7.03 1.505 7.03 1.505 4 1 C4 1.66 4 2.32 4 3 C2.35 3 0.7 3 -1 3 C-0.67 2.01 -0.34 1.02 0 0 Z " fill="#1A370E" transform="translate(47,85)"/>
<path d="M0 0 C-5.625 4 -5.625 4 -9 4 C-8.67 2.68 -8.34 1.36 -8 0 C-2.25 -1.125 -2.25 -1.125 0 0 Z " fill="#599036" transform="translate(33,19)"/>
<path d="M0 0 C2 2 2 2 2 5 C-2.55384615 5.36923077 -2.55384615 5.36923077 -4.8125 3.5 C-5.204375 3.005 -5.59625 2.51 -6 2 C-4.02 1.34 -2.04 0.68 0 0 Z " fill="#85BF52" transform="translate(86,19)"/>
<path d="M0 0 C0.66 0.66 1.32 1.32 2 2 C1.96712417 4.72869407 1.43602229 7.2966618 1 10 C0.34 10 -0.32 10 -1 10 C-1.02689216 8.52093108 -1.04634621 7.04172517 -1.0625 5.5625 C-1.07410156 4.73878906 -1.08570312 3.91507813 -1.09765625 3.06640625 C-1 1 -1 1 0 0 Z " fill="#B8AD89" transform="translate(122,143)"/>
<path d="M0 0 C1.32 0 2.64 0 4 0 C4 1.65 4 3.3 4 5 C2.68 5 1.36 5 0 5 C0 3.35 0 1.7 0 0 Z " fill="#FCE6C3" transform="translate(102,117)"/>
<path d="M0 0 C1.32 0 2.64 0 4 0 C4 1.65 4 3.3 4 5 C2.68 5 1.36 5 0 5 C0 3.35 0 1.7 0 0 Z " fill="#FEE7C4" transform="translate(102,104)"/>
<path d="M0 0 C0.66 0 1.32 0 2 0 C2.99 2.31 3.98 4.62 5 7 C3.35 6.67 1.7 6.34 0 6 C0 4.02 0 2.04 0 0 Z " fill="#253310" transform="translate(36,72)"/>
<path d="M0 0 C0.99 0.33 1.98 0.66 3 1 C2.67 2.65 2.34 4.3 2 6 C0.68 6 -0.64 6 -2 6 C-1.34 4.02 -0.68 2.04 0 0 Z " fill="#609F3A" transform="translate(25,37)"/>
<path d="M0 0 C-0.66 1.98 -1.32 3.96 -2 6 C-5 4 -5 4 -5.6875 1.875 C-5.790625 1.25625 -5.89375 0.6375 -6 0 C-2.25 -1.125 -2.25 -1.125 0 0 Z " fill="#68A53F" transform="translate(39,21)"/>
<path d="M0 0 C0.33 0.66 0.66 1.32 1 2 C1.99 2.33 2.98 2.66 4 3 C2.68 3 1.36 3 0 3 C0 3.66 0 4.32 0 5 C-1.65 5 -3.3 5 -5 5 C-4 2 -4 2 -1.9375 0.8125 C-1.298125 0.544375 -0.65875 0.27625 0 0 Z " fill="#949A5A" transform="translate(136,121)"/>
<path d="M0 0 C2.31 1.65 4.62 3.3 7 5 C5.68 5.33 4.36 5.66 3 6 C3 5.34 3 4.68 3 4 C1.68 3.67 0.36 3.34 -1 3 C-0.67 2.01 -0.34 1.02 0 0 Z " fill="#ECC19D" transform="translate(135,74)"/>
<path d="M0 0 C-0.33 2.97 -0.66 5.94 -1 9 C-3.1519437 5.77208445 -3.20086443 4.71599191 -3 1 C-1 0 -1 0 0 0 Z " fill="#487C2C" transform="translate(39,59)"/>
<path d="M0 0 C0.99 0 1.98 0 3 0 C3 0.66 3 1.32 3 2 C3.66 2 4.32 2 5 2 C5 2.66 5 3.32 5 4 C3.35 4 1.7 4 0 4 C0 2.68 0 1.36 0 0 Z " fill="#A13631" transform="translate(77,44)"/>
<path d="M0 0 C0.99 0.99 1.98 1.98 3 3 C2.67 3.66 2.34 4.32 2 5 C-1 5 -4 5 -7 5 C-7 4.67 -7 4.34 -7 4 C-5.824375 3.8453125 -5.824375 3.8453125 -4.625 3.6875 C-1.66954819 3.22404978 -1.66954819 3.22404978 0 0 Z " fill="#609637" transform="translate(44,34)"/>
<path d="M0 0 C3 2 3 2 4 5 C6.01508358 5.73323796 6.01508358 5.73323796 8 6 C6.35 6.33 4.7 6.66 3 7 C1.68 5.02 0.36 3.04 -1 1 C-0.67 0.67 -0.34 0.34 0 0 Z " fill="#649F3A" transform="translate(47,27)"/>
<path d="M0 0 C0 0.66 0 1.32 0 2 C0.66 2.33 1.32 2.66 2 3 C-0.70879335 4.35439668 -3.00933268 4.06501451 -6 4 C-6 3.34 -6 2.68 -6 2 C-2.25 0 -2.25 0 0 0 Z " fill="#8CB850" transform="translate(128,137)"/>
<path d="M0 0 C1.7578125 1.04166667 3.515625 2.08333333 5.2734375 3.125 C6.97472667 4.15068348 6.97472667 4.15068348 9 4 C9 4.66 9 5.32 9 6 C5.21213403 5.4739075 2.82847776 4.61896089 0 2 C0 1.34 0 0.68 0 0 Z " fill="#E07B4F" transform="translate(148,90)"/>
<path d="M0 0 C2.46800047 1.15173355 4.04783565 2.04783565 6 4 C6 4.99 6 5.98 6 7 C5.34 7 4.68 7 4 7 C2.02 3.535 2.02 3.535 0 0 Z " fill="#507236" transform="translate(104,20)"/>
<path d="M0 0 C1.32 0 2.64 0 4 0 C4 0.66 4 1.32 4 2 C2.35 2 0.7 2 -1 2 C-0.67 1.34 -0.34 0.68 0 0 Z " fill="#49742F" transform="translate(30,86)"/>
<path d="M0 0 C0.99 0 1.98 0 3 0 C3 0.99 3 1.98 3 3 C2.34 3 1.68 3 1 3 C0.67 2.01 0.34 1.02 0 0 Z " fill="#432B13" transform="translate(46,98)"/>
<path d="M0 0 C2.475 0.99 2.475 0.99 5 2 C4.01 2.495 4.01 2.495 3 3 C2.01 2.01 1.02 1.02 0 0 Z " fill="#568535" transform="translate(13,92)"/>
<path d="M0 0 C0.99 0.33 1.98 0.66 3 1 C2.01 1 1.02 1 0 1 C0 0.67 0 0.34 0 0 Z " fill="#F27C48" transform="translate(148,88)"/>
<path d="M0 0 C0.33 0.66 0.66 1.32 1 2 C0.34 1.67 -0.32 1.34 -1 1 C-0.67 0.67 -0.34 0.34 0 0 Z " fill="#325319" transform="translate(15,98)"/>
<path d="M0 0 C0.66 0 1.32 0 2 0 C1.67 0.66 1.34 1.32 1 2 C0.67 1.34 0.34 0.68 0 0 Z " fill="#8E5222" transform="translate(46,93)"/>
<path d="" fill="#60903C" transform="translate(0,0)"/>
<path d="" fill="#6FAA48" transform="translate(0,0)"/>
<path d="" fill="#759B4E" transform="translate(0,0)"/>
<path d="" fill="#82B154" transform="translate(0,0)"/>
</svg>
