<?xml version="1.0" encoding="UTF-8"?>
<svg version="1.1" xmlns="http://www.w3.org/2000/svg" width="48" height="48">
<path d="M0 0 C1.70703125 1.16015625 1.70703125 1.16015625 4.39453125 3.47265625 C6.61192579 5.47980382 6.61192579 5.47980382 9.51953125 4.91015625 C10.24140625 4.66265625 10.96328125 4.41515625 11.70703125 4.16015625 C12.26530734 5.42378117 12.80315222 6.69644815 13.33203125 7.97265625 C13.63367187 8.68035156 13.9353125 9.38804688 14.24609375 10.1171875 C14.39820313 10.79136719 14.5503125 11.46554688 14.70703125 12.16015625 C14.04703125 13.15015625 13.38703125 14.14015625 12.70703125 15.16015625 C11.38703125 15.16015625 10.06703125 15.16015625 8.70703125 15.16015625 C8.78953125 16.15015625 8.87203125 17.14015625 8.95703125 18.16015625 C8.92381476 23.64087678 6.74196262 28.02347831 2.98828125 31.96484375 C-2.75473047 37.05081599 -7.37607223 37.56715043 -14.98828125 37.5078125 C-21.04912426 36.87020608 -24.48162084 33.97150416 -28.66796875 29.78515625 C-32.08945023 24.25814771 -32.7944197 19.06621167 -31.953125 12.72265625 C-30.58320816 7.40510921 -27.76733462 3.16450066 -23.50390625 -0.2890625 C-16.07846851 -4.64348587 -7.35121695 -4.17716808 0 0 Z " fill="#EAD2CA" transform="translate(33.29296875,6.83984375)"/>
<path d="M0 0 C2.28123072 1.55830549 4.07255014 2.8532445 5.6640625 5.13671875 C5.4140625 7.88671875 5.4140625 7.88671875 4.6640625 10.13671875 C3.6740625 10.13671875 2.6840625 10.13671875 1.6640625 10.13671875 C0.42382533 8.63537902 -0.81396824 7.13170376 -2.0234375 5.60546875 C-4.75766521 2.54573774 -7.72358702 2.21759523 -11.6484375 1.69921875 C-17.45673578 2.38833889 -21.53343361 5.05257363 -25.3359375 9.44921875 C-27.27050875 14.648379 -26.77642585 18.74570291 -25.1484375 23.88671875 C-22.67070207 28.3295547 -20.15066432 30.53180981 -15.3359375 32.13671875 C-9.51712534 32.69621992 -5.83890726 31.71227787 -1.3359375 28.13671875 C3.08694149 23.24827355 3.4139747 18.46394016 3.6640625 12.13671875 C6.1390625 13.12671875 6.1390625 13.12671875 8.6640625 14.13671875 C9.11759252 20.48613906 8.39283797 24.87957892 4.6640625 30.13671875 C-0.34106849 35.38073099 -4.19340615 37.28829458 -11.5234375 37.51171875 C-19.33392185 37.45083524 -23.31599862 35.15665763 -28.7109375 29.76171875 C-32.13241898 24.23471021 -32.83738845 19.04277417 -31.99609375 12.69921875 C-30.62617691 7.38167171 -27.81030337 3.14106316 -23.546875 -0.3125 C-16.16467326 -4.64156892 -7.28694877 -4.2732107 0 0 Z " fill="#E10303" transform="translate(33.3359375,6.86328125)"/>
<path d="M0 0 C3.125 2.375 3.125 2.375 5 5 C5 5.66 5 6.32 5 7 C-0.875 6.125 -0.875 6.125 -2 5 C-5.41600593 4.58307147 -5.41600593 4.58307147 -9 5 C-11.42061048 7.10827364 -11.9127007 8.40345478 -12.375 11.5625 C-12.1695437 13.99695459 -12.1695437 13.99695459 -10.875 15.75 C-8.34022139 17.43985241 -5.99424517 17.66730609 -3 18 C-3.33 16.68 -3.66 15.36 -4 14 C-5.32 13.67 -6.64 13.34 -8 13 C-7.67 11.35 -7.34 9.7 -7 8 C-5.68 8.33 -4.36 8.66 -3 9 C-3 9.66 -3 10.32 -3 11 C-0.03 10.01 2.94 9.02 6 8 C6.48801743 15.19825708 6.48801743 15.19825708 4.25 18.875 C0.90546929 22.03372344 -0.8123529 22.89203208 -5.4375 23.3125 C-9.31775666 22.97212661 -11.02483472 22.4793044 -14 20 C-16.87354956 15.64013171 -17.74028479 12.18199355 -17 7 C-12.7693009 0.01151186 -7.76620877 -1.12165025 0 0 Z " fill="#E80E0D" transform="translate(27,13)"/>
<path d="M0 0 C2.475 0.495 2.475 0.495 5 1 C6.125 4.3125 6.125 4.3125 7 8 C6.34 8.99 5.68 9.98 5 11 C0.17443996 10.06169666 0.17443996 10.06169666 -1.85546875 9.34375 C-4.76993531 8.87658596 -6.39059063 9.74058132 -9.0625 10.9375 C-13.71186441 13 -13.71186441 13 -17 13 C-17.33 12.34 -17.66 11.68 -18 11 C-18.99 11 -19.98 11 -21 11 C-21 12.32 -21 13.64 -21 15 C-20.01 15.33 -19.02 15.66 -18 16 C-17.3125 18.0625 -17.3125 18.0625 -17 20 C-20.51903714 20.31991247 -22.42015168 20.37169764 -25.4375 18.4375 C-27 16 -27 16 -26.9375 12.4375 C-26 9 -26 9 -24.875 7.0625 C-21.8946843 5.37365444 -19.34564988 5.70128126 -16 6 C-15.01 6.66 -14.02 7.32 -13 8 C-8.85377305 8.07400186 -8.85377305 8.07400186 -5 7 C-2.81613373 4.81613373 -1.57381345 2.70499187 0 0 Z " fill="#2280A2" transform="translate(41,11)"/>
<path d="M0 0 C1.65 0.66 3.3 1.32 5 2 C5.45353002 8.34942031 4.72877547 12.74286017 1 18 C-2.91198572 22.09869412 -6.16304798 24.80766427 -11.99609375 25.203125 C-13.69958984 25.22632813 -13.69958984 25.22632813 -15.4375 25.25 C-16.57058594 25.27578125 -17.70367187 25.3015625 -18.87109375 25.328125 C-22.24142471 24.97468205 -23.5598938 24.27823183 -26 22 C-24.1875 20.4375 -24.1875 20.4375 -22 19 C-21.01 19.33 -20.02 19.66 -19 20 C-13.18118784 20.55950117 -9.50296976 19.57555912 -5 16 C-0.57712101 11.1115548 -0.2500878 6.32722141 0 0 Z " fill="#7E0202" transform="translate(37,19)"/>
<path d="M0 0 C1.98 0.495 1.98 0.495 4 1 C4 1.66 4 2.32 4 3 C6.97 2.01 9.94 1.02 13 0 C13.49029622 7.23186925 13.49029622 7.23186925 11.125 10.9375 C8.41715488 13.56570262 7.67942044 13.98641159 3.875 14.0625 C2.92625 14.041875 1.9775 14.02125 1 14 C1.66 13.01 2.32 12.02 3 11 C3.16713569 8.37468476 3.16713569 8.37468476 3 6 C1.68 5.67 0.36 5.34 -1 5 C-0.67 3.35 -0.34 1.7 0 0 Z " fill="#8B0D0D" transform="translate(20,21)"/>
<path d="M0 0 C0.66 1.32 1.32 2.64 2 4 C-0.31 4.33 -2.62 4.66 -5 5 C-5 6.32 -5 7.64 -5 9 C-4.01 9.33 -3.02 9.66 -2 10 C-1.3125 12.0625 -1.3125 12.0625 -1 14 C-4.51903714 14.31991247 -6.42015168 14.37169764 -9.4375 12.4375 C-11 10 -11 10 -10.9375 6.4375 C-10 3 -10 3 -8.875 1.0625 C-5.96905769 -0.58420065 -3.26178195 -0.18462917 0 0 Z " fill="#EBD9D1" transform="translate(25,17)"/>
<path d="M0 0 C0.99 0 1.98 0 3 0 C3.38434943 4.80436782 3.47968712 8.09024857 1.1875 12.4375 C-1 15 -1 15 -4 17 C-4.99 16.01 -5.98 15.02 -7 14 C-6.195625 13.34 -5.39125 12.68 -4.5625 12 C-1.24080883 8.11119083 -1.33373337 6.00600059 -1 1 C-0.67 0.67 -0.34 0.34 0 0 Z " fill="#DECCC1" transform="translate(34,20)"/>
<path d="M0 0 C1.98 0.495 1.98 0.495 4 1 C4 1.66 4 2.32 4 3 C5.65 2.67 7.3 2.34 9 2 C8.75 4.875 8.75 4.875 8 8 C5.9375 9.375 5.9375 9.375 4 10 C3.67 8.68 3.34 7.36 3 6 C1.68 5.67 0.36 5.34 -1 5 C-0.67 3.35 -0.34 1.7 0 0 Z " fill="#AC9D95" transform="translate(20,21)"/>
<path d="M0 0 C0.7734375 0.433125 0.7734375 0.433125 1.5625 0.875 C4.62356725 2.28780027 7.74944918 3.1248517 11 4 C10.01 5.485 10.01 5.485 9 7 C9.99 7.66 10.98 8.32 12 9 C7.02666392 9.29254918 3.9563029 9.16504232 0 6 C-1.3125 3.8125 -1.3125 3.8125 -2 2 C-1.34 1.34 -0.68 0.68 0 0 Z " fill="#C51211" transform="translate(13,27)"/>
<path d="M0 0 C2.475 0.99 2.475 0.99 5 2 C5.4375 4.625 5.4375 4.625 5 8 C2.86058773 10.38069937 0.58208191 12.06343857 -2 14 C-1.34 9.38 -0.68 4.76 0 0 Z " fill="#920C0B" transform="translate(37,19)"/>
<path d="M0 0 C0.98613281 0.22042969 1.97226562 0.44085938 2.98828125 0.66796875 C3.98214844 0.88066406 4.97601563 1.09335937 6 1.3125 C7.13888672 1.58126953 7.13888672 1.58126953 8.30078125 1.85546875 C7.015625 3.828125 7.015625 3.828125 5.30078125 5.85546875 C1.44092372 6.34672334 -0.78887526 6.41568013 -4.13671875 4.35546875 C-4.65234375 3.86046875 -5.16796875 3.36546875 -5.69921875 2.85546875 C-3.83678969 0.33197272 -3.21222186 -0.1720003 0 0 Z " fill="#950000" transform="translate(16.69921875,38.14453125)"/>
<path d="M0 0 C0.78375 0.04125 1.5675 0.0825 2.375 0.125 C2.045 1.775 1.715 3.425 1.375 5.125 C0.65570313 4.92003906 -0.06359375 4.71507812 -0.8046875 4.50390625 C-4.15125403 4.05429828 -5.70422599 4.6793274 -8.75 6.0625 C-13.35042373 8.125 -13.35042373 8.125 -16.625 8.125 C-16.955 7.135 -17.285 6.145 -17.625 5.125 C-16.305 5.125 -14.985 5.125 -13.625 5.125 C-13.295 4.465 -12.965 3.805 -12.625 3.125 C-10.59956444 2.86780183 -8.57149776 2.61657878 -6.53515625 2.46875 C-3.54202334 1.93010849 -3.25741789 0.15511514 0 0 Z " fill="#3F7B93" transform="translate(40.625,15.875)"/>
<path d="M0 0 C1.65 1.32 3.3 2.64 5 4 C4.67 5.65 4.34 7.3 4 9 C3.01 9 2.02 9 1 9 C-1.1875 6 -1.1875 6 -3 3 C-2.01 2.01 -1.02 1.02 0 0 Z " fill="#B40606" transform="translate(34,8)"/>
<path d="M0 0 C0 3 0 3 -1.3203125 4.5703125 C-5.13740322 7.85862875 -7.76919965 9.74483901 -13 10 C-8.66079295 4.17306482 -8.66079295 4.17306482 -5.375 3.3125 C-4.59125 3.209375 -3.8075 3.10625 -3 3 C-1.20614008 1.5420814 -1.20614008 1.5420814 0 0 Z " fill="#770000" transform="translate(38,34)"/>
<path d="M0 0 C1.32 0.66 2.64 1.32 4 2 C2.375 4 2.375 4 0 6 C-3.25 6.25 -3.25 6.25 -6 6 C-4 4 -2 2 0 0 Z " fill="#6D0D0D" transform="translate(27,29)"/>
<path d="M0 0 C0.33 0.66 0.66 1.32 1 2 C-0.37899549 4.75799098 -2.37672362 5.43852596 -5 7 C-6.75149165 8.58245275 -6.75149165 8.58245275 -8 10 C-8.99 9.67 -9.98 9.34 -11 9 C-8.44839619 4.79735844 -5.22651413 3.26979462 -1 1 C-0.67 0.67 -0.34 0.34 0 0 Z " fill="#871211" transform="translate(33,34)"/>
<path d="M0 0 C1.98 0 3.96 0 6 0 C5.01 1.485 5.01 1.485 4 3 C4.99 3.66 5.98 4.32 7 5 C4.69 5 2.38 5 0 5 C-0.33 4.01 -0.66 3.02 -1 2 C-0.67 1.34 -0.34 0.68 0 0 Z " fill="#AA2725" transform="translate(18,31)"/>
<path d="M0 0 C1.98 0.495 1.98 0.495 4 1 C4 2.65 4 4.3 4 6 C2.35 5.67 0.7 5.34 -1 5 C-0.67 3.35 -0.34 1.7 0 0 Z " fill="#BB1A15" transform="translate(20,21)"/>
<path d="M0 0 C1.26339822 3.79019466 0.49719015 5.37522384 -1 9 C-1.99 9.495 -1.99 9.495 -3 10 C-3.75 7.8125 -3.75 7.8125 -4 5 C-2.0625 2.1875 -2.0625 2.1875 0 0 Z " fill="#E30505" transform="translate(14,19)"/>
<path d="M0 0 C1.67542976 0.28604898 3.34385343 0.61781233 5 1 C5 1.99 5 2.98 5 4 C3.02 4 1.04 4 -1 4 C-1 1 -1 1 0 0 Z " fill="#2488AE" transform="translate(41,11)"/>
<path d="M0 0 C1.32 0.33 2.64 0.66 4 1 C3.34 2.65 2.68 4.3 2 6 C-0.475 5.01 -0.475 5.01 -3 4 C-2.01 2.68 -1.02 1.36 0 0 Z " fill="#A80101" transform="translate(14,38)"/>
<path d="M0 0 C0.99 0.33 1.98 0.66 3 1 C3.6875 3.0625 3.6875 3.0625 4 5 C1.0625 4.625 1.0625 4.625 -2 4 C-2.33 3.34 -2.66 2.68 -3 2 C-2.01 1.34 -1.02 0.68 0 0 Z " fill="#BB1716" transform="translate(28,15)"/>
<path d="M0 0 C0.99 0.99 1.98 1.98 3 3 C1.68 3.99 0.36 4.98 -1 6 C-1.66 5.01 -2.32 4.02 -3 3 C-2.01 2.01 -1.02 1.02 0 0 Z " fill="#C30808" transform="translate(34,8)"/>
<path d="M0 0 C0 1.98 0 3.96 0 6 C-0.99 6.495 -0.99 6.495 -2 7 C-2.99 6.01 -3.98 5.02 -5 4 C-1.125 0 -1.125 0 0 0 Z " fill="#9D8F88" transform="translate(32,30)"/>
<path d="M0 0 C1.65 0 3.3 0 5 0 C4.67 1.65 4.34 3.3 4 5 C2.68 4.34 1.36 3.68 0 3 C0 2.01 0 1.02 0 0 Z " fill="#28586A" transform="translate(38,16)"/>
</svg>
