<?xml version="1.0" encoding="UTF-8"?>
<svg version="1.1" xmlns="http://www.w3.org/2000/svg" width="160" height="160">
<path d="M0 0 C1.05493149 -0.01022186 2.10986298 -0.02044373 3.19676208 -0.03097534 C6.66160186 -0.05862729 10.1256396 -0.05686443 13.59057617 -0.05224609 C16.01519563 -0.06002828 18.43981239 -0.06869932 20.86442566 -0.07821655 C25.939004 -0.09311127 31.01330398 -0.09258062 36.08789062 -0.08203125 C42.56741215 -0.07045179 49.04578842 -0.10429242 55.52512074 -0.1507206 C60.53112874 -0.18029186 65.53686407 -0.18192558 70.54294395 -0.17570114 C72.93059238 -0.17672293 75.31825701 -0.18711096 77.70582008 -0.20732498 C92.94027848 -0.32047637 103.79400365 -0.17461315 115.57104492 10.42431641 C120.64963472 15.92524215 124.1775385 22.44187598 124.21821594 30.02554321 C124.2289489 31.40055496 124.2289489 31.40055496 124.23989868 32.80334473 C124.24258759 33.80700073 124.24527649 34.81065674 124.24804688 35.84472656 C124.25461807 36.90360077 124.26118927 37.96247498 124.26795959 39.05343628 C124.28770329 42.56508452 124.2993588 46.07668994 124.30932617 49.58837891 C124.3134017 50.78797619 124.31747723 51.98757347 124.32167625 53.22352219 C124.34254344 59.57511982 124.35684131 65.92669581 124.36621094 72.27832031 C124.37726525 78.83200488 124.4116525 85.38534898 124.45138264 91.93891335 C124.47755956 96.98335389 124.48590386 102.02771354 124.48949242 107.07221603 C124.49435703 109.48746408 124.50596735 111.90270855 124.52453041 114.31789017 C124.54893941 117.70471191 124.54795289 121.09065585 124.54101562 124.47753906 C124.56023071 125.96480499 124.56023071 125.96480499 124.57983398 127.4821167 C124.50097506 138.08466719 120.45210307 145.16825826 113.07104492 152.54931641 C105.81012423 159.42808338 97.85965788 161.14789653 88.14208984 161.09863281 C87.08715836 161.10885468 86.03222687 161.11907654 84.94532776 161.12960815 C81.48048799 161.1572601 78.01645024 161.15549724 74.55151367 161.15087891 C72.12689421 161.15866109 69.70227746 161.16733213 67.27766418 161.17684937 C62.20308585 161.19174408 57.12878586 161.19121343 52.05419922 161.18066406 C45.5746777 161.1690846 39.09630143 161.20292523 32.61696911 161.24935341 C27.6109611 161.27892467 22.60522578 161.28055839 17.59914589 161.27433395 C15.21149746 161.27535575 12.82383284 161.28574377 10.43626976 161.30595779 C-4.79818864 161.41910918 -15.6519138 161.27324596 -27.42895508 150.67431641 C-32.50754487 145.17339066 -36.03544865 138.65675683 -36.0761261 131.0730896 C-36.0832814 130.1564151 -36.09043671 129.2397406 -36.09780884 128.29528809 C-36.10049774 127.29163208 -36.10318665 126.28797607 -36.10595703 125.25390625 C-36.11252823 124.19503204 -36.11909943 123.13615784 -36.12586975 122.04519653 C-36.14561345 118.53354829 -36.15726896 115.02194287 -36.16723633 111.51025391 C-36.17334962 109.71085798 -36.17334962 109.71085798 -36.17958641 107.87511063 C-36.2004536 101.523513 -36.21475147 95.171937 -36.22412109 88.8203125 C-36.2351754 82.26662793 -36.26956266 75.71328383 -36.30929279 69.15971947 C-36.33546971 64.11527892 -36.34381401 59.07091927 -36.34740257 54.02641678 C-36.35226718 51.61116873 -36.3638775 49.19592426 -36.38244057 46.78074265 C-36.40684957 43.3939209 -36.40586304 40.00797696 -36.39892578 36.62109375 C-36.41173584 35.62958313 -36.4245459 34.63807251 -36.43774414 33.61651611 C-36.35888522 23.01396562 -32.31001323 15.93037455 -24.92895508 8.54931641 C-17.66803439 1.67054943 -9.71756804 -0.04926371 0 0 Z " fill="#7996B0" transform="translate(35.928955078125,-0.54931640625)"/>
<path d="M0 0 C5.03560043 1.00712009 6.32126437 1.70369619 10.0625 4.875 C11.02285156 5.68710937 11.98320313 6.49921875 12.97265625 7.3359375 C16.55211836 10.4576827 20.04018853 13.67731544 23.51782227 16.91162109 C26.7502403 19.90365443 30.06628405 22.73724004 33.5 25.5 C37.63396444 28.86035706 41.73696269 32.24625532 45.75 35.75 C46.28818359 36.19794922 46.82636719 36.64589844 47.38085938 37.10742188 C48.859375 38.421875 48.859375 38.421875 51 41 C51.13500215 44.40620808 50.3495037 45.6059094 48.1015625 48.140625 C47.28429687 48.83671875 46.46703125 49.5328125 45.625 50.25 C44.71621094 51.03246094 43.80742188 51.81492188 42.87109375 52.62109375 C39.24341748 55.62688266 35.58203999 58.58955019 31.91796875 61.55078125 C28.67887052 64.26954242 25.58695014 67.11153243 22.5 70 C18.39284007 73.82201665 14.26504613 77.60407347 10 81.25 C9.154375 81.97703125 8.30875 82.7040625 7.4375 83.453125 C5 85 5 85 0 85 C0 76.42 0 67.84 0 59 C-3.74214844 59.01160156 -7.48429687 59.02320313 -11.33984375 59.03515625 C-14.94718338 59.04294547 -18.55452209 59.049023 -22.16186523 59.05493164 C-24.67716895 59.05997363 -27.19246972 59.06680703 -29.70776367 59.07543945 C-33.31429775 59.08751094 -36.92079323 59.09322949 -40.52734375 59.09765625 C-42.22575661 59.10539818 -42.22575661 59.10539818 -43.95848083 59.11329651 C-44.99948441 59.11337204 -46.04048798 59.11344757 -47.11303711 59.11352539 C-48.49536781 59.11685631 -48.49536781 59.11685631 -49.90562439 59.12025452 C-52 59 -52 59 -53 58 C-53.1002093 55.72052208 -53.13081303 53.43792865 -53.1328125 51.15625 C-53.13376923 50.47195923 -53.13472595 49.78766846 -53.13571167 49.0826416 C-53.1363933 47.63338123 -53.13454023 46.18411782 -53.13037109 44.73486328 C-53.12502252 42.50937072 -53.1303166 40.28407999 -53.13671875 38.05859375 C-53.13605797 36.65364539 -53.1347768 35.24869715 -53.1328125 33.84375 C-53.13168457 32.55662109 -53.13055664 31.26949219 -53.12939453 29.94335938 C-53 27 -53 27 -52 26 C-50.37325222 25.90659566 -48.74245949 25.88254829 -47.11303711 25.88647461 C-46.07203354 25.88655014 -45.03102997 25.88662567 -43.95848083 25.88670349 C-42.8262056 25.89186478 -41.69393036 25.89702606 -40.52734375 25.90234375 C-39.37456436 25.9037587 -38.22178497 25.90517365 -37.03407288 25.90663147 C-33.33518936 25.91224995 -29.63636536 25.92480558 -25.9375 25.9375 C-23.43684983 25.94251262 -20.93619871 25.94707594 -18.43554688 25.95117188 C-12.29032295 25.9613765 -6.14522845 25.98094831 0 26 C0 17.42 0 8.84 0 0 Z " fill="#FDFDFD" transform="translate(81,38)"/>
<path d="M0 0 C1.01568558 -0.00058411 2.03137115 -0.00116821 3.07783508 -0.00177002 C6.40568267 0.00099716 9.73261332 0.03202507 13.06030273 0.06347656 C15.37914033 0.07094379 17.69798426 0.07663445 20.01683044 0.08062744 C26.09800872 0.09584566 32.17880036 0.13509495 38.25982666 0.17944336 C44.47386445 0.22047821 50.68796516 0.238656 56.90209961 0.25878906 C69.07870108 0.30159263 81.25501654 0.36979792 93.43139648 0.45410156 C93.43139648 1.11410156 93.43139648 1.77410156 93.43139648 2.45410156 C94.54514648 2.74285156 95.65889648 3.03160156 96.80639648 3.32910156 C100.43139648 4.45410156 100.43139648 4.45410156 102.43139648 6.45410156 C104.39830023 7.12702657 104.39830023 7.12702657 106.55639648 7.57910156 C107.83514648 7.86785156 109.11389648 8.15660156 110.43139648 8.45410156 C110.43139648 9.11410156 110.43139648 9.77410156 110.43139648 10.45410156 C106.76112338 10.92768519 104.57540421 10.11242046 101.38685608 8.4708252 C96.20530192 6.11614424 91.71107854 5.88688076 86.08154297 5.93652344 C85.0884613 5.92951416 84.09537964 5.92250488 83.07220459 5.9152832 C79.81534206 5.8977912 76.55936039 5.90929413 73.30249023 5.92285156 C71.02523127 5.92015435 68.74797343 5.91627002 66.47071838 5.91125488 C61.70888249 5.90537191 56.94734765 5.91388513 52.18554688 5.93261719 C46.09369953 5.95541861 40.00255672 5.9422679 33.91073513 5.91832733 C29.21200791 5.90384818 24.51344675 5.90848492 19.81471443 5.9188385 C17.56891864 5.92149924 15.32310758 5.91825911 13.07732964 5.90892029 C9.93510063 5.89871867 6.79400075 5.91430664 3.65185547 5.93652344 C2.73163101 5.92842651 1.81140656 5.92032959 0.86329651 5.9119873 C-10.01486208 6.05389231 -18.77204697 12.18912842 -26.56860352 19.45410156 C-30.73142702 26.7390427 -30.98628083 36.93612723 -31.75610352 45.14160156 C-31.89822266 46.48834961 -31.89822266 46.48834961 -32.04321289 47.86230469 C-32.53211593 52.95659974 -32.43061933 57.37845599 -31.56860352 62.45410156 C-31.33036022 68.66944869 -31.24017573 74.91203001 -32.13110352 81.07910156 C-32.52869815 84.1462602 -32.38609482 85.59288201 -31.56860352 88.45410156 C-31.78709961 89.25074219 -31.78709961 89.25074219 -32.01000977 90.06347656 C-32.96843022 94.16524802 -32.93023423 98.41118236 -33.08618164 102.61035156 C-33.27486093 106.42665721 -33.72831566 109.1260291 -35.56860352 112.45410156 C-35.66148179 101.26621841 -35.73245894 90.07842773 -35.7758522 78.89023685 C-35.79668392 73.69450782 -35.82492076 68.49904351 -35.87036133 63.3034668 C-35.91397672 58.28489535 -35.93777381 53.26657777 -35.94811249 48.24783134 C-35.95547574 46.33775273 -35.96985431 44.42768725 -35.99152374 42.51771736 C-36.02076668 39.83223087 -36.02455087 37.14777951 -36.02270508 34.4621582 C-36.03708618 33.68100143 -36.05146729 32.89984467 -36.06628418 32.09501648 C-35.99378326 22.27990603 -31.32994288 15.21544093 -24.56860352 8.45410156 C-17.41219576 1.67434685 -9.59147006 -0.14672172 0 0 Z " fill="#5B758E" transform="translate(35.568603515625,-0.4541015625)"/>
<path d="M0 0 C0.92480667 -0.00175232 1.84961334 -0.00350464 2.80244446 -0.00531006 C5.83177619 -0.00967871 8.86104862 -0.00680849 11.89038086 -0.00341797 C14.01069652 -0.00409238 16.13101211 -0.00506356 18.25132751 -0.00631714 C22.68350973 -0.00778731 27.11567171 -0.00566125 31.54785156 -0.00097656 C37.21573271 0.00472379 42.88356654 0.00143544 48.55144596 -0.00454903 C52.92586114 -0.00817004 57.30026518 -0.00700902 61.67468071 -0.00442123 C63.76417484 -0.00375641 65.85366999 -0.00456478 67.94316292 -0.00690079 C70.86708363 -0.00945302 73.79092864 -0.00555074 76.71484375 0 C77.56961304 -0.00202423 78.42438232 -0.00404846 79.30505371 -0.00613403 C93.20584364 0.04251356 93.20584364 0.04251356 96.29272461 3.12939453 C98.25962835 3.80231954 98.25962835 3.80231954 100.41772461 4.25439453 C101.69647461 4.54314453 102.97522461 4.83189453 104.29272461 5.12939453 C104.29272461 5.78939453 104.29272461 6.44939453 104.29272461 7.12939453 C100.6224515 7.60297816 98.43673234 6.78771343 95.2481842 5.14611816 C90.06663004 2.79143721 85.57240667 2.56217373 79.94287109 2.61181641 C78.94978943 2.60480713 77.95670776 2.59779785 76.93353271 2.59057617 C73.67667018 2.57308417 70.42068851 2.5845871 67.16381836 2.59814453 C64.88655939 2.59544732 62.60930155 2.59156298 60.33204651 2.58654785 C55.57021062 2.58066488 50.80867578 2.5891781 46.046875 2.60791016 C39.95502766 2.63071158 33.86388485 2.61756087 27.77206326 2.5936203 C23.07333604 2.57914115 18.37477487 2.58377789 13.67604256 2.59413147 C11.43024677 2.59679221 9.18443571 2.59355208 6.93865776 2.58421326 C3.79642876 2.57401164 0.65532888 2.5895996 -2.48681641 2.61181641 C-3.40704086 2.60371948 -4.32726532 2.59562256 -5.27537537 2.58728027 C-16.15353395 2.72918527 -24.91071884 8.86442139 -32.70727539 16.12939453 C-38.14823162 25.65106794 -37.67646663 39.44846116 -38.70727539 50.12939453 C-39.03727539 50.12939453 -39.36727539 50.12939453 -39.70727539 50.12939453 C-41.2795301 38.53401605 -42.40655241 25.83622166 -37.20727539 15.00439453 C-32.31537543 9.37870958 -26.73451845 4.72030849 -19.70727539 2.12939453 C-19.37727539 1.79939453 -19.04727539 1.46939453 -18.70727539 1.12939453 C-12.44263463 0.25139225 -6.31805573 -0.01499769 0 0 Z " fill="#65829D" transform="translate(41.707275390625,2.87060546875)"/>
<path d="M0 0 C1.1190367 -0.00364484 1.1190367 -0.00364484 2.2606802 -0.00736332 C3.54528133 -0.02222027 3.54528133 -0.02222027 4.85583401 -0.03737736 C6.26852818 -0.03062489 6.26852818 -0.03062489 7.70976162 -0.023736 C8.70021481 -0.03059925 9.69066799 -0.0374625 10.71113491 -0.04453373 C14.00110438 -0.06290395 17.29060123 -0.05894732 20.58061123 -0.05327702 C22.86547915 -0.05783619 25.15034569 -0.06314097 27.43521023 -0.06916142 C32.23462888 -0.07811429 37.03388138 -0.07564731 41.83329678 -0.06572819 C47.97118264 -0.05427691 54.10848992 -0.07438024 60.24629974 -0.10364532 C64.97080009 -0.1220402 69.69516294 -0.12170756 74.41969013 -0.1160078 C76.68141328 -0.11585477 78.94314586 -0.1218841 81.20483494 -0.13429928 C84.37871393 -0.14925671 87.55153948 -0.13849399 90.72538662 -0.12139225 C92.11682636 -0.1358942 92.11682636 -0.1358942 93.536376 -0.15068913 C99.14851034 -0.08769631 103.26882378 0.90907492 108.29082298 3.44208336 C110.55367447 4.57160381 112.75406389 5.158147 115.23295498 5.63031673 C116.36410732 5.85461361 116.36410732 5.85461361 117.51811123 6.08344173 C118.06338467 6.18141048 118.6086581 6.27937923 119.17045498 6.38031673 C119.17045498 7.37031673 119.17045498 8.36031673 119.17045498 9.38031673 C118.51045498 9.38031673 117.85045498 9.38031673 117.17045498 9.38031673 C117.66545498 12.84531673 117.66545498 12.84531673 118.17045498 16.38031673 C117.18045498 15.88531673 117.18045498 15.88531673 116.17045498 15.38031673 C116.17045498 14.72031673 116.17045498 14.06031673 116.17045498 13.38031673 C115.51045498 13.38031673 114.85045498 13.38031673 114.17045498 13.38031673 C114.17045498 12.72031673 114.17045498 12.06031673 114.17045498 11.38031673 C113.18045498 11.05031673 112.19045498 10.72031673 111.17045498 10.38031673 C110.75795498 9.92656673 110.34545498 9.47281673 109.92045498 9.00531673 C105.74190227 5.12523208 99.56577546 3.25313922 93.93737698 3.26006222 C92.64382542 3.25800022 92.64382542 3.25800022 91.3241415 3.25589657 C90.381152 3.25949184 89.4381625 3.26308712 88.46659756 3.26679134 C87.47129528 3.26664532 86.475993 3.26649929 85.45053005 3.26634884 C82.15532673 3.26704642 78.86017969 3.27483163 75.56498623 3.28266048 C73.28240903 3.28452521 70.99983143 3.28594886 68.71725368 3.2869482 C62.70520329 3.29076906 56.69317699 3.30059569 50.68113613 3.31165218 C44.54802177 3.32187556 38.41490352 3.32644781 32.2817831 3.33148861 C20.24466313 3.34221832 8.20756106 3.3592896 -3.82954502 3.38031673 C-1.82954502 0.38031673 -1.82954502 0.38031673 0 0 Z " fill="#6C8DAA" transform="translate(30.82954502105713,4.619683265686035)"/>
<path d="M0 0 C0.99 0.66 1.98 1.32 3 2 C3.30201685 4.94898903 3.40927453 7.68873328 3.38818359 10.640625 C3.39344055 11.53503296 3.39869751 12.42944092 3.40411377 13.35095215 C3.41735435 16.31747731 3.40856136 19.28346906 3.3984375 22.25 C3.40045707 24.30501407 3.40336752 26.36002745 3.40713501 28.41503906 C3.41156387 32.72598074 3.40510923 37.03673618 3.39111328 41.34765625 C3.37402115 46.88306501 3.38385933 52.41803744 3.40183067 57.95343018 C3.41265333 62.19811308 3.40922915 66.44269195 3.4014473 70.68737793 C3.39944108 72.72880098 3.40191924 74.77023336 3.40888596 76.81164551 C3.41647549 79.66114446 3.40493145 82.50992945 3.38818359 85.359375 C3.39425629 86.2093103 3.40032898 87.05924561 3.40658569 87.93493652 C3.38095093 90.28027344 3.38095093 90.28027344 3 94 C1.515 94.99 1.515 94.99 0 96 C0 91.66666667 0 87.33333333 0 83 C-0.185625 82.29875 -0.37125 81.5975 -0.5625 80.875 C-0.706875 80.25625 -0.85125 79.6375 -1 79 C-0.505 78.505 -0.505 78.505 0 78 C0.10008362 76.23796182 0.13081167 74.47190837 0.1328125 72.70703125 C0.13482666 71.60746094 0.13684082 70.50789063 0.13891602 69.375 C0.13432373 68.199375 0.12973145 67.02375 0.125 65.8125 C0.12234131 64.63042969 0.11968262 63.44835937 0.11694336 62.23046875 C0.81642372 48.76622443 0.81642372 48.76622443 -2 36 C-1.67 35.34 -1.34 34.68 -1 34 C-0.90534655 32.64842019 -0.86927838 31.29238852 -0.8671875 29.9375 C-0.86589844 29.14085938 -0.86460937 28.34421875 -0.86328125 27.5234375 C-0.86908203 26.27433594 -0.86908203 26.27433594 -0.875 25 C-0.87113281 24.16726562 -0.86726562 23.33453125 -0.86328125 22.4765625 C-0.86457031 21.67992188 -0.86585938 20.88328125 -0.8671875 20.0625 C-0.86831543 19.33160156 -0.86944336 18.60070312 -0.87060547 17.84765625 C-0.88798205 15.90433947 -0.88798205 15.90433947 -2 14 C-1.75146137 11.61745728 -1.42836571 9.24236637 -1.0625 6.875 C-0.86785156 5.59367187 -0.67320312 4.31234375 -0.47265625 2.9921875 C-0.31667969 2.00476563 -0.16070312 1.01734375 0 0 Z " fill="#617D96" transform="translate(157,28)"/>
<path d="M0 0 C0.33 0 0.66 0 1 0 C1.07587458 7.22649432 1.12852551 14.45288649 1.16479492 21.6796875 C1.17990988 24.13968748 1.20040227 26.59966041 1.22631836 29.05957031 C1.2625823 32.58926052 1.27969914 36.11859544 1.29296875 39.6484375 C1.30845261 40.75367767 1.32393646 41.85891785 1.33988953 42.99765015 C1.34011612 44.01855743 1.34034271 45.03946472 1.34057617 46.09130859 C1.34723801 46.99287689 1.35389984 47.89444519 1.36076355 48.82333374 C1.24171158 49.54163361 1.12265961 50.25993347 1 51 C0.01 51.66 -0.98 52.32 -2 53 C-2 48.66666667 -2 44.33333333 -2 40 C-2.2784375 38.948125 -2.2784375 38.948125 -2.5625 37.875 C-2.706875 37.25625 -2.85125 36.6375 -3 36 C-2.505 35.505 -2.505 35.505 -2 35 C-1.93704668 33.51693254 -1.9406747 32.03093342 -1.97265625 30.546875 C-1.99295898 29.16072998 -1.99295898 29.16072998 -2.01367188 27.74658203 C-2.02978516 26.75770996 -2.04589844 25.76883789 -2.0625 24.75 C-2.14489628 16.26730339 -1.75910164 8.32432027 0 0 Z " fill="#566E85" transform="translate(159,71)"/>
<path d="M0 0 C12.33463355 -0.04628695 24.66924654 -0.08185067 37.00394917 -0.10362434 C42.73109817 -0.11407322 48.45818787 -0.12825256 54.18530273 -0.15087891 C59.70956698 -0.17256791 65.23377409 -0.18456031 70.75807762 -0.18975449 C72.86845995 -0.19345734 74.97883907 -0.20068782 77.08919716 -0.21146011 C80.03910775 -0.22592258 82.98878052 -0.22798014 85.9387207 -0.22705078 C87.2550222 -0.23783661 87.2550222 -0.23783661 88.59791565 -0.24884033 C94.65784352 -0.22810432 94.65784352 -0.22810432 98 2 C96.0625 2.5625 96.0625 2.5625 94 3 C93.505 2.505 93.505 2.505 93 2 C90.10934764 1.87472813 87.24143213 1.81389798 84.34936523 1.79467773 C82.9885231 1.77982834 82.9885231 1.77982834 81.60018921 1.76467896 C78.58635106 1.73296405 75.57249711 1.70826722 72.55859375 1.68359375 C70.47493569 1.66303284 68.39128189 1.64203661 66.30763245 1.62062073 C60.81181269 1.56531091 55.31595474 1.51594106 49.82006836 1.46777344 C44.21659936 1.4176233 38.61318612 1.36190345 33.00976562 1.30664062 C22.006558 1.19895014 11.00330205 1.09752952 0 1 C0 0.67 0 0.34 0 0 Z " fill="#8FAAC3" transform="translate(34,7)"/>
<path d="M0 0 C0.33 0 0.66 0 1 0 C1.53107314 2.74837849 2.05015881 5.49812375 2.5625 8.25 C2.71396484 9.02730469 2.86542969 9.80460937 3.02148438 10.60546875 C3.16005859 11.35957031 3.29863281 12.11367187 3.44140625 12.890625 C3.57232666 13.58188477 3.70324707 14.27314453 3.83813477 14.98535156 C4.01895741 17.23595254 3.6022807 18.83563723 3 21 C2.77780472 24.38583286 2.60833371 27.76584341 2.48242188 31.15625 C2.28446042 35.16030056 1.8369752 37.3260496 0 41 C0 27.47 0 13.94 0 0 Z " fill="#556D84" transform="translate(0,71)"/>
<path d="M0 0 C0.33 0.66 0.66 1.32 1 2 C-2.0736621 9.96357907 -7.81874764 17.02547478 -15.4375 21.125 C-16.283125 21.41375 -17.12875 21.7025 -18 22 C-18.66 21.67 -19.32 21.34 -20 21 C-19.18015625 20.25234375 -18.3603125 19.5046875 -17.515625 18.734375 C-16.42703861 17.73963227 -15.33849945 16.74483787 -14.25 15.75 C-13.71117187 15.25886719 -13.17234375 14.76773438 -12.6171875 14.26171875 C-7.74688801 9.80717654 -3.57354022 5.6155632 0 0 Z " fill="#4E6579" transform="translate(158,136)"/>
<path d="M0 0 C0.33 0 0.66 0 1 0 C1.08685287 3.29150125 1.14033895 6.5827096 1.1875 9.875 C1.21263672 10.81214844 1.23777344 11.74929687 1.26367188 12.71484375 C1.27333984 13.61074219 1.28300781 14.50664063 1.29296875 15.4296875 C1.3086792 16.25710449 1.32438965 17.08452148 1.34057617 17.93701172 C1.22818604 18.61779785 1.1157959 19.29858398 1 20 C0.01 20.66 -0.98 21.32 -2 22 C-2.30071865 14.44862068 -1.42625566 7.41143564 0 0 Z " fill="#50677C" transform="translate(159,102)"/>
<path d="M0 0 C0 3 0 3 0 3 Z M-2 3 C0 6 0 6 -0.20703125 7.91015625 C-0.40683594 8.62042969 -0.60664062 9.33070312 -0.8125 10.0625 C-2.07556535 15.0169757 -2.5963263 19.91158674 -3 25 C-3.33 25 -3.66 25 -4 25 C-5.2787827 17.07154723 -4.53611471 10.60834413 -2 3 Z " fill="#6B8AA6" transform="translate(7,19)"/>
<path d="M0 0 C0.66 0.33 1.32 0.66 2 1 C1.38511719 1.47050781 0.77023438 1.94101563 0.13671875 2.42578125 C-0.67152344 3.04839844 -1.47976562 3.67101562 -2.3125 4.3125 C-3.11300781 4.92738281 -3.91351563 5.54226562 -4.73828125 6.17578125 C-6.62701374 7.69916307 -8.33077636 9.24434407 -10 11 C-10.33 9.68 -10.66 8.36 -11 7 C-9.90398831 5.99106869 -8.79786082 4.99311775 -7.6875 4 C-7.07261719 3.443125 -6.45773438 2.88625 -5.82421875 2.3125 C-4 1 -4 1 -1 1 C-0.67 0.67 -0.34 0.34 0 0 Z " fill="#96B0C8" transform="translate(23,10)"/>
<path d="M0 0 C0.66 0.66 1.32 1.32 2 2 C-2.455 4.97 -2.455 4.97 -7 8 C-7.66 7.67 -8.32 7.34 -9 7 C-7.87720538 6.01830524 -6.75168527 5.03972702 -5.625 4.0625 C-4.68527344 3.24458984 -4.68527344 3.24458984 -3.7265625 2.41015625 C-2 1 -2 1 0 0 Z " fill="#64809B" transform="translate(19,6)"/>
<path d="M0 0 C0.66 0.33 1.32 0.66 2 1 C0.35 2.98 -1.3 4.96 -3 7 C-3 3.48283697 -2.17554415 2.62878252 0 0 Z " fill="#7090AD" transform="translate(10,17)"/>
<path d="M0 0 C0.33 0 0.66 0 1 0 C1 1.98 1 3.96 1 6 C-0.98 6.99 -0.98 6.99 -3 8 C-1.125 1.125 -1.125 1.125 0 0 Z " fill="#4C6276" transform="translate(159,129)"/>
<path d="" fill="#FF0000" transform="translate(0,0)"/>
<path d="" fill="#FF0000" transform="translate(0,0)"/>
</svg>
