<?xml version="1.0" encoding="UTF-8"?>
<svg version="1.1" xmlns="http://www.w3.org/2000/svg" width="50" height="50">
<path d="M0 0 C2.86956485 1.11640131 5.60440572 2.39560267 8.3671875 3.75390625 C11.54053076 5.25582984 14.59845456 6.16851111 18 7 C18.79587556 20.70674572 16.00240548 31.44727812 7 42 C1.36787839 48.01854504 1.36787839 48.01854504 -2 50 C-7.47606209 49.68732362 -11.17100496 46.69796479 -15 43 C-23.71337031 32.06419111 -26.8023215 20.8177592 -26 7 C-25.20335937 6.74605469 -24.40671875 6.49210938 -23.5859375 6.23046875 C-17.00727937 4.12868682 -17.00727937 4.12868682 -10.75 1.25 C-7.0442606 -0.434427 -3.94715012 -0.74602494 0 0 Z M-12.5625 5.375 C-16.00634036 7.04562894 -19.42907112 8.61812156 -23 10 C-23.74499348 21.17490215 -20.24220667 31.41421652 -13 40 C-10.44711035 42.48837619 -7.79762584 44.79172173 -5 47 C4.29332809 42.74055796 9.39858409 35.34797942 13 25.9375 C14.81991262 20.36820218 15.50177682 15.82061112 15 10 C14.18015625 9.66226562 13.3603125 9.32453125 12.515625 8.9765625 C11.43796875 8.53054687 10.3603125 8.08453125 9.25 7.625 C8.18265625 7.18414063 7.1153125 6.74328125 6.015625 6.2890625 C3 5 3 5 0.984375 3.8359375 C-3.92591514 1.76742945 -7.99951478 3.12920642 -12.5625 5.375 Z " fill="#3EC055" transform="translate(29,0)"/>
<path d="M0 0 C0.99 0.33 1.98 0.66 3 1 C1.51364884 5.21654356 -0.61249159 8.62478605 -3.125 12.3125 C-3.84945313 13.38113281 -4.57390625 14.44976562 -5.3203125 15.55078125 C-6.15175781 16.76314453 -6.15175781 16.76314453 -7 18 C-8.34444159 17.09970429 -9.67531438 16.17911978 -11 15.25 C-11.7425 14.73953125 -12.485 14.2290625 -13.25 13.703125 C-13.8275 13.14109375 -14.405 12.5790625 -15 12 C-15 10.68 -15 9.36 -15 8 C-12.50638429 9.20381448 -10.31856917 10.45428722 -8 12 C-5.36 8.04 -2.72 4.08 0 0 Z " fill="#3EC156" transform="translate(32,14)"/>
</svg>
